<?xml version="1.0" standalone="no"?>
<!DOCTYPE svg PUBLIC "-//W3C//DTD SVG 20010904//EN"
 "http://www.w3.org/TR/2001/REC-SVG-20010904/DTD/svg10.dtd">
<svg version="1.0" xmlns="http://www.w3.org/2000/svg"
 width="400.000000pt" height="400.000000pt" viewBox="0 0 400.000000 400.000000"
 preserveAspectRatio="xMidYMid meet">

<g transform="translate(0.000000,400.000000) scale(0.100000,-0.100000)"
fill="#000000" stroke="none">
<path d="M1730 2771 c-68 -35 -109 -96 -105 -158 1 -21 7 -48 12 -58 6 -10 8
-36 6 -57 -5 -34 -2 -42 36 -78 29 -28 41 -48 41 -68 0 -27 -5 -30 -71 -52
-106 -36 -112 -46 -107 -202 4 -122 3 -127 -17 -130 -16 -2 -21 -12 -23 -45
l-3 -43 495 0 496 0 6 27 c12 48 -4 58 -106 63 -91 5 -94 6 -103 33 -16 50 -6
57 86 57 121 0 121 0 125 197 4 170 -4 208 -45 224 -13 5 -116 9 -227 9 -194
0 -204 1 -209 20 -3 10 1 27 9 37 20 26 17 103 -6 150 -22 47 -57 73 -120 90
-70 19 -110 15 -170 -16z m220 -42 c16 -8 30 -21 30 -30 0 -9 6 -22 14 -28 27
-23 6 -131 -25 -131 -5 0 -9 11 -9 24 0 40 -34 53 -130 51 -47 -2 -89 -3 -93
-4 -4 0 -15 -17 -23 -37 -15 -35 -16 -36 -35 -18 -42 38 -15 136 49 176 79 49
103 49 222 -3z m-21 -180 c15 -43 14 -59 -3 -59 -32 0 -60 -37 -65 -86 -5 -43
-9 -49 -31 -52 -16 -2 -41 8 -66 27 -35 25 -42 36 -48 77 -5 38 -3 52 9 60 8
6 15 20 15 31 0 30 7 33 96 33 l82 0 11 -31z m519 -101 c8 -8 12 -62 12 -179
0 -143 -2 -168 -16 -173 -9 -3 -49 -6 -89 -6 l-73 0 -12 53 c-17 72 -23 77
-90 77 -67 0 -76 -8 -94 -77 l-12 -48 -85 0 -84 0 -3 174 c-2 133 1 176 10
183 22 13 522 10 536 -4z m-620 -128 c32 0 32 0 32 -50 l0 -50 -35 0 c-35 0
-63 11 -97 39 -16 12 -16 15 5 43 15 21 27 28 42 24 11 -3 35 -6 53 -6z m-127
-82 c26 -21 59 -36 97 -43 56 -11 57 -12 62 -51 8 -62 22 -77 75 -83 54 -7 71
-25 61 -64 -5 -23 -12 -27 -42 -27 -30 0 -37 4 -46 30 -15 44 -53 60 -148 60
l-80 0 0 51 c0 43 -3 50 -17 47 -14 -2 -19 -15 -21 -52 -4 -67 14 -86 85 -86
51 0 54 -2 51 -22 -3 -22 -7 -23 -91 -23 -67 0 -90 4 -97 15 -6 8 -9 69 -8
135 l3 120 35 12 c19 7 36 12 38 12 2 1 21 -13 43 -31z m526 -60 c9 -11 22
-101 27 -178 1 -25 0 -25 -74 -25 l-75 0 1 40 c1 69 17 160 28 167 18 12 83 9
93 -4z m-159 -142 c6 -28 -7 -66 -22 -66 -25 0 -35 57 -14 78 16 16 32 10 36
-12z m-198 -31 c17 -21 1 -38 -31 -33 -16 2 -25 11 -27 26 -3 18 1 22 21 22
14 0 30 -7 37 -15z m588 -82 c-3 -17 -34 -18 -457 -21 -446 -2 -493 1 -475 29
3 5 211 9 470 9 438 0 465 -1 462 -17z"/>
<path d="M2150 2340 c-23 -23 -24 -33 -10 -61 12 -21 50 -25 68 -7 18 18 15
59 -5 74 -24 18 -30 17 -53 -6z m40 -30 c0 -5 -7 -10 -15 -10 -8 0 -15 5 -15
10 0 6 7 10 15 10 8 0 15 -4 15 -10z"/>
<path d="M860 1520 c0 -180 2 -210 15 -210 12 0 15 20 15 118 0 130 5 143 62
157 36 9 68 1 96 -25 20 -19 22 -30 22 -135 0 -96 3 -115 15 -115 13 0 15 20
15 121 l0 121 -32 30 c-29 27 -37 29 -82 25 -28 -3 -60 -6 -71 -8 -18 -4 -20
2 -23 64 -2 51 -6 67 -17 67 -13 0 -15 -33 -15 -210z"/>
<path d="M3150 1681 c0 -78 -3 -81 -73 -75 -54 5 -66 3 -97 -18 -50 -34 -61
-62 -58 -145 3 -60 7 -76 28 -97 44 -48 150 -58 208 -20 22 14 22 18 22 209 0
167 -2 195 -15 195 -11 0 -15 -12 -15 -49z m-19 -117 c16 -14 19 -31 19 -108
0 -50 -4 -96 -8 -103 -12 -20 -64 -34 -96 -27 -68 15 -96 53 -96 130 0 86 50
138 123 130 21 -2 47 -12 58 -22z"/>
<path d="M498 1699 c-16 -9 -18 -30 -18 -199 0 -162 2 -190 15 -190 12 0 15
14 15 63 0 36 5 68 12 75 7 7 36 12 65 12 105 0 153 39 153 125 0 60 -18 90
-67 110 -40 17 -149 20 -175 4z m149 -24 c47 -20 62 -41 63 -91 0 -58 -37 -91
-113 -100 -80 -9 -87 -1 -87 103 0 77 2 84 23 93 34 13 74 12 114 -5z"/>
<path d="M1610 1522 c0 -158 2 -181 18 -195 21 -19 83 -31 111 -22 35 11 23
24 -20 22 -33 -1 -45 4 -60 22 -17 21 -19 38 -17 120 l3 96 50 3 c68 4 84 22
20 22 -28 0 -55 4 -62 8 -6 4 -13 27 -15 51 -2 25 -9 46 -15 49 -10 3 -13 -37
-13 -176z"/>
<path d="M1279 1587 c-44 -30 -64 -70 -63 -132 1 -100 49 -150 146 -150 56 1
62 3 93 37 74 80 50 223 -43 259 -41 16 -97 10 -133 -14z m140 -23 c58 -48 65
-144 16 -203 -44 -52 -130 -46 -166 12 -27 43 -23 145 6 178 41 45 100 51 144
13z"/>
<path d="M1913 1590 c-43 -26 -63 -68 -63 -135 0 -99 45 -148 136 -149 90 -1
136 42 142 134 7 105 -45 170 -138 170 -27 0 -58 -8 -77 -20z m127 -17 c36
-25 48 -43 55 -84 19 -109 -62 -191 -150 -155 -81 34 -88 190 -11 237 38 23
74 24 106 2z"/>
<path d="M2210 1603 c0 -12 42 -125 80 -215 27 -68 35 -78 57 -78 20 0 29 10
53 63 39 85 82 216 75 228 -13 20 -24 6 -45 -58 -32 -104 -71 -203 -78 -203
-14 0 -36 47 -72 155 -25 75 -42 111 -53 113 -10 2 -17 0 -17 -5z"/>
<path d="M2635 1596 c-39 -17 -64 -54 -71 -109 -14 -97 35 -170 122 -183 55
-8 124 10 124 32 0 12 -4 13 -21 3 -31 -16 -115 -14 -142 3 -28 19 -51 62 -44
81 4 10 36 18 103 27 53 6 103 14 111 17 33 13 -7 105 -57 130 -32 16 -87 16
-125 -1z m124 -33 c16 -16 32 -38 36 -50 8 -29 -13 -38 -117 -48 -91 -8 -104
3 -73 62 36 66 105 82 154 36z"/>
<path d="M3333 1600 c-13 -5 -23 -15 -23 -21 0 -7 8 -9 23 -4 12 4 41 10 64
12 35 4 46 1 68 -21 18 -18 25 -35 23 -54 -3 -25 -7 -28 -63 -35 -111 -16
-150 -47 -138 -109 9 -48 37 -63 117 -63 39 0 81 6 94 13 21 12 22 19 22 115
0 125 -5 144 -41 162 -31 16 -111 19 -146 5z m155 -196 c4 -63 -11 -78 -78
-78 -58 0 -90 23 -90 64 0 35 21 52 73 61 84 14 92 10 95 -47z"/>
</g>
</svg>
