<?xml version="1.0" encoding="iso-8859-1"?>
<!-- Uploaded to: SVG Repo, www.svgrepo.com, Generator: SVG Repo Mixer Tools -->
<svg height="800px" width="800px" version="1.1" id="Layer_1" xmlns="http://www.w3.org/2000/svg" xmlns:xlink="http://www.w3.org/1999/xlink" 
	 viewBox="0 0 512 512" xml:space="preserve">
<path style="fill:#D7DEED;" d="M128.62,435.854c-13.012-5.205-21.995-17.321-23.013-31.299
	c-1.945-26.692-7.691-71.848-24.659-105.783c-18.779-37.56-34.207-82.441-34.207-128.274c0-31.356,11.045-70.551,42.758-102.62
	c51.557-52.136,95.85-59.861,153.929-59.861c94.068,0,130.609,37.786,146.981,59.861c15.856,21.379,25.325,67.947,32.603,83.913
	c5.523,12.114,8.017,22.983,1.603,36.879c-6.414,13.896-3.738,19.439,1.247,29.218c4.632,9.086,25.719,39.518,32.782,45.609
	c7.127,6.146,11.135,22.715-1.959,29.396c-9.226,4.708-20.489,4.454-21.558,8.373c-1.069,3.92-2.478,9.863,2.171,17.225
	c2.754,4.36,3.719,11.723-6.512,17.446c-1.504,0.841-1.736,2.878-0.623,4.194c2.196,2.598,4.702,6.797,2.825,11.02
	c-2.851,6.414-10.334,6.414-11.046,17.371c-0.485,7.459,5.345,17.103,3.741,29.663s-14.965,29.396-37.681,28.862
	c-22.715-0.534-46.571-3.937-57.635,7.127c-5.844,5.844-8.264,31.735-9.268,52.185c-0.625,12.741-13.637,21.035-25.48,16.297
	L128.62,435.854z"/>
<path style="fill:#FFFFFF;" d="M337.368,257.791c13.46-22.329,20.016-49.289,16.117-78.067
	c-7.212-53.225-50.409-95.979-103.734-102.403c-77.785-9.369-143.075,55.926-133.697,133.711
	c6.429,53.324,49.185,96.515,102.409,103.723c28.775,3.896,55.734-2.657,78.06-16.118l41.297,12.252
	c7.223,2.143,13.945-4.578,11.801-11.801L337.368,257.791z"/>
<path d="M463.881,257.425c-5.726-4.939-26.21-34.026-30.876-43.178c-4.582-8.988-5.965-11.7-1.111-22.217
	c8.079-17.504,4.011-31.282-1.587-43.564c-2.232-4.897-4.853-13.485-7.887-23.429c-6.341-20.78-14.231-46.644-25.572-61.933
	c-12.768-17.215-28.151-30.466-47.029-40.51C321.647,7.601,285.851,0,243.428,0c-26.123,0-54.138,1.309-81.998,10.809
	c-27.554,9.395-52.223,25.738-77.632,51.433C55.153,91.21,38.724,130.667,38.724,170.498c0,40.977,11.794,85.341,35.053,131.86
	c16.646,33.292,22.077,78.685,23.833,102.78c1.228,16.861,12.232,31.84,28.032,38.159l167.002,66.801
	c3.184,1.273,6.543,1.902,9.889,1.902c5.041,0,10.056-1.425,14.4-4.214c7.313-4.694,11.751-12.36,12.175-21.035
	c1.984-40.44,6.792-46.731,6.929-46.909c6.702-6.702,23.677-5.947,40.094-5.218c3.82,0.17,7.771,0.345,11.683,0.437
	c0.438,0.01,0.868,0.015,1.3,0.015c27.533-0.002,42.6-20.82,44.522-35.877c1.134-8.881-0.747-16.283-2.259-22.232
	c-0.798-3.141-1.553-6.108-1.435-7.926c0.221-3.395,1.07-4.123,3.595-6.285c2.09-1.789,4.951-4.242,6.777-8.351
	c2.087-4.695,1.776-9.792-0.817-14.738c4.486-3.734,6.358-7.726,7.118-10.717c1.252-4.93,0.351-10.166-2.539-14.742
	c-2.061-3.264-2.244-5.807-1.786-8.397c1.097-0.32,2.534-0.67,3.703-0.955c4.163-1.016,9.344-2.278,14.334-4.824
	c7.279-3.714,11.814-10.127,12.77-18.06C474.166,273.122,470.376,263.028,463.881,257.425z M457.179,280.056
	c-0.314,2.606-1.629,4.416-4.139,5.696c-3.321,1.694-7.318,2.669-10.845,3.529c-6.08,1.483-12.973,3.162-14.804,9.876
	c-1.064,3.901-3.555,13.035,3.128,23.615c0.241,0.381,0.777,1.361,0.556,2.232c-0.294,1.157-1.865,2.628-4.203,3.937
	c-2.766,1.548-4.679,4.232-5.247,7.365c-0.584,3.213,0.297,6.494,2.417,9.002c1.167,1.381,1.524,2.342,1.581,2.673
	c-0.36,0.731-1.163,1.44-2.516,2.599c-3.386,2.901-8.505,7.285-9.164,17.422c-0.282,4.348,0.775,8.51,1.894,12.916
	c1.299,5.111,2.642,10.397,1.894,16.252c-1.158,9.07-11.369,22.284-29.539,21.862c-3.745-0.089-7.61-0.26-11.348-0.425
	c-20.8-0.925-40.448-1.797-52.144,9.899c-2.765,2.765-9.241,9.241-11.607,57.461c-0.168,3.432-1.925,6.468-4.822,8.327
	c-2.919,1.876-6.445,2.211-9.673,0.919l-167.002-66.801c-10.145-4.058-17.209-13.652-17.996-24.438
	c-4.077-55.942-16.108-90.036-25.484-108.785c-22.135-44.273-33.359-86.224-33.359-124.69c0-35.643,14.741-70.992,40.442-96.983
	c23.598-23.863,46.288-38.967,71.405-47.53c25.65-8.745,52.081-9.951,76.824-9.951c66.313,0,112.284,18.521,140.542,56.62
	c9.691,13.067,17.133,37.46,23.114,57.061c3.199,10.488,5.963,19.544,8.634,25.402c4.895,10.739,6.729,19.121,1.619,30.194
	c-7.57,16.401-4.527,24.624,1.383,36.219c4.657,9.135,26.401,40.891,34.688,48.038C455.603,271.46,457.668,276.008,457.179,280.056z
	"/>
<path d="M324.545,105.268c-20.081-19.839-46.303-32.591-73.836-35.907c-39.537-4.764-78.23,8.528-106.163,36.464
	c-27.932,27.935-41.219,66.631-36.452,106.166c3.319,27.531,16.074,53.751,35.914,73.829c19.817,20.057,45.877,33.154,73.379,36.878
	c5.886,0.797,11.751,1.193,17.575,1.193c21.942,0,43.264-5.619,62.609-16.582l37.968,11.266c6.165,1.829,12.817,0.141,17.363-4.405
	c4.546-4.546,6.234-11.199,4.406-17.363l-11.266-37.969c13.872-24.483,19.19-52.13,15.389-80.192
	C357.703,151.145,344.604,125.085,324.545,105.268z M330.502,253.652c-1.163,1.929-1.46,4.26-0.82,6.419l12.252,41.297
	c0.166,0.559,0.042,1.052-0.371,1.464c-0.414,0.412-0.906,0.534-1.464,0.372l-41.296-12.252c-2.16-0.643-4.491-0.344-6.419,0.82
	c-22.068,13.303-47.256,18.505-72.846,15.039c-24.01-3.252-46.784-14.708-64.125-32.259c-17.352-17.562-28.504-40.461-31.399-64.479
	c-4.173-34.615,7.443-68.479,31.872-92.91c21.163-21.166,49.402-32.715,79.081-32.715c4.579,0,9.197,0.276,13.825,0.833
	c24.019,2.894,46.921,14.043,64.485,31.395c17.552,17.341,29.01,40.114,32.264,64.124
	C349.007,206.388,343.807,231.58,330.502,253.652z"/>
<path d="M234.877,119.715c-4.428,0-8.017,3.59-8.017,8.017v102.62c0,4.428,3.59,8.017,8.017,8.017c4.428,0,8.017-3.59,8.017-8.017
	v-102.62C242.894,123.305,239.305,119.715,234.877,119.715z"/>
<circle cx="234.871" cy="264.555" r="8.017"/>
</svg>