<?xml version="1.0" encoding="iso-8859-1"?>
<!-- Uploaded to: SVG Repo, www.svgrepo.com, Generator: SVG Repo Mixer Tools -->
<svg height="800px" width="800px" version="1.1" id="Layer_1" xmlns="http://www.w3.org/2000/svg" xmlns:xlink="http://www.w3.org/1999/xlink" 
	 viewBox="0 0 392.533 392.533" xml:space="preserve">
<path style="fill:#FFFFFF;" d="M196.267,21.786c-96.194,0-174.481,78.287-174.481,174.481s78.287,174.481,174.481,174.481
	s174.481-78.287,174.481-174.481S292.461,21.786,196.267,21.786z"/>
<path style="fill:#FFC10D;" d="M196.267,348.962c-84.17,0-152.695-68.461-152.695-152.695c0-84.17,68.461-152.695,152.695-152.695
	c84.17,0,152.695,68.461,152.695,152.695C348.962,280.436,280.436,348.962,196.267,348.962z"/>
<g>
	<path style="fill:#56ACE0;" d="M161.099,141.382c0-7.434-6.012-13.382-13.446-13.382c-4.59,0-8.727,2.263-11.184,6.077
		c-4.331,6.594-13.899,6.594-18.23,0l0,0c-2.457-3.814-6.723-6.077-11.184-6.077c-7.434,0-13.382,6.012-13.382,13.382
		c0,9.244,17.842,29.608,33.681,44.024C144.679,169.438,161.099,149.721,161.099,141.382z"/>
	<path style="fill:#56ACE0;" d="M298.99,141.382c0-7.434-6.012-13.382-13.446-13.382c-4.59,0-8.727,2.263-11.184,6.077
		c-4.331,6.594-13.899,6.594-18.23,0l0,0c-2.457-3.814-6.723-6.077-11.184-6.077c-7.434,0-13.446,6.012-13.446,13.382
		c0,8.857,16.356,28.444,33.681,44.024C282.505,169.438,298.99,149.721,298.99,141.382z"/>
</g>
<g>
	<path style="fill:#194F82;" d="M147.653,106.149c-7.434,0-14.481,2.327-20.299,6.465c-5.883-4.202-12.929-6.465-20.299-6.465
		c-19.394,0-35.232,15.774-35.232,35.232c0,25.341,40.469,60.186,48.614,66.909l0,0c4.073,3.297,9.956,3.297,13.964-0.065l0,0
		c11.378-9.568,48.549-42.731,48.549-66.844C182.885,121.923,167.046,106.149,147.653,106.149z M93.543,141.382
		c0-7.434,6.012-13.382,13.382-13.382c4.59,0,8.727,2.263,11.184,6.077l0,0c4.331,6.594,13.899,6.594,18.23,0
		c2.457-3.814,6.723-6.077,11.184-6.077c7.434,0,13.446,6.012,13.446,13.382c0,8.339-16.356,28.057-33.745,44.024
		C111.451,170.925,93.543,150.691,93.543,141.382z"/>
	<path style="fill:#194F82;" d="M285.543,106.149c-7.434,0-14.481,2.327-20.299,6.465c-5.883-4.202-12.929-6.465-20.299-6.465
		c-19.394,0-35.232,15.774-35.232,35.232c0,25.341,40.469,60.186,48.614,66.909l0,0c4.073,3.297,9.956,3.297,13.964-0.065l0,0
		c11.378-9.568,48.549-42.731,48.549-66.844C320.776,121.923,305.002,106.149,285.543,106.149z M231.434,141.382
		c0-7.434,6.012-13.382,13.446-13.382c4.59,0,8.727,2.263,11.184,6.077l0,0c4.331,6.594,13.899,6.594,18.23,0
		c2.457-3.814,6.723-6.077,11.184-6.077c7.434,0,13.446,6.012,13.446,13.382c0,8.339-16.356,28.121-33.745,44.024
		C247.855,169.762,231.434,150.303,231.434,141.382z"/>
	<path style="fill:#194F82;" d="M196.267,0C87.984,0,0,87.984,0,196.267s87.984,196.267,196.267,196.267
		s196.267-87.984,196.267-196.267S304.549,0,196.267,0z M196.267,370.747c-96.194,0-174.481-78.287-174.481-174.481
		S100.073,21.786,196.267,21.786s174.481,78.287,174.481,174.481S292.461,370.747,196.267,370.747z"/>
	<path style="fill:#194F82;" d="M279.208,279.208c-45.77,45.64-120.113,45.64-165.754,0c-4.267-4.267-11.119-4.267-15.451,0
		c-4.267,4.267-4.267,11.119,0,15.451c50.747,53.463,143.127,54.174,196.59,0c4.267-4.267,4.267-11.119,0-15.451
		C290.327,274.941,283.41,274.941,279.208,279.208z"/>
</g>
</svg>