<?xml version="1.0" encoding="iso-8859-1"?>
<!-- Uploaded to: SVG Repo, www.svgrepo.com, Generator: SVG Repo Mixer Tools -->
<svg height="800px" width="800px" version="1.1" id="Layer_1" xmlns="http://www.w3.org/2000/svg" xmlns:xlink="http://www.w3.org/1999/xlink" 
	 viewBox="0 0 512 512" xml:space="preserve">
<g transform="translate(1 1)">
	<path style="fill:#FFE100;" d="M502.467,255c0,136.533-110.933,247.467-247.467,247.467S7.533,391.533,7.533,255
		S118.467,7.533,255,7.533S502.467,118.467,502.467,255"/>
	<path style="fill:#FFA800;" d="M255,7.533c-4.267,0-8.533,0-12.8,0C372.76,14.36,476.867,122.733,476.867,255
		S372.76,495.64,242.2,502.467c4.267,0,8.533,0,12.8,0c136.533,0,247.467-110.933,247.467-247.467S391.533,7.533,255,7.533"/>
	<path style="fill:#FFFFFF;" d="M255,7.533c4.267,0,8.533,0,12.8,0C137.24,14.36,33.133,122.733,33.133,255
		S137.24,495.64,267.8,502.467c-4.267,0-8.533,0-12.8,0C118.467,502.467,7.533,391.533,7.533,255S118.467,7.533,255,7.533"/>
	<g>
		<path style="fill:#63D3FD;" d="M101.4,272.067c0,14.507-11.093,25.6-25.6,25.6s-25.6-11.093-25.6-25.6s11.093-25.6,25.6-25.6
			S101.4,257.56,101.4,272.067"/>
		<path style="fill:#63D3FD;" d="M459.8,272.067c0,14.507-11.093,25.6-25.6,25.6c-14.507,0-25.6-11.093-25.6-25.6
			s11.093-25.6,25.6-25.6C448.707,246.467,459.8,257.56,459.8,272.067"/>
	</g>
	<path d="M75.8,306.2c-18.773,0-34.133-15.36-34.133-34.133s15.36-34.133,34.133-34.133s34.133,15.36,34.133,34.133
		S94.573,306.2,75.8,306.2z M75.8,255c-9.387,0-17.067,7.68-17.067,17.067s7.68,17.067,17.067,17.067s17.067-7.68,17.067-17.067
		S85.187,255,75.8,255z"/>
	<path d="M434.2,306.2c-18.773,0-34.133-15.36-34.133-34.133s15.36-34.133,34.133-34.133s34.133,15.36,34.133,34.133
		S452.973,306.2,434.2,306.2z M434.2,255c-9.387,0-17.067,7.68-17.067,17.067s7.68,17.067,17.067,17.067s17.067-7.68,17.067-17.067
		S443.587,255,434.2,255z"/>
	<path d="M255,511C114.2,511-1,395.8-1,255S114.2-1,255-1s256,115.2,256,256S395.8,511,255,511z M255,16.067
		C123.587,16.067,16.067,123.587,16.067,255S123.587,493.933,255,493.933S493.933,386.413,493.933,255S386.413,16.067,255,16.067z"
		/>
	<path d="M186.733,186.733c-5.12,0-8.533-3.413-8.533-8.533c0-14.507-11.093-25.6-25.6-25.6S127,163.693,127,178.2
		c0,5.12-3.413,8.533-8.533,8.533s-8.533-3.413-8.533-8.533c0-23.893,18.773-42.667,42.667-42.667s42.667,18.773,42.667,42.667
		C195.267,183.32,191.853,186.733,186.733,186.733z"/>
	<path d="M391.533,186.733c-5.12,0-8.533-3.413-8.533-8.533c0-14.507-11.093-25.6-25.6-25.6s-25.6,11.093-25.6,25.6
		c0,5.12-3.413,8.533-8.533,8.533s-8.533-3.413-8.533-8.533c0-23.893,18.773-42.667,42.667-42.667
		c23.893,0,42.667,18.773,42.667,42.667C400.067,183.32,396.653,186.733,391.533,186.733z"/>
	<path d="M246.467,391.533c-4.267,0-8.533-3.413-8.533-8.533s3.413-8.533,8.533-8.533h4.267c11.093-0.853,22.187-9.387,22.187-23.04
		c0-9.387-7.68-17.067-15.36-20.48c-3.413-1.707-5.12-4.267-5.12-7.68s1.707-5.973,5.12-7.68c7.68-3.413,15.36-11.093,15.36-20.48
		c0-13.653-11.093-21.333-22.187-23.04h-4.267c-5.12,0-8.533-4.267-8.533-8.533c0-5.12,4.267-8.533,8.533-8.533h4.267
		c22.187,1.707,38.4,18.773,38.4,40.107c0,11.093-5.973,21.333-13.653,28.16c7.68,6.827,13.653,17.067,13.653,28.16
		c0,20.48-16.213,37.547-37.547,40.107h-5.12V391.533z"/>
</g>
</svg>