<?xml version="1.0" encoding="iso-8859-1"?>
<!-- Uploaded to: SVG Repo, www.svgrepo.com, Generator: SVG Repo Mixer Tools -->
<svg height="800px" width="800px" version="1.1" id="Layer_1" xmlns="http://www.w3.org/2000/svg" xmlns:xlink="http://www.w3.org/1999/xlink" 
	 viewBox="0 0 512.003 512.003" xml:space="preserve">
<circle style="fill:#FDDF6D;" cx="256.001" cy="256.001" r="256.001"/>
<path style="fill:#FCC56B;" d="M310.859,474.208c-141.385,0-256-114.615-256-256c0-75.537,32.722-143.422,84.757-190.281
	C56.738,70.303,0,156.525,0,256c0,141.385,114.615,256,256,256c65.849,0,125.883-24.87,171.243-65.718
	C392.325,464.135,352.77,474.208,310.859,474.208z"/>
<g>
	<path style="fill:#F9A880;" d="M165.428,274.575c-19.011,0-34.425,15.412-34.425,34.425h68.848
		C199.851,289.987,184.439,274.575,165.428,274.575z"/>
	<path style="fill:#F9A880;" d="M446.251,274.575c-19.011,0-34.425,15.412-34.425,34.425h68.848
		C480.676,289.987,465.264,274.575,446.251,274.575z"/>
</g>
<path style="fill:#FFFFFF;" d="M373.642,414.38H259.185c-21.09,0-38.186-17.096-38.186-38.186l0,0
	c0-21.09,17.096-38.186,38.186-38.186h114.456c21.09,0,38.186,17.096,38.186,38.186l0,0
	C411.828,397.283,394.73,414.38,373.642,414.38z"/>
<path style="fill:#E6E6E6;" d="M220.998,376.193L220.998,376.193c0,3.612,0.512,7.103,1.45,10.414h187.93
	c0.937-3.312,1.45-6.803,1.45-10.414l0,0c0-3.612-0.512-7.103-1.45-10.414h-187.93C221.51,369.091,220.998,372.581,220.998,376.193z
	"/>
<g>
	<circle style="fill:#FFFFFF;" cx="211.386" cy="176.838" r="74.262"/>
	<circle style="fill:#FFFFFF;" cx="419.647" cy="176.838" r="74.262"/>
</g>
<g>
	<circle style="fill:#7F184C;" cx="223.883" cy="176.838" r="20.829"/>
	<circle style="fill:#7F184C;" cx="435.2" cy="176.838" r="20.829"/>
</g>
<ellipse transform="matrix(0.2723 -0.9622 0.9622 0.2723 143.7131 339.1271)" style="fill:#FCEB88;" cx="296.065" cy="74.55" rx="29.854" ry="53.46"/>
</svg>