<?xml version="1.0" encoding="iso-8859-1"?>
<!-- Uploaded to: SVG Repo, www.svgrepo.com, Generator: SVG Repo Mixer Tools -->
<svg height="800px" width="800px" version="1.1" id="Layer_1" xmlns="http://www.w3.org/2000/svg" xmlns:xlink="http://www.w3.org/1999/xlink" 
	 viewBox="0 0 512 512" xml:space="preserve">
<g>
	<path style="fill:#A67C52;" d="M255.898,76.552c53.487,0,96.848,59.74,96.848,133.433v2.458h0.251l36.336,43.368v-45.826
		C389.333,136.291,329.592,76.552,255.898,76.552z"/>
	<path style="fill:#A67C52;" d="M255.898,76.552L255.898,76.552c-73.693,0-133.433,59.74-133.433,133.433v45.826l36.336-43.368
		h0.251v-2.458C159.052,136.291,202.412,76.552,255.898,76.552z"/>
</g>
<path style="fill:#754C24;" d="M255.898,76.552L255.898,76.552c-53.488,0-96.848,59.74-96.848,133.433v2.458h26.372h140.95h26.372
	v-2.458C352.746,136.291,309.386,76.552,255.898,76.552z"/>
<path style="fill:#A67C52;" d="M276.746,372.897c-13.434-9.347-28.224-9.347-41.659,0c-14.266,9.926-34.472,17.575-54.974,17.575
	c-22.538,0-42.92-7.279-57.605-19.019c1.777,72.145,60.818,130.386,133.392,130.386l0,0c72.574,0,131.613-58.241,133.392-130.386
	c-14.685,11.74-35.068,19.019-57.606,19.019C311.182,390.472,291.012,382.823,276.746,372.897z"/>
<g>
	<path style="fill:#FFA858;" d="M122.508,371.453c14.685,11.74,35.068,19.019,57.605,19.019c20.502,0,40.709-7.649,54.974-17.575
		c13.434-9.347,28.224-9.347,41.659,0c14.266,9.926,34.436,17.575,54.938,17.575c22.538,0,42.92-7.279,57.606-19.019l0.043-115.404
		l-36.336-43.368H158.801l-36.336,43.368L122.508,371.453z"/>
	<path style="fill:#FFA858;" d="M239.14,347.379v12.945c0,9.255,7.503,16.758,16.758,16.758l0,0c9.255,0,16.758-7.503,16.758-16.758
		v-12.945"/>
</g>
<path style="fill:#754C24;" d="M206.48,10.161v16.972c0,27.293,22.125,49.419,49.419,49.419l0,0
	c27.293,0,49.419-22.125,49.419-49.419V10.161H206.48z"/>
<g>
	<path style="fill:#FFA858;" d="M122.304,326.075h-5.392c-14.418,0-26.106-11.688-26.106-26.106v-12.394
		c0-17.681,13.818-32.013,31.498-32.013V326.075z"/>
	<path style="fill:#FFA858;" d="M389.53,326.075h5.554c14.418,0,26.106-11.688,26.106-26.106v-12.394
		c0-17.681-13.98-32.013-31.66-32.013V326.075z"/>
</g>
<g>
	<path style="fill:#00537B;" d="M399.493,246.62v-36.636c0-65.558-44.16-120.994-104.295-138.127
		c12.42-10.927,20.28-26.921,20.28-44.724V10.161c0-5.612-4.55-10.161-10.161-10.161h-98.836c-5.611,0-10.161,4.549-10.161,10.161
		v16.972c0,17.804,7.86,33.797,20.281,44.724c-60.135,17.133-104.295,72.57-104.295,138.127v36.654
		c-18.156,4.547-31.66,21.172-31.66,40.937v12.394c0,18.446,13.846,33.708,31.689,35.967l0.013,35.52c0,0.051,0.007,0.1,0.008,0.149
		c0,0.033-0.005,0.065-0.005,0.098c0.927,37.611,16.266,72.859,43.193,99.254C182.545,497.424,218.186,512,255.901,512
		s73.355-14.577,100.357-41.043c26.926-26.394,42.265-61.643,43.192-99.254c0.001-0.033-0.005-0.064-0.004-0.097
		c0-0.05,0.007-0.099,0.007-0.149l0.013-35.495c17.939-2.17,31.887-17.478,31.887-35.992v-12.394
		C431.35,267.783,417.757,251.141,399.493,246.62z M272.657,337.218c-5.611,0-10.161,4.549-10.161,10.161v12.945
		c0,3.638-2.96,6.597-6.597,6.597c-3.638,0-6.597-2.96-6.597-6.597v-12.945c0-5.612-4.55-10.161-10.161-10.161
		s-10.161,4.549-10.161,10.161v12.945c0,1.435,0.116,2.842,0.332,4.216c-0.009,0.006-0.019,0.011-0.029,0.018
		c-14.178,9.865-32.56,15.755-49.171,15.755c-17.738,0-34.385-4.945-47.447-13.981l-0.039-106.589l30.917-36.9h184.71l30.917,36.9
		l-0.04,106.589c-13.062,9.036-29.71,13.981-47.446,13.981c-16.588,0-34.956-5.889-49.134-15.755
		c-0.02-0.014-0.042-0.024-0.061-0.038c0.214-1.368,0.329-2.769,0.329-4.196v-12.945
		C282.818,341.767,278.268,337.218,272.657,337.218z M255.898,86.712c45.981,0,83.716,51.168,86.518,115.57H169.38
		C172.184,137.881,209.918,86.712,255.898,86.712z M379.172,209.985v17.878l-16.278-19.429
		c-0.259-33.142-8.809-64.558-24.308-89.798C363.498,141.206,379.172,173.799,379.172,209.985z M216.642,27.133v-6.812h78.515v6.812
		c0,21.647-17.611,39.258-39.258,39.258S216.642,48.779,216.642,27.133z M132.626,209.985c0-36.185,15.674-68.778,40.587-91.35
		c-15.498,25.24-24.049,56.655-24.308,89.798l-16.278,19.429L132.626,209.985L132.626,209.985z M112.143,315.186
		c-6.47-2.032-11.177-8.085-11.177-15.217v-12.394c0-8.463,4.47-15.659,11.177-19.301V315.186z M255.898,491.679
		c-59.631,0-110.343-43.699-121.148-100.81c13.654,6.37,29.196,9.764,45.363,9.764c20.509,0,42.203-6.815,59.745-18.707
		c4.483,3.337,10.035,5.315,16.04,5.315c6.013,0,11.571-1.982,16.057-5.327c17.544,11.9,39.233,18.719,59.728,18.719
		c16.167,0,31.709-3.395,45.362-9.764C366.241,447.981,315.531,491.679,255.898,491.679z M411.029,299.97
		c0,7.192-4.785,13.286-11.338,15.266v-47.003c6.801,3.629,11.338,10.848,11.338,19.343V299.97z"/>
	<path style="fill:#00537B;" d="M230.948,262.424l-50.959-4.306c-5.576-0.472-10.507,3.677-10.981,9.269
		c-0.472,5.591,3.677,10.508,9.27,10.981l23.034,1.947v10.282c0,5.612,4.55,10.161,10.161,10.161
		c5.611,0,10.161-4.549,10.161-10.161v-8.565l7.603,0.642c0.291,0.024,0.579,0.037,0.868,0.037c5.224,0,9.665-4.005,10.113-9.305
		C240.69,267.812,236.54,262.897,230.948,262.424z"/>
	<path style="fill:#00537B;" d="M290.164,290.596c0,5.612,4.55,10.161,10.161,10.161c5.611,0,10.161-4.549,10.161-10.161v-10.283
		l23.034-1.947c5.592-0.472,9.742-5.388,9.27-10.981c-0.474-5.591-5.399-9.749-10.981-9.269l-50.959,4.306
		c-5.592,0.472-9.742,5.388-9.27,10.981c0.448,5.301,4.889,9.305,10.113,9.305c0.287,0,0.576-0.012,0.868-0.037l7.603-0.642
		L290.164,290.596L290.164,290.596z"/>
	<path style="fill:#00537B;" d="M261.942,452.151h-13.066c-5.611,0-10.161,4.549-10.161,10.161c0,5.612,4.55,10.161,10.161,10.161
		h13.066c5.611,0,10.161-4.549,10.161-10.161C272.103,456.699,267.553,452.151,261.942,452.151z"/>
	<path style="fill:#00537B;" d="M290.868,409.565c-22.203,11.301-48.717,11.301-70.921,0c-5-2.545-11.119-0.555-13.664,4.446
		c-2.545,5.001-0.555,11.119,4.446,13.664c13.988,7.119,29.333,10.679,44.679,10.679s30.69-3.559,44.679-10.679
		c5.001-2.545,6.992-8.663,4.446-13.664C301.988,409.01,295.871,407.02,290.868,409.565z"/>
</g>
</svg>