<?xml version="1.0" encoding="iso-8859-1"?>
<!-- Uploaded to: SVG Repo, www.svgrepo.com, Generator: SVG Repo Mixer Tools -->
<svg height="800px" width="800px" version="1.1" id="Layer_1" xmlns="http://www.w3.org/2000/svg" xmlns:xlink="http://www.w3.org/1999/xlink" 
	 viewBox="0 0 512 512" xml:space="preserve">
<g transform="translate(1 1)">
	<path style="fill:#FFE100;" d="M502.467,255c0,136.533-110.933,247.467-247.467,247.467S7.533,391.533,7.533,255
		S118.467,7.533,255,7.533S502.467,118.467,502.467,255"/>
	<path style="fill:#FFA800;" d="M255,7.533c-4.267,0-8.533,0-12.8,0C372.76,14.36,476.867,122.733,476.867,255
		S372.76,495.64,242.2,502.467c4.267,0,8.533,0,12.8,0c136.533,0,247.467-110.933,247.467-247.467S391.533,7.533,255,7.533"/>
	<path style="fill:#FFFFFF;" d="M255,7.533c4.267,0,8.533,0,12.8,0C137.24,14.36,33.133,122.733,33.133,255
		S137.24,495.64,267.8,502.467c-4.267,0-8.533,0-12.8,0C118.467,502.467,7.533,391.533,7.533,255S118.467,7.533,255,7.533"/>
	<path style="fill:#63D3FD;" d="M203.8,169.667c0,18.773-15.36,34.133-34.133,34.133s-34.133-15.36-34.133-34.133
		s15.36-34.133,34.133-34.133S203.8,150.893,203.8,169.667"/>
	<path style="fill:#3DB9F9;" d="M169.667,135.533c-4.267,0-8.533,0.853-12.8,2.56c12.8,5.12,21.333,17.067,21.333,31.573
		c0,14.507-8.533,26.453-21.333,31.573c4.267,1.707,8.533,2.56,12.8,2.56c18.773,0,34.133-15.36,34.133-34.133
		S188.44,135.533,169.667,135.533"/>
	<path d="M374.467,203.8c-0.853,0-2.56,0-3.413-0.853l-59.733-25.6c-3.413-0.853-5.12-4.267-5.12-7.68s1.707-6.827,5.12-7.68
		l59.733-25.6c4.267-1.707,9.387,0,11.093,4.267c1.707,4.267,0,9.387-4.267,11.093l-41.813,17.92l41.813,17.92
		c4.267,1.707,5.973,6.827,4.267,11.093C380.44,202.093,377.88,203.8,374.467,203.8z"/>
	<path d="M255,408.6c-4.267,0-8.533-3.413-8.533-8.533s3.413-8.533,8.533-8.533h4.267c11.093-0.853,22.187-9.387,22.187-23.04
		c0-9.387-7.68-17.067-15.36-20.48c-3.413-1.707-5.12-4.267-5.12-7.68s1.707-5.973,5.12-7.68c7.68-3.413,15.36-11.093,15.36-20.48
		c0-13.653-11.093-21.333-22.187-23.04H255c-5.12,0-8.533-4.267-8.533-8.533s4.267-8.533,8.533-8.533h4.267
		c22.187,1.707,38.4,18.773,38.4,40.107c0,11.093-5.973,21.333-13.653,28.16c7.68,6.827,13.653,17.067,13.653,28.16
		c0,20.48-16.213,37.547-37.547,40.107H255V408.6z"/>
	<path d="M255,511C114.2,511-1,395.8-1,255S114.2-1,255-1s256,115.2,256,256S395.8,511,255,511z M255,16.067
		C123.587,16.067,16.067,123.587,16.067,255S123.587,493.933,255,493.933S493.933,386.413,493.933,255S386.413,16.067,255,16.067z"
		/>
	<path d="M169.667,212.333c-23.893,0-42.667-18.773-42.667-42.667S145.773,127,169.667,127s42.667,18.773,42.667,42.667
		S192.707,212.333,169.667,212.333z M169.667,144.067c-14.507,0-25.6,11.093-25.6,25.6s11.093,25.6,25.6,25.6s25.6-11.093,25.6-25.6
		C195.267,155.16,183.32,144.067,169.667,144.067z"/>
</g>
</svg>