<?xml version="1.0" encoding="iso-8859-1"?>
<!-- Uploaded to: SVG Repo, www.svgrepo.com, Generator: SVG Repo Mixer Tools -->
<svg height="800px" width="800px" version="1.1" id="Layer_1" xmlns="http://www.w3.org/2000/svg" xmlns:xlink="http://www.w3.org/1999/xlink" 
	 viewBox="0 0 511.998 511.998" xml:space="preserve">
<path style="fill:#DAE2F2;" d="M391.636,373.328c-6.989,0-13.511-4.424-15.837-11.424c-2.913-8.744,1.815-18.201,10.554-21.114
	c34.141-11.381,57.074-43.211,57.074-79.221c0-46.031-37.445-83.476-83.476-83.476c-9.054,0-17.934,1.435-26.402,4.255
	c-8.717,2.929-18.196-1.804-21.12-10.554c-2.913-8.749,1.804-18.201,10.554-21.12c11.88-3.962,24.315-5.972,36.967-5.972
	c64.444,0,116.867,52.428,116.867,116.867c0,50.406-32.108,94.97-79.9,110.894C395.158,373.051,393.386,373.328,391.636,373.328z"/>
<path style="fill:#FFDE33;" d="M376.647,466.587v12.021c0,18.365-15.026,33.391-33.391,33.391H109.523
	c-18.365,0-33.391-15.026-33.391-33.391v-12.021c-33.613-19.812-49.194-59.992-36.618-97.834l64.444-224.05h244.864l64.444,224.05
	C425.841,406.595,410.26,446.776,376.647,466.587z"/>
<path style="fill:#FFBC33;" d="M376.647,466.587v12.021c0,18.365-15.026,33.391-33.391,33.391H226.39V144.703h122.432l64.444,224.05
	C425.841,406.595,410.26,446.776,376.647,466.587z"/>
<path style="fill:#7BCC29;" d="M308.975,245.764c-6.453-6.567-17.028-6.567-23.595,0l-58.99,58.99l-82.585,82.586
	c-6.568,6.567-6.568,17.14,0,23.596c22.704,22.817,52.646,34.281,82.585,34.281s59.88-11.464,82.585-34.281
	C354.609,365.414,354.609,291.287,308.975,245.764z"/>
<path style="fill:#6EB825;" d="M308.975,410.936c-22.704,22.817-52.646,34.281-82.585,34.281V304.754l58.99-58.99
	c6.567-6.567,17.14-6.567,23.595,0C354.609,291.287,354.609,365.414,308.975,410.936z"/>
<path style="fill:#CBE5CA;" d="M296.065,282.271L180.311,398.025c13.913,9.126,30.053,13.801,46.079,13.69
	c21.369,0,42.741-8.125,58.99-24.375C313.873,358.847,317.434,314.66,296.065,282.271z"/>
<path style="fill:#BFD8BF;" d="M285.38,387.34c-16.25,16.25-37.621,24.375-58.99,24.375v-59.769l69.675-69.675
	C317.434,314.66,313.873,358.847,285.38,387.34z"/>
<path style="fill:#7BCC29;" d="M343.257,328.351c0,9.238-7.456,16.695-16.695,16.695h-59.88l42.294,42.295
	c6.568,6.567,6.568,17.14,0,23.596c-6.453,6.567-17.028,6.567-23.595,0l-42.295-42.295v59.88c0,9.238-7.456,16.695-16.695,16.695
	c-9.239,0-16.695-7.457-16.695-16.695V328.351c0-9.015,7.456-16.695,16.695-16.695h100.172
	C335.801,311.656,343.257,319.112,343.257,328.351z"/>
<g>
	<circle style="fill:#FFC033;" cx="192.997" cy="228.179" r="16.695"/>
	<circle style="fill:#FFC033;" cx="159.607" cy="294.96" r="16.695"/>
</g>
<path style="fill:#6EB825;" d="M343.257,328.351c0,9.238-7.456,16.695-16.695,16.695h-59.88l42.294,42.295
	c6.568,6.567,6.568,17.14,0,23.596c-6.453,6.567-17.028,6.567-23.595,0l-42.295-42.295v59.88c0,9.238-7.456,16.695-16.695,16.695
	V311.656h100.172C335.801,311.656,343.257,319.112,343.257,328.351z"/>
<path style="fill:#E6EEFF;" d="M103.958,144.704h244.864l26.478-54.639c4.04-9.439-1.331-20.281-11.293-22.771L96.883,0.512
	C84.707-2.52,73.776,8.389,76.557,20.463L103.958,144.704z"/>
<path style="fill:#DAE2F2;" d="M364.006,67.292L226.39,32.889v111.815h122.432l26.478-54.639
	C379.34,80.625,373.968,69.782,364.006,67.292z"/>
</svg>