<?xml version="1.0" encoding="iso-8859-1"?>
<!-- Uploaded to: SVG Repo, www.svgrepo.com, Generator: SVG Repo Mixer Tools -->
<svg version="1.1" id="Layer_1" xmlns="http://www.w3.org/2000/svg" xmlns:xlink="http://www.w3.org/1999/xlink" 
	 viewBox="0 0 512 512" xml:space="preserve">
<polyline style="fill:#C69C6D;" points="215.746,64.932 215.746,8.378 295.341,8.378 295.341,64.932 "/>
<polyline style="fill:#A67C52;" points="215.746,64.932 215.746,8.378 239.834,8.378 239.834,64.932 "/>
<rect x="223.918" y="64.115" style="fill:#FFFFFF;" width="64" height="104.007"/>
<rect x="255.924" y="64.115" style="fill:#F2F2F2;" width="32.002" height="104.007"/>
<rect x="183.922" y="168.122" style="fill:#FFFFFF;" width="144.013" height="336.024"/>
<rect x="295.93" y="168.122" style="fill:#F2F2F2;" width="40.007" height="48.004"/>
<rect x="183.922" y="216.13" style="fill:#A3D165;" width="144.013" height="288.016"/>
<rect x="183.922" y="216.13" style="fill:#8CC63F;" width="112.008" height="288.016"/>
<rect x="183.922" y="216.13" style="fill:#51791B;" width="24.002" height="288.016"/>
<g>
	<polyline style="fill:#FFFFFF;" points="184.327,431.485 215.746,431.485 215.746,367.6 184.327,367.6 	"/>
	<polyline style="fill:#FFFFFF;" points="328.854,288.006 239.834,288.006 239.834,431.485 328.854,431.485 	"/>
</g>
<g>
	<rect x="279.634" y="400.066" style="fill:#BD1515;" width="15.709" height="15.709"/>
	<rect x="288.013" y="344.56" style="fill:#BD1515;" width="40.844" height="15.709"/>
</g>
<rect x="263.925" y="24.088" width="15.709" height="15.709"/>
<rect x="256.594" y="400.066" width="14.662" height="15.709"/>
<rect x="208.418" y="463.951" width="96.351" height="15.709"/>
<polygon points="224.125,39.797 232.503,39.797 232.503,24.088 224.125,24.088 224.125,15.709 288.009,15.709 288.009,48.176 
	303.719,48.176 303.719,0 208.415,0 208.415,48.176 224.125,48.176 "/>
<path d="M176.063,160.266V512h159.72V160.266L176.063,160.266L176.063,160.266z M191.773,375.979h16.643v47.128h-16.643V375.979z
	 M320.073,320.472h-48.821v15.709h48.821v63.885h-15.307v15.709h15.307v7.331h-71.861V296.384h71.861V320.472z M320.073,280.675
	h-87.571v158.141h87.571v57.474H191.773v-57.474h32.352v-78.547h-32.352V224.121h128.301V280.675z M320.073,208.411H191.773v-32.436
	h128.301V208.411z"/>
<polygon points="215.746,151.858 231.456,151.858 231.456,72.263 279.631,72.263 279.631,151.858 295.341,151.858 295.341,72.263 
	312.097,72.263 312.097,56.554 248.212,56.554 248.212,48.176 232.503,48.176 232.503,56.554 198.99,56.554 198.99,72.263 
	215.746,72.263 "/>
</svg>