<?xml version="1.0" encoding="utf-8"?>
<!-- Uploaded to: SVG Repo, www.svgrepo.com, Generator: SVG Repo Mixer Tools -->
<svg xmlns="http://www.w3.org/2000/svg" xmlns:xlink="http://www.w3.org/1999/xlink" version="1.1" id="fullbattery"  viewBox="0 0 206.6279 216.1777" enable-background="new 0 0 206.6279 216.1777" xml:space="preserve" width="512" height="512">
<g>
	<rect x="99.748" y="16.1426" fill="#D0E8FF" width="20" height="12"/>
	<path fill="#5CB0FF" d="M75.748,204.1895V60.166c0-6.6094,5.3672-11.9883,11.9648-11.9883h64.0703   c1.3967,0,2.7178,0.2866,3.9648,0.7292v-8.7957c0-2.1875-1.8008-3.9688-4.0156-3.9688H123.748h-28H67.7637   c-2.25,0-4.0156,1.7422-4.0156,3.9688v164.0664c0,2.1875,1.8008,3.9648,4.0156,3.9648h8.7061   C76.0322,206.8984,75.748,205.5815,75.748,204.1895z"/>
	<path fill="#D0E8FF" d="M151.7832,56.1777H87.7129c-2.1875,0-3.9648,1.7891-3.9648,3.9883v144.0234   c0,2.1377,1.6895,3.8569,3.7922,3.9531h64.1921c2.2148,0,4.0156-1.7773,4.0156-3.9648V60.166   C155.748,57.9668,153.9707,56.1777,151.7832,56.1777z"/>
	<path fill="#1C71DA" d="M151.7324,28.1426H127.748v-16c0-2.2109-1.7891-4-4-4h-28c-2.2109,0-4,1.7891-4,4v16H67.7637   c-6.625,0-12.0156,5.3711-12.0156,11.9688v164.0664c0,6.5977,5.3906,11.9648,12.0156,11.9648H87.366   c0.1179,0.0034,0.2283,0.0352,0.3469,0.0352h64.0703c6.5977,0,11.9648-5.3789,11.9648-11.9883v-0.0117V60.166V40.1113   C163.748,33.5137,158.3574,28.1426,151.7324,28.1426z M99.748,16.1426h20v12h-20V16.1426z M63.748,204.1777V40.1113   c0-2.2266,1.7656-3.9688,4.0156-3.9688H95.748h28h27.9844c2.2148,0,4.0156,1.7812,4.0156,3.9688v8.7957   c-1.2471-0.4426-2.5681-0.7292-3.9648-0.7292H87.7129c-6.5977,0-11.9648,5.3789-11.9648,11.9883v144.0234   c0,1.3921,0.2842,2.709,0.7217,3.9531h-8.7061C65.5488,208.1426,63.748,206.3652,63.748,204.1777z M155.748,204.1777   c0,2.1875-1.8008,3.9648-4.0156,3.9648H87.5403c-2.1028-0.0962-3.7922-1.8154-3.7922-3.9531V60.166   c0-2.1992,1.7773-3.9883,3.9648-3.9883h64.0703c2.1875,0,3.9648,1.7891,3.9648,3.9883V204.1777z"/>
</g>
<path fill="#FF5D5D" d="M4,48c-1.0234,0-2.0479-0.3906-2.8281-1.1719c-1.5625-1.5615-1.5625-4.0947,0-5.6562l14.1426-14.1416  c1.5625-1.5625,4.0957-1.5625,5.6562,0c1.5625,1.5615,1.5625,4.0947,0,5.6562L6.8281,46.8281C6.0469,47.6094,5.0234,48,4,48z"/>
<path fill="#FF5D5D" d="M18.1426,48c-1.0234,0-2.0469-0.3906-2.8281-1.1719L1.1719,32.6865c-1.5625-1.5615-1.5625-4.0947,0-5.6562  c1.5605-1.5625,4.0938-1.5625,5.6562,0l14.1426,14.1416c1.5625,1.5615,1.5625,4.0947,0,5.6562C20.1904,47.6094,19.166,48,18.1426,48  z"/>
<path fill="#00D40B" d="M114,176c-7.7197,0-14-6.2803-14-14s6.2803-14,14-14s14,6.2803,14,14S121.7197,176,114,176z M114,156  c-3.3086,0-6,2.6914-6,6s2.6914,6,6,6s6-2.6914,6-6S117.3086,156,114,156z"/>
<path fill="#FFC504" d="M191.3145,30.627c-1.0234,0-2.0469-0.3906-2.8281-1.1719l-11.3145-11.3135  c-0.75-0.75-1.1719-1.7676-1.1719-2.8281s0.4219-2.0781,1.1719-2.8281l11.3145-11.3135c1.5625-1.5625,4.0938-1.5625,5.6562,0  l11.3135,11.3135c1.5625,1.5615,1.5625,4.0947,0,5.6562l-11.3135,11.3135C193.3623,30.2363,192.3379,30.627,191.3145,30.627z   M185.6572,15.3135l5.6572,5.6572l5.6562-5.6572l-5.6562-5.6572L185.6572,15.3135z"/>
</svg>