<?xml version="1.0" encoding="iso-8859-1"?>
<!-- Uploaded to: SVG Repo, www.svgrepo.com, Generator: SVG Repo Mixer Tools -->
<svg height="800px" width="800px" version="1.1" id="Layer_1" xmlns="http://www.w3.org/2000/svg" xmlns:xlink="http://www.w3.org/1999/xlink" 
	 viewBox="0 0 502.137 502.137" xml:space="preserve">
<path style="fill:#FFD0A1;" d="M224.998,45.604c-5.12-21.333-1.707-34.987,16.213-40.96c19.627-6.827,32.427,5.12,39.253,23.893
	l46.933,196.267L387.984,67.79c4.267-16.213,14.507-30.72,29.013-30.72s24.747,12.8,21.333,34.133l-7.68,25.6l0,0
	c8.533-17.067,23.04-28.16,38.4-20.48c15.36,7.68,13.653,25.6,11.093,37.547c0,0-23.893,110.933-32.427,162.133
	c-8.533,51.2-8.533,145.067-34.133,221.867h-204.8c-17.067-85.333-51.2-119.467-85.333-162.133
	c-20.48-25.6-59.733-53.76-68.267-56.32c-8.533-3.413-25.6-3.413-25.6-3.413c-5.973,0-11.947-11.947-5.973-21.333
	c15.36-27.307,48.64-29.867,74.24-21.333c25.6,8.533,59.733,34.133,59.733,34.133s36.693,29.013,34.133,8.533l-25.6-230.4
	c0-18.773,11.947-34.133,30.72-34.133C214.758,11.47,220.731,26.83,224.998,45.604"/>
<path style="fill:#51565F;" d="M412.731,502.137h-204.8c-1.707,0-3.413-1.707-4.267-3.413
	c-15.36-75.093-43.52-110.08-73.387-146.773c-3.413-4.267-6.827-8.533-11.093-13.653c-20.48-25.6-58.88-52.907-66.56-55.467
	c-6.827-2.56-19.627-2.56-23.893-2.56c-3.413,0-7.68-2.56-10.24-6.827c-2.56-5.12-4.267-13.653,0-21.333
	c16.213-29.013,52.053-32.427,79.36-23.04c25.6,8.533,59.733,33.28,60.587,34.987c1.707,1.707,2.56,4.267,0.853,5.973
	c-1.707,1.707-4.267,2.56-5.973,0.853c0,0-34.133-25.6-58.88-33.28c-24.747-8.533-55.467-5.12-69.973,19.627
	c-2.56,4.267-1.707,9.387,0,11.947c0.853,2.56,2.56,2.56,2.56,2.56c0.853,0,17.92,0,27.307,3.413
	c9.387,3.413,49.493,32.427,69.973,58.027c3.413,4.267,6.827,8.533,11.093,13.653c30.72,37.547,58.88,72.533,75.093,147.627h197.973
	c17.067-52.053,22.187-111.787,26.453-160.427c1.707-22.187,4.267-41.813,6.827-58.027c8.533-50.347,32.427-161.28,32.427-162.133
	c3.413-17.92,0.853-28.16-8.533-32.427c-17.067-7.68-28.16,10.24-32.427,18.773l0,0l-41.813,135.68
	c-0.853,2.56-3.413,3.413-5.12,2.56c-2.56-0.853-3.413-3.413-2.56-5.12l50.347-162.133c1.707-9.387,0-17.92-4.267-23.04
	c-3.413-3.413-7.68-5.973-11.947-5.973c-12.8,0-21.333,14.507-24.747,27.307l-60.587,157.867c-0.853,1.707-2.56,2.56-4.267,2.56
	s-3.413-1.707-4.267-3.413L277.051,30.243c-5.12-12.8-14.507-27.307-34.133-20.48c-13.653,4.267-17.92,14.507-13.653,33.28
	c0,0.853,0,1.707,0.853,2.56l0,0l34.133,187.733c0,2.56-0.853,4.267-3.413,5.12c-2.56,0-4.267-0.853-5.12-3.413L221.584,47.31
	c0-0.853,0-1.707-0.853-2.56c-4.267-20.48-11.947-28.16-24.747-28.16c-15.36,0-26.453,11.947-26.453,29.867l25.6,229.547
	c0,2.56-1.707,4.267-3.413,5.12c-2.56,0-4.267-1.707-5.12-3.413l-25.6-230.4c0-23.04,14.507-39.253,34.987-39.253
	c11.947,0,19.627,5.12,24.747,12.8c2.56-8.533,7.68-15.36,19.627-18.773c19.627-6.827,35.84,3.413,45.227,26.453l43.52,183.467
	L384.571,67.79c5.12-20.48,17.92-33.28,32.427-33.28c7.68,0,14.507,3.413,18.773,8.533c5.973,7.68,8.533,17.92,6.827,30.72
	l-1.707,4.267c9.387-6.827,19.627-8.533,29.867-4.267c20.48,9.387,15.36,34.133,13.653,42.667
	c0,0.853-23.893,111.787-32.427,162.133c-2.56,15.36-4.267,34.987-5.973,57.173c-4.267,49.493-10.24,111.787-28.16,165.547
	C416.144,501.283,414.438,502.137,412.731,502.137z"/>
</svg>