<?xml version="1.0" encoding="iso-8859-1"?>
<!-- Uploaded to: SVG Repo, www.svgrepo.com, Generator: SVG Repo Mixer Tools -->
<svg height="800px" width="800px" version="1.1" id="Layer_1" xmlns="http://www.w3.org/2000/svg" xmlns:xlink="http://www.w3.org/1999/xlink" 
	 viewBox="0 0 512 512" xml:space="preserve">
<g transform="translate(1 1)">
	<g>
		<path style="fill:#FFDD09;" d="M280.6,472.173c0,0,144.213-139.093,174.08-167.253c57.173-55.467,43.52-130.56,12.8-164.693
			c-22.187-24.747-51.2-42.667-85.333-42.667c-3.413,0-6.827,0-10.24,0.853c29.013,3.413,53.76,19.627,74.24,41.813
			c30.72,34.133,44.373,109.227-12.8,164.693C402.627,333.08,280.6,473.027,280.6,473.027V472.173L280.6,472.173z"/>
		<path style="fill:#FFDD09;" d="M280.6,165.827c15.36-39.253,25.6-69.12,66.56-69.12c34.133,0,63.147,17.92,85.333,42.667
			c30.72,34.133,44.373,109.227-12.8,164.693c-28.16,29.013-147.627,168.96-147.627,168.96s-127.147-140.8-156.16-168.96
			c-58.027-53.76-45.227-129.707-12.8-164.693c23.04-24.747,51.2-42.667,85.333-42.667C229.4,96.707,265.24,126.573,280.6,165.827"
			/>
	</g>
	<path style="fill:#FD9808;" d="M272.067,472.173c0,0,133.12-139.093,162.133-167.253c57.173-55.467,43.52-130.56,12.8-164.693
		c-22.187-24.747-51.2-42.667-85.333-42.667c-3.413,0-6.827,0-10.24,0.853c29.013,3.413,53.76,19.627,74.24,41.813
		c30.72,34.133,44.373,109.227-12.8,164.693c-29.867,28.16-140.8,168.107-140.8,168.107"/>
	<path style="fill:#FFFFFF;" d="M272.067,472.173c0,0-133.12-139.093-162.133-167.253c-57.173-55.467-43.52-130.56-12.8-164.693
		c22.187-24.747,51.2-42.667,85.333-42.667c3.413,0,6.827,0,10.24,0.853c-29.013,3.413-53.76,19.627-74.24,41.813
		c-30.72,34.133-44.373,109.227,12.8,164.693c29.867,28.16,140.8,168.107,140.8,168.107"/>
	<g>
		<path style="fill:#FFDD09;" d="M7.533,140.227c-5.12,0-8.533-3.413-8.533-8.533c0-55.467,46.933-102.4,102.4-102.4
			c5.12,0,8.533,3.413,8.533,8.533s-3.413,8.533-8.533,8.533c-45.227,0-85.333,40.107-85.333,85.333
			C16.067,136.813,12.653,140.227,7.533,140.227z"/>
		<path style="fill:#FFDD09;" d="M44.227,140.227c-5.12,0-8.533-3.413-8.533-8.533c0-35.84,31.573-68.267,65.707-68.267
			c5.12,0,8.533,3.413,8.533,8.533c0,5.12-3.413,8.533-8.533,8.533c-24.747,0-48.64,24.747-48.64,51.2
			C52.76,136.813,48.493,140.227,44.227,140.227z"/>
		<path style="fill:#FFDD09;" d="M408.6,473.027c-5.12,0-8.533-3.413-8.533-8.533s3.413-8.533,8.533-8.533
			c45.227,0,85.333-40.107,85.333-85.333c0-5.12,3.413-8.533,8.533-8.533c5.12,0,8.533,3.413,8.533,8.533
			C511,426.093,464.067,473.027,408.6,473.027z"/>
		<path style="fill:#FFDD09;" d="M408.6,438.893c-5.12,0-8.533-3.413-8.533-8.533s3.413-8.533,8.533-8.533
			c25.6,0,51.2-25.6,51.2-51.2c0-5.12,3.413-8.533,8.533-8.533c5.12,0,8.533,3.413,8.533,8.533
			C476.867,405.613,443.587,438.893,408.6,438.893z"/>
	</g>
	<path d="M272.067,480.707L272.067,480.707c-2.56,0-4.267-0.853-5.973-2.56c-1.707-1.707-133.12-139.947-162.133-167.253
		C40.813,250.307,58.733,169.24,91.16,133.4c27.307-29.867,58.88-45.227,92.16-45.227c35.84,0,69.12,21.333,88.747,57.173
		c19.627-35.84,52.907-57.173,89.6-57.173c23.893,0,46.08,7.68,67.413,23.04c3.413,2.56,4.267,8.533,1.707,11.947
		s-8.533,4.267-11.947,1.707c-17.92-12.8-37.547-19.627-57.173-19.627c-34.987,0-65.707,24.747-81.067,64
		c-1.707,2.56-5.12,5.12-8.533,5.12s-6.827-2.56-7.68-5.12c-15.36-39.253-46.08-64-80.213-64c-28.16,0-55.467,13.653-79.36,40.107
		C75.8,176.067,60.44,246.04,115.907,298.093c26.453,24.747,129.707,133.12,156.16,161.28
		c26.453-28.16,130.56-136.533,156.16-161.28c50.347-48.64,35.84-105.813,29.867-122.027c-1.707-4.267,0.853-9.387,5.12-11.093
		s9.387,0.853,11.093,5.12c13.653,38.4,11.947,95.573-34.133,139.947C411.16,338.2,279.747,475.587,278.04,477.293
		C277.187,479,274.627,480.707,272.067,480.707z"/>
	<path d="M421.4,170.947c-2.56,0-4.267-0.853-5.973-2.56c-17.067-18.773-34.987-29.013-53.76-29.013
		c-5.12,0-8.533-3.413-8.533-8.533c0-5.12,3.413-8.533,8.533-8.533c23.893,0,46.08,11.947,66.56,34.133
		c3.413,3.413,2.56,8.533-0.853,11.947C425.667,170.093,423.96,170.947,421.4,170.947z"/>
	<path d="M7.533,148.76c-5.12,0-8.533-3.413-8.533-8.533c0-55.467,46.933-102.4,102.4-102.4c5.12,0,8.533,3.413,8.533,8.533
		s-3.413,8.533-8.533,8.533c-45.227,0-85.333,40.107-85.333,85.333C16.067,145.347,12.653,148.76,7.533,148.76z"/>
	<path d="M44.227,148.76c-5.12,0-8.533-3.413-8.533-8.533c0-35.84,31.573-68.267,65.707-68.267c5.12,0,8.533,3.413,8.533,8.533
		c0,5.12-3.413,8.533-8.533,8.533c-24.747,0-48.64,24.747-48.64,51.2C52.76,145.347,48.493,148.76,44.227,148.76z"/>
	<path d="M408.6,464.493c-5.12,0-8.533-3.413-8.533-8.533s3.413-8.533,8.533-8.533c45.227,0,85.333-40.107,85.333-85.333
		c0-5.12,3.413-8.533,8.533-8.533c5.12,0,8.533,3.413,8.533,8.533C511,417.56,464.067,464.493,408.6,464.493z"/>
	<path d="M408.6,430.36c-5.12,0-8.533-3.413-8.533-8.533c0-5.12,3.413-8.533,8.533-8.533c25.6,0,51.2-25.6,51.2-51.2
		c0-5.12,3.413-8.533,8.533-8.533c5.12,0,8.533,3.413,8.533,8.533C476.867,397.08,443.587,430.36,408.6,430.36z"/>
	<path d="M458.947,141.933c0,5.12-3.413,8.533-8.533,8.533c-5.12,0-8.533-3.413-8.533-8.533c0-5.12,3.413-8.533,8.533-8.533
		C454.68,133.4,458.947,136.813,458.947,141.933"/>
</g>
</svg>