<?xml version="1.0" encoding="iso-8859-1"?>
<!-- Uploaded to: SVG Repo, www.svgrepo.com, Generator: SVG Repo Mixer Tools -->
<svg version="1.1" id="Layer_1" xmlns="http://www.w3.org/2000/svg" xmlns:xlink="http://www.w3.org/1999/xlink" 
	 viewBox="0 0 512 512" xml:space="preserve">
<rect x="128.047" y="411.642" transform="matrix(-0.98 0.199 -0.199 -0.98 482.3951 810.9997)" style="fill:#CED7D9;" width="144.792" height="36.198"/>
<path style="fill:#54747B;" d="M161.497,465.361L52.349,502.099c-15.477,5.209-32.017-4.326-35.266-20.329l-5.768-28.409
	c-3.249-16.003,8.263-31.233,24.546-32.472l114.833-8.74L161.497,465.361z"/>
<path style="fill:#3C6168;" d="M46.02,476.281l-5.768-28.409c-2.312-11.389,2.855-22.379,11.892-28.221l-16.283,1.24
	c-16.282,1.239-27.794,16.469-24.546,32.472l5.768,28.409c3.249,16.003,19.789,25.538,35.266,20.329l14.166-4.768
	C56.554,495.015,48.225,487.141,46.02,476.281z"/>
<path style="fill:#54747B;" d="M437.878,415.71l-164.501,27.417c-27.579,4.597-52.686-16.671-52.686-44.632V270.919h217.187V415.71z
	"/>
<path style="fill:#3C6168;" d="M268.913,412.198c-11.031,1.838-21.074-6.668-21.074-17.852V270.919h-27.148v127.577
	c0,27.961,25.107,49.228,52.686,44.632l164.501-27.418v-31.673L268.913,412.198z"/>
<path style="fill:#FDD349;" d="M446.927,415.71h-90.495c-49.979,0-90.495-40.516-90.495-90.495v-54.297h180.989V415.71z"/>
<path style="fill:#FCB82D;" d="M356.433,388.562c-34.985,0-63.346-28.361-63.346-63.346v-54.297h-27.148v54.297
	c0,49.979,40.516,90.495,90.495,90.495h90.495v-27.148H356.433z"/>
<path style="fill:#38ABEC;" d="M501.052,180.405c0-108.594-108.422-171.921-235.114-171.921
	c-168.223,0-228.75,115.672-250.435,193.426c-9.667,34.665,16.282,69.009,52.27,69.009h279.611
	c24.989,0,45.247,20.258,45.247,45.247v54.297c0,24.989,20.258,45.247,45.247,45.247h18.099c24.989,0,45.247-20.258,45.247-45.247
	V180.405C501.224,180.405,501.052,180.448,501.052,180.405z"/>
<path style="fill:#3E92DD;" d="M482.212,388.562h-36.198c-14.994,0-27.148-12.155-27.148-27.148v-45.247
	c0-39.983-32.413-72.396-72.396-72.396H71.068c-22.901,0-40.009-20.983-35.471-43.43c7.346-36.335,23.836-89.244,60.536-133.959
	c-45.683,40.013-68.9,93.419-80.658,135.629c-9.647,34.626,16.352,68.908,52.297,68.908h279.611
	c24.989,0,45.247,20.258,45.247,45.247v54.297c0,24.989,20.258,45.247,45.247,45.247h18.099c19.73,0,36.501-12.633,42.691-30.248
	C493.566,387.455,488.02,388.562,482.212,388.562z"/>
<g>
	<path style="fill:#327CCF;" d="M202.592,189.473h-36.198c-9.996,0-18.099-8.103-18.099-18.099l0,0
		c0-9.996,8.103-18.099,18.099-18.099h36.198c9.996,0,18.099,8.103,18.099,18.099l0,0
		C220.691,181.371,212.587,189.473,202.592,189.473z"/>
	<path style="fill:#327CCF;" d="M48.751,189.473c9.996,0,18.099-8.103,18.099-18.099l0,0c0-9.996-8.103-18.099-18.099-18.099h-15.63
		c-5.631,12.379-10.199,24.592-13.899,36.198H48.751z"/>
	<path style="fill:#327CCF;" d="M356.433,189.473h-36.198c-9.996,0-18.099-8.103-18.099-18.099l0,0
		c0-9.996,8.103-18.099,18.099-18.099h36.198c9.996,0,18.099,8.103,18.099,18.099l0,0
		C374.532,181.371,366.428,189.473,356.433,189.473z"/>
</g>
<path style="fill:#FF8B1B;" d="M342.859,352.364H315.71c-7.496,0-13.574-6.078-13.574-13.574l0,0
	c0-7.496,6.078-13.574,13.574-13.574h27.148c7.496,0,13.574,6.078,13.574,13.574l0,0
	C356.433,346.286,350.355,352.364,342.859,352.364z"/>
<g>
	<circle style="fill:#9FDBFC;" cx="401.682" cy="108.028" r="31.108"/>
	<circle style="fill:#9FDBFC;" cx="455.979" cy="153.275" r="18.099"/>
</g>
<path d="M131.327,434.375h-1.131c-4.686,0-8.484,3.798-8.484,8.484s3.797,8.484,8.484,8.484h1.131c4.686,0,8.484-3.799,8.484-8.484
	S136.012,434.375,131.327,434.375z"/>
<path d="M95.129,443.424h-1.131c-4.687,0-8.484,3.799-8.484,8.484c0,4.685,3.797,8.484,8.484,8.484h1.131
	c4.686,0,8.484-3.799,8.484-8.484C103.613,447.223,99.815,443.424,95.129,443.424z"/>
<path d="M58.931,452.474H57.8c-4.686,0-8.484,3.799-8.484,8.484s3.797,8.484,8.484,8.484h1.131c4.687,0,8.484-3.798,8.484-8.484
	S63.617,452.474,58.931,452.474z"/>
<path d="M509.527,178.659c-0.44-42.261-16.88-80.462-47.609-110.577c-3.301-3.236-8.761-3.18-11.996,0.121
	c-3.235,3.301-3.181,8.762,0.121,11.997c28.217,27.654,42.526,61.367,42.526,100.204c0,0.576,0.059,1.145,0.172,1.699v188.359
	c0,20.271-16.492,36.763-36.763,36.763h-18.099c-20.272,0-36.763-16.493-36.763-36.763v-54.297
	c0-29.627-24.104-53.731-53.731-53.731H67.773c-14.437,0-27.721-6.591-36.447-18.083c-8.762-11.54-11.552-26.179-7.651-40.163
	c0.577-2.068,1.182-4.147,1.803-6.232H48.75c14.658,0,26.583-11.925,26.583-26.583c0-14.658-11.924-26.583-26.582-26.583h-2.319
	C80.347,77.755,144.565,16.968,265.938,16.968c62.156,0,119.081,15.541,160.284,43.762c3.815,2.613,9.181,1.61,11.794-2.206
	c2.612-3.814,1.61-9.181-2.205-11.794C391.811,16.596,331.482,0,265.938,0C189.161,0,126.531,23.559,79.787,70.021
	c-24.586,24.44-41.905,52.636-54.048,79.118c-0.115,0.206-17.288,46.472-18.408,50.492c-5.337,19.14-1.517,39.18,10.483,54.982
	c11.961,15.753,30.171,24.789,49.959,24.789h144.434c0,0,0.028,120.249,0.048,120.826l-53.135,10.788l-0.112-0.554
	c-0.851-4.193-4.707-7.1-8.958-6.771l-114.833,8.74c-10.186,0.775-19.562,5.893-25.721,14.044
	c-6.159,8.149-8.527,18.565-6.493,28.576l5.768,28.409c2.032,10.011,8.272,18.679,17.124,23.781c5.469,3.153,11.617,4.76,17.8,4.76
	c3.825,0,7.662-0.614,11.362-1.86l109.148-36.737c4.055-1.365,6.459-5.536,5.607-9.729l-0.112-0.554l75.069-15.242
	c6.657,2.857,13.839,4.353,21.136,4.353c2.947,0,5.914-0.242,8.87-0.735l44.229-7.372c4.621-0.77,7.744-5.141,6.974-9.763
	c-0.773-4.621-5.134-7.745-9.764-6.974l-44.229,7.372c-16.939,2.822-34.044-6.881-40.292-22.88
	c-1.662-4.255-2.515-8.815-2.515-13.383V279.402h28.28v45.813c0,54.577,44.401,98.979,98.979,98.979h81.445h18.099
	c29.627,0,53.731-24.104,53.731-53.731V180.405C509.708,179.812,509.646,179.228,509.527,178.659z M58.366,171.374
	c0,5.302-4.313,9.615-9.615,9.615H31.048c2.348-6.559,4.886-12.987,7.59-19.23h10.113C54.051,161.759,58.366,166.073,58.366,171.374
	z M49.642,494.058c-10.492,3.533-22.047-3.15-24.246-13.976l-5.768-28.409c-2.202-10.844,5.853-21.485,16.875-22.324l107.365-8.172
	l7.823,38.532L49.642,494.058z M162.496,427.645l52.969-10.754c2.337,6.417,5.888,12.354,10.505,17.489l-59.647,12.11
	L162.496,427.645z M274.422,325.215v-45.813h72.961c20.272,0,36.763,16.493,36.763,36.763v54.297
	c0,14.212,5.556,27.144,14.599,36.763h-42.313C311.211,407.226,274.422,370.437,274.422,325.215z"/>
<path d="M166.394,144.792c-14.658,0-26.583,11.925-26.583,26.583c0,14.658,11.925,26.583,26.583,26.583h36.198
	c14.658,0,26.583-11.925,26.583-26.583c0-14.658-11.925-26.583-26.583-26.583H166.394z M212.207,171.374
	c0,5.302-4.313,9.615-9.615,9.615h-36.198c-5.302,0-9.615-4.313-9.615-9.615c0-5.302,4.313-9.615,9.615-9.615h36.198
	C207.892,161.759,212.207,166.073,212.207,171.374z"/>
<path d="M320.235,144.792c-14.658,0-26.583,11.925-26.583,26.583c0,14.658,11.925,26.583,26.583,26.583h36.198
	c14.658,0,26.583-11.925,26.583-26.583c0-14.658-11.925-26.583-26.583-26.583H320.235z M366.048,171.374
	c0,5.302-4.313,9.615-9.615,9.615h-36.198c-5.302,0-9.615-4.313-9.615-9.615c0-5.302,4.313-9.615,9.615-9.615h36.198
	C361.733,161.759,366.048,166.073,366.048,171.374z"/>
<path d="M342.859,316.732H315.71c-12.163,0-22.058,9.896-22.058,22.058s9.896,22.058,22.058,22.058h27.148
	c12.163,0,22.058-9.896,22.058-22.058S355.021,316.732,342.859,316.732z M342.859,343.88H315.71c-2.806,0-5.09-2.284-5.09-5.09
	s2.284-5.09,5.09-5.09h27.148c2.806,0,5.09,2.284,5.09,5.09S345.665,343.88,342.859,343.88z"/>
<path d="M255.757,407.226c-4.687,0-8.484,3.799-8.484,8.484s3.797,8.484,8.484,8.484h1.131c4.686,0,8.484-3.799,8.484-8.484
	s-3.797-8.484-8.484-8.484H255.757z"/>
</svg>