<?xml version="1.0" encoding="iso-8859-1"?>
<!-- Uploaded to: SVG Repo, www.svgrepo.com, Generator: SVG Repo Mixer Tools -->
<svg height="800px" width="800px" version="1.1" id="Layer_1" xmlns="http://www.w3.org/2000/svg" xmlns:xlink="http://www.w3.org/1999/xlink" 
	 viewBox="0 0 511.998 511.998" xml:space="preserve">
<path style="fill:#394049;" d="M117.707,293.17l-62.506,41.134c-5.76,3.79-13.541,1.585-16.456-4.665l-2.332-5.001
	c-3.047-6.534-0.219-14.301,6.314-17.348l66.996-31.241L117.707,293.17z"/>
<path style="opacity:0.3;enable-background:new    ;" d="M109.724,276.05l-66.996,31.241c-0.59,0.275-1.137,0.6-1.665,0.947
	c5.454,8.357,12.196,15.855,19.961,22.234l56.684-37.303L109.724,276.05z"/>
<path style="fill:#394049;" d="M394.289,293.17l62.506,41.134c5.76,3.79,13.541,1.585,16.456-4.665l2.332-5.001
	c3.047-6.534,0.219-14.301-6.314-17.348l-66.996-31.241L394.289,293.17z"/>
<path style="opacity:0.3;enable-background:new    ;" d="M402.271,276.05l66.997,31.241c0.59,0.275,1.137,0.6,1.665,0.947
	c-5.453,8.357-12.196,15.855-19.961,22.234l-56.684-37.303L402.271,276.05z"/>
<g>
	<path style="fill:#394049;" d="M233.46,238.67c0.17-3.629-0.314-7.271-1.389-10.74c-15.424-49.772-47.443-62.079-101.098-62.079
		c-36.171,0-95.618,14.054-113.308,37.764c-9.445,12.659,12.846,18.669,12.846,45.769c0,53.442,44.978,96.766,100.461,96.766
		C194.546,346.148,231.03,290.608,233.46,238.67z"/>
	<path style="fill:#394049;" d="M278.537,238.67c-0.17-3.629,0.314-7.271,1.389-10.74c15.424-49.772,47.443-62.079,101.098-62.079
		c36.171,0,95.618,14.054,113.307,37.764c9.445,12.659-12.846,18.669-12.846,45.769c0,53.442-44.978,96.766-100.461,96.766
		C317.451,346.148,280.965,290.608,278.537,238.67z"/>
</g>
<path style="fill:#9D4D59;" d="M215.044,262.077c0-46.431-37.64-72.574-84.072-72.574S46.9,215.646,46.9,262.078
	s37.64,84.072,84.072,84.072C177.403,346.148,215.044,308.509,215.044,262.077z"/>
<path style="opacity:0.2;fill:#FFFFFF;enable-background:new    ;" d="M130.972,189.503c-46.431,0-84.072,26.143-84.072,72.574
	c0,16.25,4.623,31.414,12.607,44.274l109.974-109.974C157.942,191.858,144.856,189.503,130.972,189.503z"/>
<path style="fill:#E9D286;" d="M36.091,201.797l-10.347-7.835c-1.972-1.493-4.71-1.442-6.632,0.115
	c-3.39,2.746-6.28,5.641-8.547,8.68c-6.254,8.382-0.057,14.158,6.031,23.772c1.155,1.824,3.623,2.276,5.344,0.973l14.151-10.716
	C41.059,213.024,41.059,205.559,36.091,201.797z"/>
<path style="fill:#9D4D59;" d="M296.952,262.077c0-46.431,37.64-72.574,84.072-72.574s84.072,26.143,84.072,72.574
	s-37.64,84.072-84.072,84.072C334.592,346.148,296.952,308.509,296.952,262.077z"/>
<path style="opacity:0.2;fill:#FFFFFF;enable-background:new    ;" d="M459.275,232.941L351.438,340.78
	c9.205,3.462,19.172,5.37,29.587,5.37c46.431,0,84.072-37.64,84.072-84.072C465.095,251.227,463.017,241.501,459.275,232.941z"/>
<path style="fill:#E9D286;" d="M475.904,201.797l10.347-7.835c1.972-1.493,4.71-1.442,6.632,0.115c3.39,2.746,6.28,5.641,8.547,8.68
	c6.254,8.382,0.056,14.158-6.032,23.772c-1.155,1.824-3.623,2.276-5.344,0.973l-14.151-10.716
	C470.938,213.024,470.938,205.559,475.904,201.797z"/>
<path d="M507.772,198.025c-2.591-3.473-5.925-6.87-9.907-10.096c-3.448-2.795-7.928-3.615-11.994-2.46
	c-26.079-17.297-72.679-27.532-104.848-27.532c-28.218,0-52.405,3.311-71.457,15.03H202.43
	c-19.051-11.718-43.239-15.03-71.457-15.03c-32.167,0-78.769,10.235-104.848,27.532c-4.066-1.155-8.546-0.334-11.992,2.459
	c-3.985,3.227-7.318,6.624-9.908,10.097c-8.619,11.552-2.208,21.001,2.943,28.593c0.903,1.331,1.837,2.708,2.745,4.143
	c1.732,2.735,4.553,4.636,7.739,5.212c0.683,0.123,1.37,0.185,2.056,0.184c0.13,0,0.257-0.012,0.387-0.016
	c1.448,3.547,2.504,7.826,2.504,13.241c0,18.945,5.238,36.73,14.387,52.076c-8.736,5.562-12.235,16.889-7.743,26.522l2.331,5.001
	c2.361,5.064,6.798,8.843,12.174,10.366c1.725,0.488,3.488,0.729,5.243,0.729c3.714,0,7.389-1.078,10.559-3.165l9.064-5.965
	c17.647,12.034,39.162,19.112,62.358,19.112c0.822,0,1.64-0.012,2.457-0.034c66.698-1.406,105.357-59.903,107.934-114.987
	c0.212-4.527-0.372-9.052-1.735-13.453c-0.513-1.654-1.045-3.266-1.594-4.843c3.845-2.268,9.45-4.251,17.965-4.251
	c8.514,0,14.119,1.983,17.965,4.251c-0.55,1.577-1.081,3.189-1.594,4.843c-1.364,4.4-1.947,8.926-1.735,13.453
	c2.576,55.085,41.235,113.582,107.934,114.988c0.813,0.021,1.63,0.033,2.45,0.033c0.002,0,0.005,0,0.007,0l0,0
	c0.005,0,0.009,0,0.015,0c23.19-0.003,44.699-7.081,62.342-19.112l9.063,5.964c3.17,2.087,6.844,3.165,10.56,3.165
	c1.754,0,3.518-0.241,5.243-0.729c5.376-1.523,9.813-5.302,12.174-10.366l2.331-5c4.493-9.634,0.993-20.961-7.743-26.523
	c9.15-15.346,14.387-33.132,14.387-52.076c0-5.415,1.056-9.694,2.504-13.241c0.129,0.004,0.257,0.016,0.387,0.016
	c0.685,0,1.374-0.061,2.056-0.184c3.186-0.577,6.007-2.477,7.739-5.212c0.908-1.435,1.842-2.811,2.746-4.143
	C509.98,219.026,516.391,209.577,507.772,198.025z M31.314,210.477l-10.555,7.992c-0.167-0.247-0.333-0.492-0.499-0.735
	c-5.239-7.721-4.951-8.107-3.355-10.247c1.489-1.995,3.393-4.006,5.676-5.995l8.732,6.612c0.487,0.369,0.59,0.849,0.59,1.186
	C31.904,209.629,31.803,210.108,31.314,210.477z M50.851,327.694c-1.127,0.742-2.229,0.587-2.787,0.429
	c-0.557-0.158-1.577-0.606-2.148-1.828l-2.331-5.001c-0.58-1.245-0.641-2.641-0.172-3.931c0.469-1.29,1.414-2.321,2.658-2.901
	l0.059-0.027c2.939,3.569,6.113,6.947,9.501,10.115L50.851,327.694z M130.973,338.236c-41.994,0-76.16-34.165-76.16-76.16
	c0-19.598,7.503-36.042,21.696-47.554c13.602-11.033,32.944-17.108,54.464-17.108c21.519,0,40.861,6.075,54.463,17.108
	c14.193,11.513,21.696,27.956,21.696,47.554C207.132,304.072,172.967,338.236,130.973,338.236z M225.556,238.3
	c-0.31,6.63-1.217,13.318-2.694,19.922c-0.952-22.843-10.387-42.143-27.458-55.989c-16.412-13.311-39.294-20.642-64.431-20.642
	c-25.137,0-48.02,7.331-64.432,20.642c-17.43,14.137-26.886,33.966-27.493,57.441c-0.407-3.378-0.625-6.811-0.625-10.292
	c0-8.832-2.082-15.767-4.475-21.05l6.919-5.24c4.36-3.301,6.86-8.332,6.86-13.802c0-5.469-2.501-10.5-6.86-13.802l-0.359-0.271
	c24.097-13.394,63.496-21.457,90.463-21.457c28.132,0,46.954,3.507,61.025,11.37c15.286,8.542,25.618,22.885,32.514,45.14
	C225.331,232.912,225.682,235.613,225.556,238.3z M255.998,200.668c-9.239,0-17.21,1.783-24.121,5.412
	c-3.311-6.586-7.055-12.313-11.206-17.287h70.655c-4.15,4.974-7.894,10.702-11.206,17.287
	C273.209,202.451,265.238,200.668,255.998,200.668z M381.025,338.236L381.025,338.236c-41.995,0-76.16-34.165-76.16-76.16
	c0-19.598,7.503-36.042,21.696-47.554c13.602-11.033,32.945-17.108,54.464-17.108s40.861,6.075,54.463,17.108
	c14.194,11.513,21.696,27.956,21.696,47.554C457.183,304.072,423.019,338.236,381.025,338.236z M468.411,321.294l-2.332,5.001
	c-0.57,1.223-1.59,1.67-2.148,1.828c-0.558,0.157-1.66,0.312-2.788-0.43l-4.779-3.145c3.387-3.168,6.562-6.547,9.501-10.115
	l0.059,0.027c1.245,0.58,2.189,1.611,2.658,2.901C469.053,318.653,468.992,320.049,468.411,321.294z M473.573,249.382
	c0,3.481-0.216,6.914-0.625,10.292c-0.607-23.475-10.063-43.303-27.493-57.441c-16.412-13.311-39.295-20.642-64.431-20.642
	c-25.137,0-48.02,7.331-64.432,20.642c-17.071,13.846-26.506,33.146-27.458,55.989c-1.478-6.605-2.384-13.292-2.694-19.923
	c-0.126-2.686,0.226-5.388,1.044-8.028c6.896-22.254,17.228-36.597,32.514-45.14c14.071-7.864,32.892-11.37,61.025-11.37
	c26.968,0,66.366,8.063,90.463,21.457l-0.359,0.271c-4.36,3.302-6.86,8.332-6.86,13.802c0,5.47,2.501,10.5,6.86,13.802l6.919,5.24
	C475.655,233.616,473.573,240.551,473.573,249.382z M491.735,217.734c-0.166,0.244-0.332,0.488-0.499,0.735l-10.555-7.992
	c-0.487-0.369-0.59-0.849-0.59-1.186c0-0.338,0.102-0.817,0.59-1.186l8.732-6.612c2.284,1.99,4.188,4.001,5.676,5.995
	C496.686,209.628,496.974,210.013,491.735,217.734z"/>
</svg>