<?xml version="1.0" encoding="iso-8859-1"?>
<!-- Uploaded to: SVG Repo, www.svgrepo.com, Generator: SVG Repo Mixer Tools -->
<svg height="800px" width="800px" version="1.1" id="Layer_1" xmlns="http://www.w3.org/2000/svg" xmlns:xlink="http://www.w3.org/1999/xlink" 
	 viewBox="0 0 512.853 512.853" xml:space="preserve">
<g transform="translate(1 1)">
	<path style="fill:#FFE100;" d="M425.667,97.56h-384c-5.12,0-8.533-4.267-8.533-8.533v-51.2c0-5.12,4.267-8.533,8.533-8.533h298.667
		l0,0L425.667,97.56L425.667,97.56"/>
	<path style="fill:#FFFFFF;" d="M33.133,89.027v-51.2c0-5.12,4.267-8.533,8.533-8.533h-25.6c-4.267,0-8.533,4.267-8.533,8.533v51.2
		c0,5.12,4.267,8.533,8.533,8.533h25.6C36.547,97.56,33.133,93.293,33.133,89.027"/>
	<path style="fill:#FFA800;" d="M459.8,96.707l-84.48-67.413l0,0h-34.133l0,0l84.48,67.413c0,0.853,0,0.853,0,0.853L459.8,96.707
		C459.8,97.56,459.8,97.56,459.8,96.707"/>
	<path style="fill:#FFE100;" d="M472.6,228.12l-66.56-81.92c-3.413-4.267-8.533-6.827-13.653-6.827H48.493
		c-8.533,0-15.36,7.68-15.36,17.067v256.853c0,9.387,6.827,17.067,15.36,17.067H60.44c0-28.16,20.48-51.2,46.08-51.2
		s46.08,23.04,46.08,51.2h204.8c0-28.16,20.48-51.2,46.08-51.2s46.08,23.04,46.08,51.2h11.947c8.533,0,15.36-7.68,15.36-17.067
		v-171.52C476.867,236.653,475.16,232.387,472.6,228.12"/>
	<path style="fill:#63D3FD;" d="M7.533,174.36v102.4h66.56c5.973,0,10.24-4.267,10.24-10.24V184.6c0-5.973-4.267-10.24-10.24-10.24
		H7.533z"/>
	<path style="fill:#FECC00;" d="M434.2,430.36c0,28.16-17.067,51.2-38.4,51.2s-38.4-23.04-38.4-51.2c0-28.16,17.067-51.2,38.4-51.2
		S434.2,402.2,434.2,430.36"/>
	<path style="fill:#FFA800;" d="M408.6,379.16c-2.56,0-5.12,0-7.68,0.853c18.773,3.413,33.28,24.747,33.28,50.347
		c0,25.6-14.507,46.933-33.28,50.347c2.56,0,5.12,0.853,7.68,0.853c28.16,0,51.2-23.04,51.2-51.2
		C459.8,402.2,436.76,379.16,408.6,379.16"/>
	<path style="fill:#FECC00;" d="M127,430.36c0,28.16-17.067,51.2-38.4,51.2s-38.4-23.04-38.4-51.2c0-28.16,17.067-51.2,38.4-51.2
		S127,402.2,127,430.36"/>
	<path style="fill:#FFA800;" d="M101.4,379.16c-2.56,0-5.12,0-7.68,0.853C112.493,383.427,127,404.76,127,430.36
		c0,25.6-14.507,46.933-33.28,50.347c2.56,0,5.12,0.853,7.68,0.853c28.16,0,51.2-23.04,51.2-51.2
		C152.6,402.2,129.56,379.16,101.4,379.16"/>
	<path style="fill:#FFFFFF;" d="M33.133,413.293v-256c0-9.387,6.827-17.067,15.36-17.067H24.6c-9.387,0-17.067,7.68-17.067,17.067
		v256c0,9.387,7.68,17.067,17.067,17.067h23.893C39.96,430.36,33.133,422.68,33.133,413.293"/>
	<path style="fill:#FFA800;" d="M497.347,228.12l-74.24-81.92c-3.413-3.413-9.387-5.973-14.507-5.973h-16.213
		c5.12,0,10.24,2.56,13.653,6.827l66.56,81.92c3.413,3.413,4.267,8.533,4.267,13.653v170.667c0,9.387-6.827,17.067-15.36,17.067
		H485.4c9.387,0,17.067-7.68,17.067-17.067V242.627C502.467,236.653,500.76,232.387,497.347,228.12"/>
	<path style="fill:#63D3FD;" d="M388.973,276.76h87.893v-34.987c0-5.12-1.707-9.387-5.12-13.653l-49.493-53.76h-33.28
		c-3.413,0-5.973,2.56-5.973,5.973v90.453C383,274.2,385.56,276.76,388.973,276.76"/>
	<path style="fill:#3DB9F9;" d="M497.347,228.12l-49.493-53.76h-25.6l49.493,53.76c3.413,3.413,5.12,8.533,5.12,13.653v34.987h25.6
		v-34.987C502.467,236.653,500.76,232.387,497.347,228.12"/>
	<g>
		<path style="fill:#63D3FD;" d="M255,186.307v78.507c0,6.827,5.12,11.947,11.947,11.947h61.44c6.827,0,11.947-5.12,11.947-11.947
			v-78.507c0-6.827-5.12-11.947-11.947-11.947h-61.44C260.12,174.36,255,179.48,255,186.307"/>
		<path style="fill:#63D3FD;" d="M127,186.307v78.507c0,6.827,5.12,11.947,11.947,11.947h61.44c6.827,0,11.947-5.12,11.947-11.947
			v-78.507c0-6.827-5.12-11.947-11.947-11.947h-61.44C132.12,174.36,127,179.48,127,186.307"/>
	</g>
	<path d="M314.733,353.56H16.067c-5.12,0-8.533-3.413-8.533-8.533c0-5.12,3.413-8.533,8.533-8.533h298.667
		c5.12,0,8.533,3.413,8.533,8.533C323.267,350.147,319.853,353.56,314.733,353.56z"/>
	<path d="M280.6,319.427H16.067c-5.12,0-8.533-3.413-8.533-8.533c0-5.12,3.413-8.533,8.533-8.533H280.6
		c5.12,0,8.533,3.413,8.533,8.533C289.133,316.013,285.72,319.427,280.6,319.427z"/>
	<path d="M511,285.293H388.973c-7.68,0-14.507-6.827-14.507-14.507v-90.453c0-7.68,6.827-14.507,14.507-14.507h63.147L503.32,223
		c5.12,5.12,7.68,11.947,7.68,19.627L511,285.293L511,285.293z M391.533,268.227h102.4v-26.453c0-2.56-0.853-5.973-3.413-7.68
		l-46.933-51.2h-52.053V268.227z"/>
	<path d="M74.093,285.293H-1V165.827h75.093c10.24,0,18.773,8.533,18.773,18.773v81.92C92.867,276.76,84.333,285.293,74.093,285.293
		z M16.067,268.227h58.027c0.853,0,1.707-0.853,1.707-1.707V184.6c0-0.853-0.853-1.707-1.707-1.707H16.067V268.227z"/>
	<path d="M328.387,285.293h-61.44c-11.093,0-20.48-9.387-20.48-20.48v-78.507c0-11.093,9.387-20.48,20.48-20.48h61.44
		c11.093,0,20.48,9.387,20.48,20.48v78.507C348.867,275.907,339.48,285.293,328.387,285.293z M266.947,182.893
		c-1.707,0-3.413,1.707-3.413,3.413v78.507c0,1.707,1.707,3.413,3.413,3.413h61.44c1.707,0,3.413-1.707,3.413-3.413v-78.507
		c0-1.707-1.707-3.413-3.413-3.413L266.947,182.893L266.947,182.893z"/>
	<path d="M200.387,285.293h-61.44c-11.093,0-20.48-9.387-20.48-20.48v-78.507c0-11.093,9.387-20.48,20.48-20.48h61.44
		c11.093,0,20.48,9.387,20.48,20.48v78.507C220.867,275.907,211.48,285.293,200.387,285.293z M138.947,182.893
		c-1.707,0-3.413,1.707-3.413,3.413v78.507c0,1.707,1.707,3.413,3.413,3.413h61.44c1.707,0,3.413-1.707,3.413-3.413v-78.507
		c0-1.707-1.707-3.413-3.413-3.413L138.947,182.893L138.947,182.893z"/>
	<path d="M408.6,490.093c-33.28,0-59.733-26.453-59.733-59.733s26.453-59.733,59.733-59.733s59.733,26.453,59.733,59.733
		S441.88,490.093,408.6,490.093z M408.6,387.693c-23.893,0-42.667,18.773-42.667,42.667c0,23.893,18.773,42.667,42.667,42.667
		c23.893,0,42.667-18.773,42.667-42.667C451.267,406.467,432.493,387.693,408.6,387.693z"/>
	<path d="M502.467,345.027h-51.2c-5.12,0-8.533-3.413-8.533-8.533c0-5.12,3.413-8.533,8.533-8.533h51.2
		c5.12,0,8.533,3.413,8.533,8.533C511,341.613,507.587,345.027,502.467,345.027z"/>
	<path d="M425.667,430.36c0,9.387-7.68,17.067-17.067,17.067c-9.387,0-17.067-7.68-17.067-17.067c0-9.387,7.68-17.067,17.067-17.067
		C417.987,413.293,425.667,420.973,425.667,430.36"/>
	<path d="M101.4,490.093c-33.28,0-59.733-26.453-59.733-59.733s26.453-59.733,59.733-59.733s59.733,26.453,59.733,59.733
		S134.68,490.093,101.4,490.093z M101.4,387.693c-23.893,0-42.667,18.773-42.667,42.667c0,23.893,18.773,42.667,42.667,42.667
		s42.667-18.773,42.667-42.667C144.067,406.467,125.293,387.693,101.4,387.693z"/>
	<path d="M118.467,430.36c0,9.387-7.68,17.067-17.067,17.067s-17.067-7.68-17.067-17.067c0-9.387,7.68-17.067,17.067-17.067
		S118.467,420.973,118.467,430.36"/>
	<path d="M485.4,438.893h-34.133v-8.533c0-23.893-18.773-42.667-42.667-42.667c-23.893,0-42.667,18.773-42.667,42.667v8.533H144.067
		v-8.533c0-23.893-18.773-42.667-42.667-42.667s-42.667,18.773-42.667,42.667v8.533H24.6c-14.507,0-25.6-11.947-25.6-25.6v-256
		c0-14.507,11.947-25.6,25.6-25.6h384c7.68,0,15.36,3.413,21.333,9.387l74.24,81.92c5.12,5.12,7.68,11.947,7.68,19.627v170.667
		C511,426.947,499.053,438.893,485.4,438.893z M467.48,421.827h17.067c5.12,0,8.533-4.267,8.533-8.533v-171.52
		c0-2.56-0.853-5.973-3.413-7.68l0,0l-72.533-81.92c-2.56-2.56-5.12-3.413-8.533-3.413h-384c-5.12,0-8.533,4.267-8.533,8.533v256
		c0,5.12,4.267,8.533,8.533,8.533h17.067c4.267-29.013,29.013-51.2,58.88-51.2s54.613,22.187,58.88,51.2h188.587
		c4.267-29.013,29.013-51.2,58.88-51.2S463.213,392.813,467.48,421.827z"/>
	<path d="M127,148.76c-1.707,0-3.413-0.853-5.12-1.707l-59.733-42.667c-3.413-2.56-4.267-7.68-1.707-11.947
		c2.56-3.413,7.68-4.267,11.947-1.707L132.12,133.4c3.413,2.56,5.12,7.68,1.707,11.947C132.12,147.907,129.56,148.76,127,148.76z"/>
	<path d="M297.667,148.76c-2.56,0-5.12-0.853-6.827-3.413c-2.56-3.413-1.707-9.387,1.707-11.947l59.733-42.667
		c3.413-2.56,9.387-1.707,11.947,1.707c2.56,3.413,1.707,9.387-1.707,11.947l-59.733,42.667
		C301.08,147.907,299.373,148.76,297.667,148.76z"/>
	<path d="M459.8,106.093H16.067C6.68,106.093-1,98.413-1,89.027v-51.2C-1,28.44,6.68,20.76,16.067,20.76h360.96l2.56,1.707
		l89.6,71.68l-3.413,11.947H459.8z M16.067,37.827v51.2h419.84l-64-51.2H16.067z"/>
</g>
</svg>