<?xml version="1.0" encoding="iso-8859-1"?>
<!-- Uploaded to: SVG Repo, www.svgrepo.com, Generator: SVG Repo Mixer Tools -->
<svg height="800px" width="800px" version="1.1" id="Layer_1" xmlns="http://www.w3.org/2000/svg" xmlns:xlink="http://www.w3.org/1999/xlink" 
	 viewBox="0 0 512.2 512.2" xml:space="preserve">
<g transform="translate(1 1)">
	<path style="fill:#FFE100;" d="M396.327,184.963c75.947,96.427,73.387,214.187-7.68,311.467c-3.413,4.267-7.68,5.973-12.8,5.973
		h-240.64c-5.12,0-9.387-2.56-12.8-5.973c-81.067-97.28-83.627-215.04-7.68-311.467c3.413-4.267,8.533-6.827,12.8-6.827h256
		C388.647,178.137,393.767,180.696,396.327,184.963"/>
	<path style="fill:#63D3FD;" d="M135.207,254.937h-84.48c-17.067,39.253-21.333,79.36-12.8,119.467h98.133
		c5.12,0,9.387-4.267,9.387-9.387V264.323C144.593,259.203,140.327,254.937,135.207,254.937"/>
	<path style="fill:#FFFFFF;" d="M114.727,184.963c3.413-4.267,8.533-6.827,12.8-6.827H110.46c-5.973,0-11.093,2.56-14.507,6.827
		C9.767,281.39,13.18,399.15,104.487,496.43c3.413,4.267,9.387,5.973,14.507,5.973h15.36c-5.12,0-9.387-2.56-12.8-5.973
		C41.34,399.15,38.78,281.39,114.727,184.963"/>
	<path style="fill:#FFA800;" d="M415.1,184.963c-3.413-4.267-9.387-6.827-14.507-6.827h-17.067c5.12,0,10.24,2.56,12.8,6.827
		c75.947,96.427,73.387,214.187-7.68,311.467c-3.413,4.267-7.68,5.973-12.8,5.973h16.213c5.12,0,11.093-2.56,14.507-5.973
		C497.873,399.15,501.287,281.39,415.1,184.963"/>
	<path style="fill:#3DB9F9;" d="M460.327,254.937h-85.333c-5.12,0-9.387,4.267-9.387,9.387V365.87c0,5.12,4.267,9.387,9.387,9.387
		h98.133C481.66,334.297,477.393,294.19,460.327,254.937"/>
	<g>
		<path style="fill:#63D3FD;" d="M434.727,254.937h-59.733c-5.12,0-9.387,4.267-9.387,9.387V365.87c0,5.12,4.267,9.387,9.387,9.387
			h72.533C456.06,334.297,451.793,294.19,434.727,254.937"/>
		<path style="fill:#63D3FD;" d="M309.287,374.403h-107.52c-8.533,0-15.36-6.827-15.36-14.507v-90.453
			c0-8.533,6.827-14.507,15.36-14.507h106.667c8.533,0,14.507,6.827,14.507,14.507v89.6
			C323.793,367.577,316.967,374.403,309.287,374.403"/>
	</g>
	<g>
		<path style="fill:#FFE100;" d="M281.127,84.27c0,14.507-11.093,25.6-25.6,25.6c-14.507,0-25.6-11.093-25.6-25.6
			s11.093-25.6,25.6-25.6C270.033,58.67,281.127,69.763,281.127,84.27"/>
		<path style="fill:#FFE100;" d="M264.06,186.67c-5.12,0-8.533-3.413-8.533-8.533V109.87c0-5.12,3.413-8.533,8.533-8.533
			c5.12,0,8.533,3.413,8.533,8.533v68.267C272.593,183.257,269.18,186.67,264.06,186.67z"/>
		<path style="fill:#FFE100;" d="M281.127,92.803c-3.413,0-6.827-2.56-8.533-5.973c-1.707-4.267,0.853-9.387,5.973-10.24
			L500.433,8.323c4.267-1.707,9.387,0.853,10.24,5.973c1.707,4.267-0.853,9.387-5.973,10.24L282.833,92.803
			C282.833,92.803,281.98,92.803,281.127,92.803z"/>
		<path style="fill:#FFE100;" d="M8.06,178.137c-3.413,0-6.827-2.56-8.533-5.973c-1.707-4.267,0.853-9.387,5.973-10.24
			l221.867-68.267c4.267-1.707,9.387,0.853,10.24,5.973c1.707,4.267-0.853,9.387-5.973,10.24L9.767,178.136
			C9.767,178.137,8.913,178.137,8.06,178.137z"/>
	</g>
	<path d="M392.06,510.937H118.993c-7.68,0-15.36-3.413-20.48-8.533C4.647,402.563,1.233,278.83,89.98,178.99
		c5.12-5.973,12.8-9.387,21.333-9.387h289.28c8.533,0,16.213,3.413,21.333,9.387c87.893,98.987,85.333,222.72-8.533,323.413
		C407.42,507.523,399.74,510.937,392.06,510.937z M110.46,186.67c-3.413,0-6.827,1.707-8.533,3.413
		c-82.773,93.867-80.213,205.653,8.533,300.373c1.707,2.56,5.12,3.413,8.533,3.413H392.06c3.413,0,5.973-0.853,8.533-3.413
		c88.747-94.72,91.307-206.507,8.533-300.373l0,0c-1.707-2.56-5.12-3.413-8.533-3.413L110.46,186.67L110.46,186.67z"/>
	<path d="M255.527,186.67c-5.12,0-8.533-3.413-8.533-8.533V109.87c0-5.12,3.413-8.533,8.533-8.533s8.533,3.413,8.533,8.533v68.267
		C264.06,183.257,260.647,186.67,255.527,186.67z"/>
	<path d="M135.207,382.937H31.1l-1.707-6.827c-8.533-41.813-4.267-83.627,12.8-124.587l2.56-5.12h90.453
		c9.387,0,17.92,7.68,17.92,17.92V365.87C153.127,375.257,145.447,382.937,135.207,382.937z M44.753,365.87h90.453l0.853-101.547
		l-0.853-0.853h-79.36C43.047,296.75,38.78,331.737,44.753,365.87z"/>
	<path d="M479.953,382.937H375.847c-9.387,0-17.92-7.68-17.92-17.92V264.323c0-9.387,7.68-17.92,17.92-17.92H466.3l2.56,5.12
		c17.067,40.96,22.187,82.773,12.8,124.587L479.953,382.937z M375.847,263.47l-0.853,101.547l91.307,0.853
		c5.973-34.133,1.707-69.12-11.093-102.4H375.847z"/>
	<path d="M255.527,118.403c-18.773,0-34.133-15.36-34.133-34.133s15.36-34.133,34.133-34.133s34.133,15.36,34.133,34.133
		S274.3,118.403,255.527,118.403z M255.527,67.203c-9.387,0-17.067,7.68-17.067,17.067s7.68,17.067,17.067,17.067
		s17.067-7.68,17.067-17.067S264.913,67.203,255.527,67.203z"/>
	<path d="M281.127,84.27c-3.413,0-6.827-2.56-8.533-5.973c-1.707-4.267,0.853-9.387,5.973-10.24L500.433-0.21
		c4.267-1.707,9.387,0.853,10.24,5.973c1.707,4.267-0.853,9.387-5.973,10.24L282.833,84.27
		C282.833,84.27,281.98,84.27,281.127,84.27z"/>
	<path d="M8.06,169.603c-3.413,0-6.827-2.56-8.533-5.973c-1.707-4.267,0.853-9.387,5.973-10.24l221.867-68.267
		c4.267-1.707,9.387,0.853,10.24,5.973c1.707,4.267-0.853,9.387-5.973,10.24L9.767,169.603
		C9.767,169.603,8.913,169.603,8.06,169.603z"/>
	<path d="M309.287,382.937h-107.52c-12.8,0-23.893-10.24-23.893-23.04v-90.453c0-12.8,10.24-23.04,23.893-23.04h106.667
		c12.8,0,23.04,10.24,23.04,23.04v89.6C332.327,372.697,322.087,382.937,309.287,382.937z M201.767,263.47
		c-3.413,0-6.827,2.56-6.827,5.973v89.6c0,3.413,2.56,5.973,6.827,5.973h106.667c3.413,0,5.973-2.56,5.973-5.973v-89.6
		c0-3.413-2.56-5.973-5.973-5.973H201.767z"/>
	<path d="M289.66,468.27h-68.267c-5.12,0-8.533-3.413-8.533-8.533s3.413-8.533,8.533-8.533h68.267c5.12,0,8.533,3.413,8.533,8.533
		S294.78,468.27,289.66,468.27z"/>
	<path d="M306.727,425.603h-102.4c-5.12,0-8.533-3.413-8.533-8.533c0-5.12,3.413-8.533,8.533-8.533h102.4
		c5.12,0,8.533,3.413,8.533,8.533C315.26,422.19,311.847,425.603,306.727,425.603z"/>
</g>
</svg>