<?xml version="1.0" ?>
<!-- Uploaded to: SVG Repo, www.svgrepo.com, Generator: SVG Repo Mixer Tools -->
<svg width="800px" height="800px" viewBox="0 0 64 64" id="Layer_1" version="1.1" xml:space="preserve" xmlns="http://www.w3.org/2000/svg" xmlns:xlink="http://www.w3.org/1999/xlink">
<style type="text/css">
	.st0{fill:#656A73;}
	.st1{fill:#5C6373;}
	.st2{fill:#BF7D2C;}
	.st3{fill:#A4A5A6;}
	.st4{fill:#313740;}
	.st5{fill:#91AAB4;}
	.st6{fill:#3E606F;}
	.st7{fill:#6B5936;}
	.st8{fill:#A88C55;}
	.st9{fill:#4F4228;}
	.st10{fill:#C9942C;}
	.st11{fill:#7D828C;}
</style>
<g id="Layer_9">
<rect class="st0" height="3" width="46" x="9" y="45"/>
<path class="st1" d="M30,22c-1.7,0-3-1.3-3-3c0-1.3,0.8-2.4,2-2.8V9h2v8c0,0.6-0.4,1-1,1s-1,0.4-1,1s0.4,1,1,1s1-0.4,1-1h2   C33,20.7,31.7,22,30,22z"/>
<path class="st2" d="M28,6v2c0,1.1,0.9,2,2,2l0,0c1.1,0,2-0.9,2-2V6"/>
<polyline class="st2" points="60,29 60,23 52,23 52,29  "/>
<polyline class="st2" points="56,2 52,2 52,8 56,8  "/>
<polyline class="st3" points="4,33 4,29 16,29 16,33  "/>
<polyline class="st4" points="57,38 57,45 7,45 7,40  "/>
<rect class="st3" height="4" width="24" x="18" y="37"/>
<rect class="st5" height="15" width="60" x="2" y="47"/>
<path class="st6" d="M62,54.4l-3.5-3.5c-0.6-0.6-1.3-0.9-2.1-0.9h-0.7c-0.8,0-1.6,0.3-2.1,0.9l-1.7,1.7c-0.9,0.9-2.2,1.5-3.5,1.5   h-0.7c-1.3,0-2.6-0.5-3.5-1.5l-1.7-1.7c-0.6-0.6-1.3-0.9-2.1-0.9h-0.7c-0.8,0-1.6,0.3-2.1,0.9l-1.7,1.7c-0.9,0.9-2.2,1.5-3.5,1.5   h-0.7c-1.3,0-2.6-0.5-3.5-1.5l-1.7-1.7c-0.6-0.6-1.3-0.9-2.1-0.9h-0.7c-0.8,0-1.6,0.3-2.1,0.9l-1.7,1.7c-0.9,0.9-2.2,1.5-3.5,1.5   h-0.7c-1.3,0-2.6-0.5-3.5-1.5l-1.7-1.7C9.9,50.3,9.1,50,8.3,50H7.7c-0.8,0-1.6,0.3-2.1,0.9L2,54.4l0-2.8l2.1-2.1   C5.1,48.5,6.3,48,7.7,48h0.7c1.3,0,2.6,0.5,3.5,1.5l1.7,1.7c0.6,0.6,1.3,0.9,2.1,0.9h0.7c0.8,0,1.6-0.3,2.1-0.9l1.7-1.7   c0.9-0.9,2.2-1.5,3.5-1.5h0.7c1.3,0,2.6,0.5,3.5,1.5l1.7,1.7c0.6,0.6,1.3,0.9,2.1,0.9h0.7c0.8,0,1.6-0.3,2.1-0.9l1.7-1.7   c0.9-0.9,2.2-1.5,3.5-1.5h0.7c1.3,0,2.6,0.5,3.5,1.5l1.7,1.7c0.6,0.6,1.3,0.9,2.1,0.9h0.7c0.8,0,1.6-0.3,2.1-0.9l1.7-1.7   c0.9-0.9,2.2-1.5,3.5-1.5h0.7c1.3,0,2.6,0.5,3.5,1.5l2.1,2.1V54.4z"/>
<path class="st6" d="M61.6,62l-3.1-3.1c-0.6-0.6-1.3-0.9-2.1-0.9h-0.7c-0.8,0-1.6,0.3-2.1,0.9l-1.7,1.7c-0.9,0.9-2.2,1.5-3.5,1.5   h-0.7c-1.3,0-2.6-0.5-3.5-1.5l-1.7-1.7c-0.6-0.6-1.3-0.9-2.1-0.9h-0.7c-0.8,0-1.6,0.3-2.1,0.9l-1.7,1.7c-0.9,0.9-2.2,1.5-3.5,1.5   h-0.7c-1.3,0-2.6-0.5-3.5-1.5l-1.7-1.7c-0.6-0.6-1.3-0.9-2.1-0.9h-0.7c-0.8,0-1.6,0.3-2.1,0.9l-1.7,1.7c-0.9,0.9-2.2,1.5-3.5,1.5   h-0.7c-1.3,0-2.6-0.5-3.5-1.5l-1.7-1.7C9.9,58.3,9.1,58,8.3,58H7.7c-0.8,0-1.6,0.3-2.1,0.9L2.4,62L2,62v-2.4l2.1-2.1   C5.1,56.5,6.3,56,7.7,56h0.7c1.3,0,2.6,0.5,3.5,1.5l1.7,1.7c0.6,0.6,1.3,0.9,2.1,0.9h0.7c0.8,0,1.6-0.3,2.1-0.9l1.7-1.7   c0.9-0.9,2.2-1.5,3.5-1.5h0.7c1.3,0,2.6,0.5,3.5,1.5l1.7,1.7c0.6,0.6,1.3,0.9,2.1,0.9h0.7c0.8,0,1.6-0.3,2.1-0.9l1.7-1.7   c0.9-0.9,2.2-1.5,3.5-1.5h0.7c1.3,0,2.6,0.5,3.5,1.5l1.7,1.7c0.6,0.6,1.3,0.9,2.1,0.9h0.7c0.8,0,1.6-0.3,2.1-0.9l1.7-1.7   c0.9-0.9,2.2-1.5,3.5-1.5h0.7c1.3,0,2.6,0.5,3.5,1.5l2.1,2.1V62L61.6,62z"/>
<path class="st1" d="M42,41V29h20c0,6.6-5.4,12-12,12l0,0H42z"/>
<path class="st1" d="M18,41v-8H2v1c0,3.9,3.1,7,7,7H18z"/>
<rect class="st1" height="4" width="2" x="7" y="29"/>
<rect class="st1" height="4" width="2" x="11" y="29"/>
<rect class="st7" height="8" width="8" x="22" y="33"/>
<rect class="st8" height="8" width="8" x="26" y="25"/>
<rect class="st9" height="8" width="8" x="30" y="33"/>
<rect class="st10" height="21" width="4" x="56" y="2"/>
<rect class="st10" height="4" width="26" x="26" y="2"/>
<rect class="st11" height="12" width="4" x="42" y="29"/>
<path class="st5" d="M4,12c-1.1,0-2-0.9-2-2s0.9-2,2-2c0.2,0,0.4,0,0.6,0.1C3.4,6.2,4,3.8,5.9,2.6s4.3-0.6,5.5,1.3   C11.8,4.5,12,5.2,12,6c0,0.1,0,0.1,0,0.2C12.3,6.1,12.7,6,13,6c1.7,0,3,1.3,3,3s-1.3,3-3,3H4z"/>
</g>
</svg>