<?xml version="1.0" encoding="iso-8859-1"?>
<!-- Uploaded to: SVG Repo, www.svgrepo.com, Generator: SVG Repo Mixer Tools -->
<svg height="800px" width="800px" version="1.1" id="Layer_1" xmlns="http://www.w3.org/2000/svg" xmlns:xlink="http://www.w3.org/1999/xlink" 
	 viewBox="0 0 512.898 512.898" xml:space="preserve">
<g transform="translate(1 1)">
	<g>
		<path style="fill:#FFE100;" d="M97.807,57.835H34.93l242.526,251.509h26.947v-53.895L97.807,57.835z"/>
		<path style="fill:#FFE100;" d="M43.912,138.677c-5.389,0-8.982-3.593-8.982-8.982v-71.86c0-5.389,3.593-8.982,8.982-8.982
			s8.982,3.593,8.982,8.982v71.86C52.895,135.084,49.302,138.677,43.912,138.677z"/>
		<path style="fill:#FFE100;" d="M43.912,192.572c-19.761,0-35.93-16.168-35.93-35.93c0-5.389,3.593-8.982,8.982-8.982
			s8.982,3.593,8.982,8.982c0,9.881,8.084,17.965,17.965,17.965s17.965-8.084,17.965-17.965s-8.084-17.965-17.965-17.965
			c-5.389,0-8.982-3.593-8.982-8.982s3.593-8.982,8.982-8.982c19.761,0,35.93,16.168,35.93,35.93S63.674,192.572,43.912,192.572z"/>
		<path style="fill:#FFE100;" d="M469.681,240.179l-78.147-86.232c-3.593-3.593,17.067-6.288,11.677-6.288h-82.639
			c-8.982,0-16.168,7.186-16.168,16.168v145.516H34.93v77.249c0,7.186,5.389,12.575,12.575,12.575h14.372
			c0-29.642-2.695-53.895,26.947-53.895s53.895,24.253,53.895,53.895h161.684h44.912c0-29.642,24.253-53.895,53.895-53.895
			c29.642,0,44.912,24.253,44.912,53.895h14.372c7.186,0,12.575-5.389,12.575-12.575V254.551
			C475.07,249.161,473.274,244.67,469.681,240.179"/>
	</g>
	<path style="fill:#FFFFFF;" d="M34.93,386.593v-77.249H7.982v77.249c0,7.186,5.389,12.575,12.575,12.575H34.93
		c0-2.695,0-5.389,0.898-8.982C34.93,389.288,34.93,387.491,34.93,386.593"/>
	<path style="fill:#FFA800;" d="M496.628,240.179l-78.147-86.232c-3.593-4.491-8.982-6.288-14.372-7.186
		c0,0.898-16.168,2.695-12.575,7.186l78.147,86.232c3.593,3.593,5.389,8.982,5.389,14.372v132.042
		c0,7.186-5.389,12.575-12.575,12.575h26.947c7.186,0,12.575-5.389,12.575-12.575V254.551
		C502.018,249.161,500.221,243.772,496.628,240.179"/>
	<path style="fill:#63D3FD;" d="M391.533,154.846c-3.593-4.491-9.881-7.186-15.27-7.186h-19.761c-3.593,0-6.288,2.695-6.288,6.288
		v95.214c0,3.593,2.695,6.288,6.288,6.288H475.07v-0.898c0-5.389-1.797-9.881-5.389-14.372L391.533,154.846z"/>
	<path style="fill:#3DB9F9;" d="M496.628,240.179l-78.147-86.232c-3.593-3.593-9.881-6.288-15.27-6.288h-26.947
		c6.288,0,11.677,2.695,15.27,7.186l78.147,86.232c3.593,3.593,5.389,8.982,5.389,14.372v0h26.947v-0.898
		C502.018,249.161,500.221,244.67,496.628,240.179"/>
	<path style="fill:#FECC00;" d="M430.158,399.168c0,29.642-17.965,53.895-40.421,53.895s-40.421-24.253-40.421-53.895
		c0-29.642,17.965-53.895,40.421-53.895S430.158,369.526,430.158,399.168"/>
	<path style="fill:#FFA800;" d="M403.211,345.274c-2.695,0-5.389,0-8.084,0.898c19.761,3.593,35.032,26.049,35.032,52.996
		c0,26.947-15.27,49.404-35.032,52.997c2.695,0,5.389,0.898,8.084,0.898c29.642,0,53.895-24.253,53.895-53.895
		C457.105,369.526,432.853,345.274,403.211,345.274"/>
	<path style="fill:#FECC00;" d="M115.772,399.168c0,29.642-17.965,53.895-40.421,53.895S34.93,428.811,34.93,399.168
		c0-29.642,17.965-53.895,40.421-53.895S115.772,369.526,115.772,399.168"/>
	<path style="fill:#FFA800;" d="M88.825,345.274c-2.695,0-5.389,0-8.084,0.898c19.761,3.593,35.032,26.049,35.032,52.996
		c0,26.947-15.27,49.404-35.032,52.997c2.695,0.898,5.389,0.898,8.084,0.898c29.642,0,53.895-24.253,53.895-53.895
		C142.719,369.526,118.467,345.274,88.825,345.274"/>
	<path d="M403.211,462.046c-35.032,0-62.877-27.846-62.877-62.877s27.846-62.877,62.877-62.877s62.877,27.846,62.877,62.877
		S438.242,462.046,403.211,462.046z M403.211,354.256c-25.151,0-44.912,19.761-44.912,44.912c0,25.151,19.761,44.912,44.912,44.912
		c25.151,0,44.912-19.761,44.912-44.912C448.123,374.018,428.361,354.256,403.211,354.256z"/>
	<path d="M88.825,462.046c-35.032,0-62.877-27.846-62.877-62.877s27.846-62.877,62.877-62.877s62.877,27.846,62.877,62.877
		S123.856,462.046,88.825,462.046z M88.825,354.256c-25.151,0-44.912,19.761-44.912,44.912c0,25.151,19.761,44.912,44.912,44.912
		s44.912-19.761,44.912-44.912C133.737,374.018,113.975,354.256,88.825,354.256z"/>
	<path d="M502.018,309.344h-53.895c-5.389,0-8.982-3.593-8.982-8.982c0-5.389,3.593-8.982,8.982-8.982h53.895
		c5.389,0,8.982,3.593,8.982,8.982C511,305.751,507.407,309.344,502.018,309.344z"/>
	<path d="M489.442,408.151h-41.319v-8.982c0-25.151-19.761-44.912-44.912-44.912c-25.151,0-44.912,19.761-44.912,44.912v8.982
		H133.737v-8.982c0-25.151-19.761-44.912-44.912-44.912s-44.912,19.761-44.912,44.912v8.982H20.558
		C8.881,408.151-1,398.27-1,386.593v-86.232h296.421V163.828c0-13.474,10.779-25.151,25.151-25.151h82.639
		c8.084,0,16.168,3.593,22.456,9.881l78.147,86.232c5.389,5.389,8.084,12.575,8.084,20.66v132.042
		C511,398.27,501.119,408.151,489.442,408.151z M465.189,390.186h24.253c1.796,0,3.593-1.797,3.593-3.593V254.551
		c0-2.695-0.898-6.288-3.593-8.084l0,0l-77.249-86.232c-2.695-2.695-5.389-3.593-8.982-3.593h-82.639
		c-3.593,0-7.186,2.695-7.186,7.186v154.498H16.965v68.267c0,1.796,1.796,3.593,3.593,3.593h6.288
		c4.491-30.54,30.54-53.895,61.979-53.895s57.488,23.354,61.979,53.895h189.53c4.491-30.54,30.54-53.895,61.979-53.895
		S460.698,359.646,465.189,390.186z"/>
	<path d="M106.789,399.168c0,9.881-8.084,17.965-17.965,17.965s-17.965-8.084-17.965-17.965c0-9.881,8.084-17.965,17.965-17.965
		S106.789,389.288,106.789,399.168"/>
	<path d="M421.175,399.168c0,9.881-8.084,17.965-17.965,17.965c-9.881,0-17.965-8.084-17.965-17.965
		c0-9.881,8.084-17.965,17.965-17.965C413.091,381.204,421.175,389.288,421.175,399.168"/>
	<path d="M502.018,264.432H355.604c-8.084,0-15.27-7.186-15.27-15.27v-95.214c0-8.084,7.186-15.27,15.27-15.27h47.607
		c8.084,0,16.168,3.593,22.456,9.881l78.147,86.232c5.389,5.389,8.084,12.575,8.084,20.66v8.982H502.018z M358.298,246.467h131.144
		l0,0l-77.249-86.232c-2.695-2.695-5.389-3.593-8.982-3.593h-44.912V246.467z"/>
	<path d="M34.93,138.677c-5.389,0-8.982-3.593-8.982-8.982v-71.86c0-5.389,3.593-8.982,8.982-8.982s8.982,3.593,8.982,8.982v71.86
		C43.912,135.084,40.319,138.677,34.93,138.677z"/>
	<path d="M34.93,192.572c-19.761,0-35.93-16.168-35.93-35.93c0-5.389,3.593-8.982,8.982-8.982s8.982,3.593,8.982,8.982
		c0,9.881,8.084,17.965,17.965,17.965s17.965-8.084,17.965-17.965s-8.084-17.965-17.965-17.965c-5.389,0-8.982-3.593-8.982-8.982
		s3.593-8.982,8.982-8.982c19.761,0,35.93,16.168,35.93,35.93S54.691,192.572,34.93,192.572z"/>
	<path d="M304.404,318.326h-26.947c-2.695,0-4.491-0.898-6.288-2.695L28.642,64.123c-2.695-2.695-3.593-6.288-1.796-9.881
		c1.796-3.593,4.491-5.389,8.084-5.389h62.877c2.695,0,4.491,0.898,6.288,2.695l206.596,197.614
		c1.797,1.796,2.695,3.593,2.695,6.288v53.895C313.386,314.733,309.793,318.326,304.404,318.326z M281.049,300.361h14.372v-41.319
		L94.214,66.818H56.488L281.049,300.361z"/>
</g>
</svg>