<?xml version="1.0" encoding="iso-8859-1"?>
<!-- Uploaded to: SVG Repo, www.svgrepo.com, Generator: SVG Repo Mixer Tools -->
<svg version="1.1" id="Layer_1" xmlns="http://www.w3.org/2000/svg" xmlns:xlink="http://www.w3.org/1999/xlink" 
	 viewBox="0 0 512 512" xml:space="preserve">
<rect x="122.207" y="10.199" style="fill:#F2F2F2;" width="219.874" height="124.461"/>
<g>
	<path style="fill:#FFAD61;" d="M122.21,134.655l9.465,141.029c0.51,7.599,6.823,13.503,14.44,13.503h172.063
		c7.617,0,13.93-5.903,14.44-13.503l9.465-141.029H122.21z"/>
	<rect x="148.144" y="289.188" style="fill:#FFAD61;" width="168.011" height="212.613"/>
</g>
<rect x="162.657" y="49.884" style="fill:#73C1DD;" width="138.974" height="45.356"/>
<g>
	<path style="fill:#4D3D36;" d="M301.634,39.685H162.658c-5.632,0-10.199,4.566-10.199,10.199v45.36
		c0,5.633,4.567,10.199,10.199,10.199h138.975c5.632,0,10.199-4.566,10.199-10.199v-45.36
		C311.833,44.251,307.267,39.685,301.634,39.685z M291.435,85.045H172.858V60.084h118.577V85.045z"/>
	<path style="fill:#4D3D36;" d="M112.035,135.338l9.464,141.032c0.676,10.056,7.39,18.414,16.441,21.616v203.815
		c0,5.633,4.567,10.199,10.199,10.199h168.015c5.632,0,10.199-4.566,10.199-10.199v-35.352c0.113-0.15,0.236-0.288,0.342-0.445
		c43.155-64.231,73.295-179.162,73.295-279.491c0-85.753-37.29-115.202-47.708-121.754v-54.56C352.281,4.566,347.714,0,342.082,0
		H122.21c-5.632,0-10.199,4.566-10.199,10.199v124.456L112.035,135.338z M132.41,20.398h199.473v104.057H132.41V20.398z
		 M146.115,278.989c-2.241,0-4.113-1.752-4.264-3.987l-8.734-130.148h198.058L322.442,275c-0.15,2.236-2.023,3.988-4.264,3.988
		H146.115V278.989z M305.955,491.602H269.83v-89.365c0-5.633-4.567-10.199-10.199-10.199c-5.632,0-10.199,4.566-10.199,10.199
		v89.365h-34.569v-89.365c0-5.633-4.567-10.199-10.199-10.199s-10.199,4.566-10.199,10.199v89.365h-36.126V299.387h147.616v192.214
		H305.955z M352.281,134.655V91.642c2.124,2.414,4.397,5.327,6.685,8.811c9.41,14.333,20.626,40.898,20.626,86.059
		c0,83.052-21.195,176.13-53.238,239.51V297.985c9.052-3.202,15.766-11.56,16.441-21.617l9.464-141.029L352.281,134.655z"/>
	<path style="fill:#4D3D36;" d="M158.509,177.005h84.008c5.632,0,10.199-4.566,10.199-10.199s-4.567-10.199-10.199-10.199h-84.008
		c-5.632,0-10.199,4.566-10.199,10.199S152.877,177.005,158.509,177.005z"/>
	<path style="fill:#4D3D36;" d="M275.705,177.005h8.298c5.632,0,10.199-4.566,10.199-10.199s-4.567-10.199-10.199-10.199h-8.298
		c-5.632,0-10.199,4.566-10.199,10.199S270.073,177.005,275.705,177.005z"/>
</g>
</svg>