<?xml version="1.0" encoding="iso-8859-1"?>
<!-- Uploaded to: SVG Repo, www.svgrepo.com, Generator: SVG Repo Mixer Tools -->
<svg height="800px" width="800px" version="1.1" id="Layer_1" xmlns="http://www.w3.org/2000/svg" xmlns:xlink="http://www.w3.org/1999/xlink" 
	 viewBox="0 0 509 509" xml:space="preserve">
<circle style="fill:#886C60;" cx="254.5" cy="254.5" r="254.5"/>
<path style="fill:#DEDEDF;" d="M114,222.7h-11.6c-3.4,0-6.1-2.7-6.1-6.1v-65.5c0-3.4,2.7-6.1,6.1-6.1H114v-5.8h-11.6
	c-6.6,0-11.9,5.3-11.9,11.9v65.5c0,6.6,5.3,11.9,11.9,11.9H114V222.7z"/>
<path style="fill:#F1F3F7;" d="M100.6,154.3H86.2c-2.5,0-4.5,2-4.5,4.5V209c0,2.5,2,4.5,4.5,4.5h14.4c2.5,0,4.5-2,4.5-4.5v-50.2
	C105.1,156.3,103.1,154.3,100.6,154.3z"/>
<path style="fill:#DEDEDF;" d="M395,222.7h11.6c3.4,0,6.1-2.7,6.1-6.1v-65.5c0-3.4-2.7-6.1-6.1-6.1H395v-5.8h11.6
	c6.6,0,11.9,5.3,11.9,11.9v65.5c0,6.6-5.3,11.9-11.9,11.9H395V222.7z"/>
<path style="fill:#F1F3F7;" d="M408.4,154.3h14.4c2.5,0,4.5,2,4.5,4.5V209c0,2.5-2,4.5-4.5,4.5h-14.4c-2.5,0-4.5-2-4.5-4.5v-50.2
	C403.9,156.3,405.9,154.3,408.4,154.3z"/>
<g>
	<path style="fill:#393D47;" d="M91.8,383v51.5c0,3.7,3,6.8,6.8,6.8h36.8c3.7,0,6.7-3,6.7-6.8v-51.6H91.8V383z"/>
	<path style="fill:#393D47;" d="M366.9,383v51.5c0,3.7,3,6.8,6.8,6.8h36.8c3.7,0,6.7-3,6.7-6.8v-51.6h-50.3V383z"/>
</g>
<path style="fill:#4F5565;" d="M432.2,387.8H76.8c-1.5,0-2.7-1.2-2.7-2.7v-42.6c0-1.5,1.2-2.7,2.7-2.7h355.3c1.5,0,2.7,1.2,2.7,2.7
	v42.6C434.9,386.6,433.7,387.8,432.2,387.8z"/>
<path style="fill:#FFAA00;" d="M411.5,261.8L411.5,261.8c-8-3.8-13.2-11.8-13.2-20.7V119.3c0-22.6-18.2-45.8-41-49.7
	c-68-11.5-137.5-11.5-205.6,0c-22.7,4-41,27.1-41,49.7c0,40.6,0,81.2,0,121.8c0,8.9-5.1,17-13.2,20.7l0,0
	c-8,3.8-13.2,11.8-13.2,20.7v57.2h26.4l0,0c95.9,0,191.7,0,287.6,0l0,0h26.4v-57.2C424.7,273.6,419.5,265.5,411.5,261.8z"/>
<path style="fill:#FF8500;" d="M314.3,251.2H194.7c-9.7,0-17.6,7.9-17.6,17.6v71h154.7v-71C331.9,259,324,251.2,314.3,251.2z"/>
<path style="fill:#BDBDBE;" d="M311.1,265.9H197.9c-2.5,0-4.5,2-4.5,4.5v69.3h122.1v-69.3C315.6,268,313.6,265.9,311.1,265.9z"/>
<g>
	<path style="fill:#646B79;" d="M211.7,278.2c-2,0-3.7,1.6-3.7,3.7v41.8c0,2,1.6,3.7,3.7,3.7c2,0,3.7-1.6,3.7-3.7v-41.8
		C215.3,279.9,213.7,278.2,211.7,278.2z"/>
	<path style="fill:#646B79;" d="M233.1,278.2c-2,0-3.7,1.6-3.7,3.7v41.8c0,2,1.6,3.7,3.7,3.7c2,0,3.7-1.6,3.7-3.7v-41.8
		C236.8,279.9,235.1,278.2,233.1,278.2z"/>
	<path style="fill:#646B79;" d="M254.5,278.2c-2,0-3.7,1.6-3.7,3.7v41.8c0,2,1.6,3.7,3.7,3.7c2,0,3.7-1.6,3.7-3.7v-41.8
		C258.2,279.9,256.5,278.2,254.5,278.2z"/>
	<path style="fill:#646B79;" d="M275.9,278.2c-2,0-3.7,1.6-3.7,3.7v41.8c0,2,1.6,3.7,3.7,3.7c2,0,3.7-1.6,3.7-3.7v-41.8
		C279.6,279.9,278,278.2,275.9,278.2z"/>
	<path style="fill:#646B79;" d="M297.3,278.2c-2,0-3.7,1.6-3.7,3.7v41.8c0,2,1.6,3.7,3.7,3.7c2,0,3.7-1.6,3.7-3.7v-41.8
		C301,279.9,299.4,278.2,297.3,278.2z"/>
</g>
<g>
	<path style="fill:#F8B517;" d="M97.5,261.8c-8,3.8-13.2,11.8-13.2,20.7v57.2h26.4c22.1,0,44.3,0,66.4,0c0-14.8,0-35.6,0-50
		C177.1,264.8,97.5,261.8,97.5,261.8z"/>
	<path style="fill:#F8B517;" d="M411.5,261.8c0,0-79.6,3-79.6,27.9c0,14.5,0,35.2,0,50c22.1,0,44.3,0,66.4,0h26.4v-57.2
		C424.7,273.6,419.5,265.5,411.5,261.8z"/>
</g>
<path style="fill:#F0582F;" d="M102.9,292.3c-4.4,0-8,3.6-8,8v13c0,4.4,3.6,8,8,8s8-3.6,8-8v-13
	C110.9,295.9,107.3,292.3,102.9,292.3z"/>
<circle style="fill:#FFFFFF;" cx="140.9" cy="306.8" r="17.6"/>
<path style="fill:#F0582F;" d="M406.1,292.3c4.4,0,8,3.6,8,8v13c0,4.4-3.6,8-8,8s-8-3.6-8-8v-13
	C398.1,295.9,401.7,292.3,406.1,292.3z"/>
<circle style="fill:#FFFFFF;" cx="368.1" cy="306.8" r="17.6"/>
<g>
	<path style="fill:#FFB533;" d="M235,154.3h-93.6c-6.2,0-11.2,5-11.2,11.2v53.8c0,6.2,5,11.2,11.2,11.2H235c6.2,0,11.2-5,11.2-11.2
		v-53.8C246.3,159.3,241.3,154.3,235,154.3z"/>
	<path style="fill:#FFB533;" d="M367.6,154.3H274c-6.2,0-11.2,5-11.2,11.2v53.8c0,6.2,5,11.2,11.2,11.2h93.6c6.2,0,11.2-5,11.2-11.2
		v-53.8C378.8,159.3,373.8,154.3,367.6,154.3z"/>
</g>
<g>
	<path style="fill:#F49600;" d="M235,140.2h-93.6c-6.2,0-11.2,5-11.2,11.2v53.8c0,6.2,5,11.2,11.2,11.2H235c6.2,0,11.2-5,11.2-11.2
		v-53.7C246.3,145.3,241.3,140.2,235,140.2z"/>
	<path style="fill:#F49600;" d="M367.6,140.2H274c-6.2,0-11.2,5-11.2,11.2v53.8c0,6.2,5,11.2,11.2,11.2h93.6c6.2,0,11.2-5,11.2-11.2
		v-53.7C378.8,145.3,373.8,140.2,367.6,140.2z"/>
</g>
<g>
	<path style="fill:#393D47;" d="M235,147.4h-93.6c-6.2,0-11.2,5-11.2,11.2v53.9c0,6.2,5,11.2,11.2,11.2H235c6.2,0,11.2-5,11.2-11.2
		v-53.8C246.3,152.5,241.3,147.4,235,147.4z"/>
	<path style="fill:#393D47;" d="M367.6,147.4H274c-6.2,0-11.2,5-11.2,11.2v53.9c0,6.2,5,11.2,11.2,11.2h93.6c6.2,0,11.2-5,11.2-11.2
		v-53.8C378.8,152.5,373.8,147.4,367.6,147.4z"/>
</g>
<path style="fill:#414753;" d="M307.4,90.2H195.9c-10.3,0-18.7,8.4-18.7,18.7s8.4,18.7,18.7,18.7h111.5c10.3,0,18.7-8.4,18.7-18.7
	S317.7,90.2,307.4,90.2z"/>
<g>
	<circle style="fill:#FCFCFD;" cx="151.2" cy="109" r="11.2"/>
	<circle style="fill:#FCFCFD;" cx="352.1" cy="109" r="11.2"/>
</g>
<g>
	<circle style="fill:#6EB1E1;" cx="109.8" cy="363.7" r="9.7"/>
	<circle style="fill:#6EB1E1;" cx="399.2" cy="363.7" r="9.7"/>
</g>
</svg>