<?xml version="1.0" encoding="iso-8859-1"?>
<!-- Uploaded to: SVG Repo, www.svgrepo.com, Generator: SVG Repo Mixer Tools -->
<svg version="1.1" id="Layer_1" xmlns="http://www.w3.org/2000/svg" xmlns:xlink="http://www.w3.org/1999/xlink" 
	 viewBox="0 0 512 512" xml:space="preserve">
<polygon style="fill:#027ACD;" points="512,273.546 428.101,189.175 367.335,189.175 276.155,222.705 255.255,299.174 
	276.155,369.16 512,369.16 "/>
<polygon style="fill:#3EAFF5;" points="40.309,309.435 40.309,369.16 276.155,369.16 276.155,222.705 "/>
<polygon style="fill:#FF9500;" points="470.05,205.314 449.151,247.024 470.05,273.546 512,273.546 "/>
<polygon style="fill:#FFC222;" points="460.128,189.175 428.101,189.175 428.101,273.546 470.05,273.546 470.05,205.314 "/>
<polygon style="fill:#D4D4D4;" points="367.335,86.458 336.724,86.458 313.241,197.947 336.724,309.435 367.335,309.435 "/>
<polygon style="fill:#EDEDED;" points="306.112,86.458 282.629,197.947 306.112,309.435 336.724,309.435 336.724,86.458 "/>
<polygon style="fill:#D4D4D4;" points="306.112,86.458 275.501,86.458 252.018,197.947 275.501,309.435 306.112,309.435 "/>
<polygon style="fill:#EDEDED;" points="244.89,86.458 221.407,197.947 244.89,309.435 275.501,309.435 275.501,86.458 "/>
<polygon style="fill:#D4D4D4;" points="244.89,86.458 214.278,86.458 190.795,197.947 214.278,309.435 244.89,309.435 "/>
<polygon style="fill:#EDEDED;" points="183.667,86.458 160.184,197.947 183.667,309.435 214.278,309.435 214.278,86.458 "/>
<polygon style="fill:#D4D4D4;" points="183.667,86.458 153.056,86.458 129.574,197.947 153.056,309.435 183.667,309.435 "/>
<polygon style="fill:#EDEDED;" points="122.445,86.458 98.962,197.947 122.445,309.435 153.056,309.435 153.056,86.458 "/>
<polygon style="fill:#D4D4D4;" points="122.445,86.458 91.834,86.458 68.351,197.947 91.834,309.435 122.445,309.435 "/>
<polygon style="fill:#EDEDED;" points="61.223,86.458 37.74,197.947 61.223,309.435 91.834,309.435 91.834,86.458 "/>
<polygon style="fill:#D4D4D4;" points="61.223,86.458 30.611,86.458 7.128,197.947 30.611,309.435 61.223,309.435 "/>
<rect y="86.456" style="fill:#EDEDED;" width="30.616" height="222.981"/>
<path style="fill:#6F6F6F;" d="M130.366,345.589l-10.45,41.452l10.45,38.502c22.044,0,39.978-17.934,39.978-39.978
	S152.409,345.589,130.366,345.589z"/>
<path style="fill:#9D9D9D;" d="M90.388,385.566c0,22.044,17.934,39.978,39.978,39.978v-79.956
	C108.321,345.589,90.388,363.522,90.388,385.566z"/>
<path style="fill:#D4D4D4;" d="M130.366,366.486l-10.45,19.08l10.45,19.08c10.52,0,19.08-8.559,19.08-19.08
	C149.445,375.045,140.886,366.486,130.366,366.486z"/>
<path style="fill:#EDEDED;" d="M111.286,385.566c0,10.52,8.559,19.08,19.08,19.08v-38.16
	C119.845,366.486,111.286,375.045,111.286,385.566z"/>
<path style="fill:#6F6F6F;" d="M237.924,345.589l-10.45,41.452l10.45,38.502c22.044,0,39.978-17.934,39.978-39.978
	S259.969,345.589,237.924,345.589z"/>
<path style="fill:#9D9D9D;" d="M197.947,385.566c0,22.044,17.934,39.978,39.978,39.978v-79.956
	C215.88,345.589,197.947,363.522,197.947,385.566z"/>
<path style="fill:#D4D4D4;" d="M237.924,366.486l-10.45,19.08l10.45,19.08c10.52,0,19.08-8.559,19.08-19.08
	C257.004,375.045,248.444,366.486,237.924,366.486z"/>
<path style="fill:#EDEDED;" d="M218.844,385.566c0,10.52,8.559,19.08,19.08,19.08v-38.16
	C227.404,366.486,218.844,375.045,218.844,385.566z"/>
<path style="fill:#6F6F6F;" d="M438.471,345.589l-10.45,41.452l10.45,38.502c22.044,0,39.978-17.934,39.978-39.978
	S460.515,345.589,438.471,345.589z"/>
<path style="fill:#9D9D9D;" d="M398.493,385.566c0,22.044,17.934,39.978,39.978,39.978v-79.956
	C416.426,345.589,398.493,363.522,398.493,385.566z"/>
<path style="fill:#D4D4D4;" d="M438.471,366.486l-10.45,19.08l10.45,19.08c10.52,0,19.08-8.559,19.08-19.08
	C457.55,375.045,448.991,366.486,438.471,366.486z"/>
<path style="fill:#EDEDED;" d="M419.391,385.566c0,10.52,8.559,19.08,19.08,19.08v-38.16
	C427.949,366.486,419.391,375.045,419.391,385.566z"/>
</svg>