<?xml version="1.0" encoding="iso-8859-1"?>
<!-- Uploaded to: SVG Repo, www.svgrepo.com, Generator: SVG Repo Mixer Tools -->
<svg version="1.1" id="Layer_1" xmlns="http://www.w3.org/2000/svg" xmlns:xlink="http://www.w3.org/1999/xlink" 
	 viewBox="0 0 512 512" xml:space="preserve">
<polygon style="fill:#6F6F6F;" points="96.932,128.493 96.932,102.208 81.259,102.208 70.809,142.106 81.259,218.123 
	96.932,218.123 96.932,159.84 123.217,159.84 123.217,128.493 "/>
<polygon style="fill:#9D9D9D;" points="65.585,102.208 65.585,128.493 39.299,128.493 39.299,159.84 65.585,159.84 65.585,218.123 
	81.259,218.123 81.259,102.208 "/>
<polygon style="fill:#D4D4D4;" points="138.45,186.774 81.259,186.774 58.393,306.828 138.45,306.828 "/>
<rect x="24.064" y="186.776" style="fill:#EDEDED;" width="57.191" height="120.048"/>
<polygon style="fill:#D61322;" points="288.926,157.239 256,157.239 235.101,243.99 288.926,223.091 "/>
<polygon style="fill:#EC2533;" points="223.074,157.239 202.175,243.99 256,243.99 256,157.239 "/>
<polygon style="fill:#D61322;" points="223.074,157.239 190.149,157.239 169.25,243.99 223.074,223.091 "/>
<polygon style="fill:#EC2533;" points="157.224,157.239 157.224,223.091 190.149,243.99 190.149,157.239 "/>
<polygon style="fill:#C2000A;" points="354.776,223.091 321.85,223.091 300.951,256.016 321.85,288.941 354.776,288.941 "/>
<polygon style="fill:#D61322;" points="288.926,223.091 268.026,256.016 288.926,288.941 321.85,288.941 321.85,223.091 "/>
<polygon style="fill:#C2000A;" points="288.926,223.091 256,223.091 235.101,256.016 256,288.941 288.926,288.941 "/>
<polygon style="fill:#D61322;" points="223.074,223.091 202.175,256.016 223.074,288.941 256,288.941 256,223.091 "/>
<polygon style="fill:#C2000A;" points="223.074,223.091 190.149,223.091 169.25,256.016 190.149,288.941 223.074,288.941 "/>
<rect x="157.226" y="223.086" style="fill:#D61322;" width="32.926" height="65.849"/>
<polygon style="fill:#6F6F6F;" points="512,263.784 340.542,263.784 332.553,288.941 256,288.941 235.101,343.535 256,409.792 
	465.635,409.792 "/>
<polygon style="fill:#9D9D9D;" points="0,288.941 38.376,409.792 256,409.792 256,288.941 "/>
<polygon style="fill:#FF9500;" points="402.029,298.916 384.826,298.916 374.376,314.59 384.826,330.263 402.029,330.263 "/>
<rect x="367.626" y="298.914" style="fill:#FFC222;" width="17.203" height="31.347"/>
<polygon style="fill:#FF9500;" points="456.12,298.916 438.917,298.916 428.467,314.59 438.917,330.263 456.12,330.263 "/>
<rect x="421.71" y="298.914" style="fill:#FFC222;" width="17.203" height="31.347"/>
</svg>