<?xml version="1.0" encoding="iso-8859-1"?>
<!-- Uploaded to: SVG Repo, www.svgrepo.com, Generator: SVG Repo Mixer Tools -->
<svg height="800px" width="800px" version="1.1" id="Layer_1" xmlns="http://www.w3.org/2000/svg" xmlns:xlink="http://www.w3.org/1999/xlink" 
	 viewBox="0 0 512 512" xml:space="preserve">
<g transform="translate(1 1)">
	<path style="fill:#FFE100;" d="M113.759,502.172h-8.828c-15.007,0-26.483-11.476-26.483-26.483v-35.31h61.793v35.31
		C140.241,490.697,128.766,502.172,113.759,502.172"/>
	<path style="fill:#FFFFFF;" d="M78.448,475.69v-35.31H51.966v35.31c0,15.007,11.476,26.483,26.483,26.483h26.483
		C89.924,502.172,78.448,490.697,78.448,475.69"/>
	<path style="fill:#FFE100;" d="M387.414,502.172h8.828c15.007,0,26.483-11.476,26.483-26.483v-35.31h-61.793v35.31
		C360.931,490.697,372.407,502.172,387.414,502.172"/>
	<path style="fill:#FFA800;" d="M422.724,475.69v-35.31h26.483v35.31c0,15.007-11.476,26.483-26.483,26.483h-26.483
		C411.248,502.172,422.724,490.697,422.724,475.69"/>
	<path style="fill:#FFE100;" d="M431.552,440.379H78.448c-9.71,0-17.655-7.945-17.655-17.655v-17.655
		c0-9.71,7.945-17.655,17.655-17.655h353.103c9.71,0,17.655,7.945,17.655,17.655v17.655
		C449.207,432.434,441.262,440.379,431.552,440.379"/>
	<path style="fill:#FFA800;" d="M458.034,387.414h-26.483c9.71,0,17.655,7.945,17.655,17.655v17.655
		c0,9.71-7.945,17.655-17.655,17.655h26.483c9.71,0,17.655-7.945,17.655-17.655v-17.655
		C475.69,395.359,467.745,387.414,458.034,387.414"/>
	<path style="fill:#FFFFFF;" d="M60.793,422.724v-17.655c0-9.71,7.945-17.655,17.655-17.655H51.966
		c-9.71,0-17.655,7.945-17.655,17.655v17.655c0,9.71,7.945,17.655,17.655,17.655h26.483
		C68.738,440.379,60.793,432.434,60.793,422.724"/>
	<path style="fill:#FFE100;" d="M413.897,387.414H96.103V272.655l22.069-35.31H392.71l22.069,35.31v114.759H413.897z"/>
	<path style="fill:#FFFFFF;" d="M118.172,237.345H87.276l-26.483,35.31v114.759h35.31V272.655L118.172,237.345z"/>
	<path style="fill:#FFA800;" d="M422.724,237.345h-30.897l22.069,35.31v114.759h35.31V272.655L422.724,237.345z"/>
	<path style="fill:#63D3FD;" d="M140.241,387.414H87.276V281.483l52.966,17.655V387.414z"/>
	<path style="fill:#FFFFFF;" d="M60.793,272.655v114.759h26.483V284.131L60.793,272.655z"/>
	<path style="fill:#63D3FD;" d="M369.759,387.414h52.966V281.483l-52.966,17.655V387.414z"/>
	<path style="fill:#3DB9F9;" d="M449.207,272.655v114.759h-26.483V284.131L449.207,272.655z"/>
	<path style="fill:#FFE100;" d="M396.241,237.345H113.759l14.124-213.628c0.883-8.828,7.062-15.89,15.007-15.89h225.103
		c7.945,0,14.124,7.062,15.007,15.89L396.241,237.345z"/>
	<path style="fill:#FFFFFF;" d="M142.007,7.828h-21.186c-8.828,0-16.772,7.062-17.655,15.89l-15.89,213.628h26.483l14.124-213.628
		C127.883,14.89,134.945,7.828,142.007,7.828"/>
	<path style="fill:#FFA800;" d="M405.952,23.717c-0.883-8.828-7.945-15.89-17.655-15.89H367.11c7.945,0,14.124,7.062,15.007,15.89
		l14.124,213.628h26.483L405.952,23.717z"/>
	<path style="fill:#3DB9F9;" d="M359.165,193.207H150.834c-6.179,0-10.593-4.414-10.593-10.593V62.559
		c0-5.297,5.297-10.593,10.593-10.593h207.448c6.179,0,11.476,5.297,11.476,10.593v119.172
		C369.759,188.793,364.462,193.207,359.165,193.207"/>
	<path style="fill:#63D3FD;" d="M332.683,193.207H150.834c-6.179,0-10.593-4.414-10.593-10.593V62.559
		c0-5.297,5.297-10.593,10.593-10.593H331.8c6.179,0,11.476,5.297,11.476,10.593v119.172
		C343.276,188.793,337.979,193.207,332.683,193.207"/>
	<g>
		<path style="fill:#FFE100;" d="M96.103,122.586h-35.31c-5.297,0-8.828-3.531-8.828-8.828s3.531-8.828,8.828-8.828h35.31
			c5.297,0,8.828,3.531,8.828,8.828S101.4,122.586,96.103,122.586z"/>
		<path style="fill:#FFE100;" d="M449.207,122.586h-35.31c-5.297,0-8.828-3.531-8.828-8.828s3.531-8.828,8.828-8.828h35.31
			c5.297,0,8.828,3.531,8.828,8.828S454.503,122.586,449.207,122.586z"/>
		<path style="fill:#FFE100;" d="M53.731,140.241H32.545c-3.531,0-7.062-3.531-7.062-7.062V76.683c0-3.531,3.531-7.062,7.062-7.062
			h20.303c4.414,0,7.945,3.531,7.945,7.062v55.614C60.793,136.71,57.262,140.241,53.731,140.241"/>
		<path style="fill:#FFE100;" d="M477.455,140.241h-20.303c-4.414,0-7.062-3.531-7.062-7.062V76.683
			c-0.883-3.531,2.648-7.062,6.179-7.062h20.303c4.414,0,7.945,3.531,7.945,7.062v55.614
			C484.517,136.71,480.986,140.241,477.455,140.241"/>
	</g>
	<path d="M113.759,511h-35.31c-19.421,0-35.31-15.89-35.31-35.31v-44.138h105.931v44.138C149.069,495.11,133.179,511,113.759,511z
		 M60.793,449.207v26.483c0,9.71,7.945,17.655,17.655,17.655h35.31c9.71,0,17.655-7.945,17.655-17.655v-26.483H60.793z"/>
	<path d="M422.724,511h-35.31c-19.421,0-35.31-15.89-35.31-35.31v-44.138h105.931v44.138C458.034,495.11,442.145,511,422.724,511z
		 M369.759,449.207v26.483c0,9.71,7.945,17.655,17.655,17.655h35.31c9.71,0,17.655-7.945,17.655-17.655v-26.483H369.759z"/>
	<path d="M175.552,202.034c-2.648,0-4.414-0.883-6.179-2.648c-3.531-3.531-3.531-8.828,0-12.359l61.793-61.793
		c3.531-3.531,8.828-3.531,12.359,0c3.531,3.531,3.531,8.828,0,12.359l-61.793,61.793
		C179.966,201.152,178.2,202.034,175.552,202.034z"/>
	<path d="M255,202.034c-2.648,0-4.414-0.883-6.179-2.648c-3.531-3.531-3.531-8.828,0-12.359l61.793-61.793
		c3.531-3.531,8.828-3.531,12.359,0c3.531,3.531,3.531,8.828,0,12.359l-61.793,61.793C259.414,201.152,257.648,202.034,255,202.034z
		"/>
	<path d="M96.103,113.759h-35.31c-5.297,0-8.828-3.531-8.828-8.828c0-5.297,3.531-8.828,8.828-8.828h35.31
		c5.297,0,8.828,3.531,8.828,8.828C104.931,110.228,101.4,113.759,96.103,113.759z"/>
	<path d="M53.731,149.069H32.545c-8.828,0-15.89-7.062-15.89-15.89V76.683c0-8.828,7.062-15.89,15.89-15.89h20.303
		c9.71,0,16.772,7.062,16.772,15.89v55.614C69.621,142.007,62.559,149.069,53.731,149.069z M34.31,131.414h17.655V78.448H34.31
		V131.414z"/>
	<path d="M449.207,113.759h-35.31c-5.297,0-8.828-3.531-8.828-8.828c0-5.297,3.531-8.828,8.828-8.828h35.31
		c5.297,0,8.828,3.531,8.828,8.828C458.034,110.228,454.503,113.759,449.207,113.759z"/>
	<path d="M477.455,149.069h-20.303c-8.828,0-15.89-7.062-15.89-15.89V76.683c0-8.828,7.062-15.89,15.89-15.89h20.303
		c8.828,0,15.89,7.062,15.89,15.89v55.614C493.345,142.007,486.283,149.069,477.455,149.069z M458.034,131.414h17.655V78.448
		h-17.655V131.414z"/>
	<path d="M290.31,325.621H219.69c-5.297,0-8.828-3.531-8.828-8.828s3.531-8.828,8.828-8.828h70.621c5.297,0,8.828,3.531,8.828,8.828
		S295.607,325.621,290.31,325.621z"/>
	<path d="M316.793,360.931H193.207c-5.297,0-8.828-3.531-8.828-8.828s3.531-8.828,8.828-8.828h123.586
		c5.297,0,8.828,3.531,8.828,8.828S322.09,360.931,316.793,360.931z"/>
	<path d="M432.434,246.172H77.566L95.221,23.717C96.103,9.593,107.579-1,121.703-1h267.476c14.124,0,25.6,10.593,26.483,24.717
		L432.434,246.172z M96.986,228.517h316.028L397.124,24.6c0-4.414-4.414-7.945-8.828-7.945H121.703
		c-4.414,0-8.828,3.531-8.828,7.945L96.986,228.517z"/>
	<path d="M458.034,396.241H51.966V270.007l30.897-41.49h344.276l30.897,41.49V396.241z M69.621,378.586h370.759V275.303
		l-22.069-29.131H91.69l-22.069,29.131V378.586z"/>
	<path d="M458.034,449.207H51.966c-15.007,0-26.483-11.476-26.483-26.483v-17.655c0-15.007,11.476-26.483,26.483-26.483h406.069
		c15.007,0,26.483,11.476,26.483,26.483v17.655C484.517,437.731,473.041,449.207,458.034,449.207z M51.966,396.241
		c-5.297,0-8.828,3.531-8.828,8.828v17.655c0,5.297,3.531,8.828,8.828,8.828h406.069c5.297,0,8.828-3.531,8.828-8.828v-17.655
		c0-5.297-3.531-8.828-8.828-8.828H51.966z"/>
	<path d="M359.165,202.034H150.834c-10.593,0-19.421-8.828-19.421-19.421V62.559c0-10.593,8.828-19.421,19.421-19.421h207.448
		c11.476,0,20.303,8.828,20.303,19.421v119.172C378.586,193.207,369.759,202.034,359.165,202.034z M150.834,60.793
		c-0.883,0-1.766,0.883-1.766,1.766v119.172c0,0.883,0.883,1.766,1.766,1.766h207.448c0.883,0,1.766-0.883,1.766-1.766V62.559
		c0.883-0.883,0-1.766-0.883-1.766H150.834z"/>
	<path d="M140.241,396.241H60.793c-5.297,0-8.828-3.531-8.828-8.828V272.655c0-2.648,1.766-5.297,3.531-7.062
		c2.648-1.766,5.297-2.648,7.945-0.883l79.448,26.483c3.531,0.883,6.179,4.414,6.179,7.945v88.276
		C149.069,392.71,145.538,396.241,140.241,396.241z M69.621,378.586h61.793v-73.269l-61.793-20.303V378.586z"/>
	<path d="M449.207,396.241h-79.448c-5.297,0-8.828-3.531-8.828-8.828v-88.276c0-3.531,2.648-7.062,6.179-7.945l79.448-26.483
		c2.648-0.883,5.297-0.883,7.945,0.883c2.648,1.766,3.531,4.414,3.531,7.062v114.759
		C458.034,392.71,454.503,396.241,449.207,396.241z M378.586,378.586h61.793v-93.572l-61.793,20.303V378.586z"/>
</g>
</svg>