<?xml version="1.0" encoding="iso-8859-1"?>
<!-- Uploaded to: SVG Repo, www.svgrepo.com, Generator: SVG Repo Mixer Tools -->
<svg version="1.1" id="Layer_1" xmlns="http://www.w3.org/2000/svg" xmlns:xlink="http://www.w3.org/1999/xlink" 
	 viewBox="0 0 512 512" xml:space="preserve">
<rect x="8.017" y="87.115" style="fill:#FF675C;" width="495.967" height="337.77"/>
<polygon style="fill:#DB3D5A;" points="29.395,403.507 29.395,87.115 8.017,87.115 8.017,424.885 503.983,424.885 503.983,403.507 
	"/>
<circle style="fill:#FAEC8E;" cx="422.747" cy="161.937" r="23.516"/>
<path style="fill:#FBC96C;" d="M433.436,176.902c-12.987,0-23.516-10.529-23.516-23.516c0-4.934,1.522-9.511,4.118-13.293
	c-8.675,3.462-14.807,11.934-14.807,21.844c0,12.987,10.529,23.516,23.516,23.516c8.053,0,15.158-4.051,19.397-10.223
	C439.45,176.304,436.514,176.902,433.436,176.902z"/>
<circle style="fill:#FAEC8E;" cx="422.747" cy="230.347" r="23.516"/>
<path style="fill:#FBC96C;" d="M433.436,245.311c-12.987,0-23.516-10.529-23.516-23.516c0-4.934,1.522-9.511,4.118-13.293
	c-8.675,3.462-14.807,11.934-14.807,21.844c0,12.987,10.529,23.516,23.516,23.516c8.053,0,15.158-4.051,19.397-10.223
	C439.45,244.714,436.514,245.311,433.436,245.311z"/>
<circle style="fill:#C1BCBF;" cx="422.747" cy="330.823" r="47.031"/>
<path style="fill:#A19AA0;" d="M435.574,365.027c-25.974,0-47.031-21.057-47.031-47.031c0-9.708,2.944-18.729,7.985-26.22
	c-12.552,8.445-20.811,22.781-20.811,39.047c0,25.974,21.057,47.031,47.031,47.031c16.265,0,30.601-8.259,39.047-20.811
	C454.302,362.083,445.283,365.027,435.574,365.027z"/>
<rect x="55.048" y="134.146" style="fill:#5CC4E0;" width="290.739" height="243.708"/>
<rect x="72.15" y="151.248" style="fill:#439EE8;" width="256.534" height="209.503"/>
<path style="fill:#FFFFFF;" d="M260.277,326.013c-0.058,0-0.115-0.001-0.173-0.002c-3.56-0.076-6.643-2.492-7.57-5.93
	l-23.781-88.328l-20.924,50.815c-1.216,2.956-4.074,4.906-7.268,4.964c-3.185,0.1-6.12-1.788-7.443-4.699l-12.93-28.446
	L160.99,311.98c-1.118,3.356-4.313,5.589-7.84,5.478c-3.536-0.105-6.587-2.514-7.506-5.929l-23.574-87.565L101,278.146
	c-1.198,3.082-4.165,5.11-7.472,5.11h-38.48c-4.427,0-8.017-3.588-8.017-8.017s3.589-8.017,8.017-8.017h32.997l27.941-71.85
	c1.256-3.229,4.446-5.277,7.904-5.1c3.46,0.187,6.408,2.575,7.309,5.921l23.005,85.447l17.232-51.694
	c1.043-3.128,3.893-5.297,7.185-5.47c3.289-0.202,6.355,1.687,7.718,4.688l13.717,30.176l22.88-55.564
	c1.308-3.178,4.501-5.173,7.924-4.948c3.429,0.218,6.336,2.598,7.23,5.915l22.801,84.687l17.396-55.089
	c1.046-3.313,4.107-5.574,7.581-5.602c3.52-0.038,6.57,2.185,7.669,5.481l10.998,33h36.977c4.427,0,8.017,3.588,8.017,8.017
	s-3.589,8.017-8.017,8.017h-42.756c-3.45,0-6.514-2.207-7.605-5.481l-5.015-15.046L267.92,320.41
	C266.865,323.751,263.767,326.013,260.277,326.013z"/>
<path d="M503.983,79.098h-347.39c-4.427,0-8.017,3.588-8.017,8.017c0,4.428,3.589,8.017,8.017,8.017h339.374v321.737H16.033V95.132
	h81.77c4.427,0,8.017-3.588,8.017-8.017c0-4.428-3.589-8.017-8.017-8.017H8.017C3.589,79.098,0,82.686,0,87.115v337.77
	c0,4.428,3.589,8.017,8.017,8.017h495.967c4.427,0,8.017-3.588,8.017-8.017V87.115C512,82.686,508.411,79.098,503.983,79.098z"/>
<path d="M47.031,134.146v243.708c0,4.428,3.589,8.017,8.017,8.017h290.739c4.427,0,8.017-3.588,8.017-8.017V134.146
	c0-4.428-3.589-8.017-8.017-8.017H55.048C50.621,126.129,47.031,129.718,47.031,134.146z M63.065,142.163H337.77v227.674H63.065
	V142.163z"/>
<path d="M367.699,330.823c0,30.353,24.695,55.048,55.048,55.048c30.353,0,55.048-24.695,55.048-55.048
	c0-30.353-24.695-55.048-55.048-55.048C392.394,275.775,367.699,300.469,367.699,330.823z M422.747,291.808
	c21.513,0,39.015,17.502,39.015,39.015c0,21.513-17.502,39.015-39.015,39.015c-21.513,0-39.015-17.502-39.015-39.015
	C383.733,309.31,401.235,291.808,422.747,291.808z"/>
<path d="M422.747,261.879c17.387,0,31.532-14.145,31.532-31.532s-14.146-31.532-31.532-31.532
	c-17.387,0-31.532,14.145-31.532,31.532S405.361,261.879,422.747,261.879z M422.747,214.848c8.546,0,15.499,6.953,15.499,15.499
	c0,8.546-6.953,15.499-15.499,15.499s-15.499-6.953-15.499-15.499C407.248,221.801,414.202,214.848,422.747,214.848z"/>
<path d="M422.747,193.47c17.387,0,31.532-14.145,31.532-31.532s-14.146-31.532-31.532-31.532c-17.387,0-31.532,14.145-31.532,31.532
	S405.361,193.47,422.747,193.47z M422.747,146.438c8.546,0,15.499,6.953,15.499,15.499c0,8.546-6.953,15.499-15.499,15.499
	s-15.499-6.953-15.499-15.499C407.248,153.392,414.202,146.438,422.747,146.438z"/>
</svg>