<?xml version="1.0" encoding="iso-8859-1"?>
<!-- Uploaded to: SVG Repo, www.svgrepo.com, Generator: SVG Repo Mixer Tools -->
<svg version="1.1" id="Layer_1" xmlns="http://www.w3.org/2000/svg" xmlns:xlink="http://www.w3.org/1999/xlink" 
	 viewBox="0 0 512 512" xml:space="preserve">
<g>
	<rect x="387.475" y="62.79" style="fill:#FFBB02;" width="41.396" height="43.508"/>
	<rect x="83.129" y="62.79" style="fill:#FFBB02;" width="41.396" height="43.508"/>
</g>
<path style="fill:#FFDD77;" d="M492.936,114.666v316.492c0,17.452-35.927,31.591-53.379,31.591H72.443
	c-17.452,0-53.379-14.14-53.379-31.591V114.666c0-17.441,35.927-31.591,53.379-31.591h367.115
	C457.009,83.074,492.936,97.225,492.936,114.666z"/>
<path style="fill:#FFCC3D;" d="M503.83,114.666v316.492c0,17.452-14.14,31.591-31.591,31.591h-32.681
	c17.452,0,31.591-14.14,31.591-31.591V114.666c0-17.441-14.14-31.591-31.591-31.591h32.681
	C489.69,83.074,503.83,97.225,503.83,114.666z"/>
<path style="fill:#F9F0B5;" d="M39.762,83.074h32.681c-17.452,0-31.591,14.151-31.591,31.591v316.492
	c0,17.452,14.14,31.591,31.591,31.591H39.762c-17.452,0-31.591-14.14-31.591-31.591V114.666C8.17,97.225,22.31,83.074,39.762,83.074
	z"/>
<path style="fill:#FF7A2F;" d="M371.472,230.718h-62.38c-5.992,0-10.894-4.902-10.894-10.894v-62.38
	c0-5.991-4.902-10.894-10.894-10.894h-62.61c-5.991,0-10.894,4.902-10.894,10.894v62.38c0,5.991-4.902,10.894-10.894,10.894h-62.38
	c-5.991,0-10.894,4.902-10.894,10.894v62.61c0,5.992,4.902,10.894,10.894,10.894h62.38c5.991,0,10.894,4.902,10.894,10.894v62.38
	c0,5.991,4.902,10.894,10.894,10.894h62.61c5.991,0,10.894-4.902,10.894-10.894v-62.38c0-5.992,4.902-10.894,10.894-10.894h62.38
	c5.991,0,10.894-4.902,10.894-10.894v-62.61C382.366,235.62,377.464,230.718,371.472,230.718z"/>
<g>
	<path style="fill:#1D2328;" d="M371.472,222.547h-62.38c-1.476,0-2.723-1.247-2.723-2.723v-62.38
		c0-10.511-8.553-19.064-19.064-19.064h-62.61c-10.511,0-19.064,8.553-19.064,19.064v62.38c0,1.476-1.247,2.723-2.723,2.723h-62.38
		c-10.511,0-19.064,8.553-19.064,19.064v62.61c0,10.511,8.553,19.064,19.064,19.064h62.38c1.476,0,2.723,1.247,2.723,2.723v62.38
		c0,10.511,8.553,19.064,19.064,19.064h62.61c10.511,0,19.064-8.553,19.064-19.064v-20.984c0-4.512-3.658-8.17-8.17-8.17
		c-4.512,0-8.17,3.658-8.17,8.17v20.984c0,1.476-1.247,2.723-2.723,2.723h-62.61c-1.476,0-2.723-1.247-2.723-2.723v-62.38
		c0-10.511-8.553-19.064-19.064-19.064h-62.38c-1.476,0-2.723-1.247-2.723-2.723v-62.61c0-1.476,1.247-2.723,2.723-2.723h62.38
		c10.511,0,19.064-8.553,19.064-19.064v-62.38c0-1.476,1.247-2.723,2.723-2.723h62.61c1.476,0,2.723,1.247,2.723,2.723v62.38
		c0,10.511,8.553,19.064,19.064,19.064h62.38c1.476,0,2.723,1.247,2.723,2.723v62.61c0,1.476-1.247,2.723-2.723,2.723h-62.38
		c-10.511,0-19.064,8.553-19.064,19.064v8.715c0,4.512,3.658,8.17,8.17,8.17c4.512,0,8.17-3.658,8.17-8.17v-8.715
		c0-1.476,1.247-2.723,2.723-2.723h62.38c10.511,0,19.064-8.553,19.064-19.064v-62.61
		C390.536,231.099,381.984,222.547,371.472,222.547z"/>
	<path style="fill:#1D2328;" d="M472.238,74.908H326.184V55.596c0-17.299-14.075-31.374-31.374-31.374h-77.621
		c-17.299,0-31.374,14.075-31.374,31.374v19.313H39.762C17.837,74.909,0,92.747,0,114.671v316.491
		c0,21.924,17.837,39.762,39.762,39.762h39.217v8.683c0,4.512,3.658,8.17,8.17,8.17s8.17-3.658,8.17-8.17v-8.683h321.362v8.683
		c0,4.512,3.658,8.17,8.17,8.17c4.512,0,8.17-3.658,8.17-8.17v-8.683h39.217c21.924,0,39.762-17.837,39.762-39.762V114.67
		C512,92.746,494.163,74.908,472.238,74.908z M202.156,55.596c0-8.289,6.744-15.033,15.033-15.033h77.621
		c8.289,0,15.033,6.743,15.033,15.033v19.313H202.156V55.596z M495.66,431.161c0,12.914-10.507,23.421-23.421,23.421H39.762
		c-12.914,0-23.421-10.507-23.421-23.421V114.67c0-12.914,10.507-23.421,23.421-23.421h432.477
		c12.914,0,23.421,10.507,23.421,23.421V431.161z"/>
	<path style="fill:#1D2328;" d="M87.149,69.462h33.354c4.512,0,8.17-3.658,8.17-8.17c0-4.512-3.658-8.17-8.17-8.17H87.149
		c-4.512,0-8.17,3.658-8.17,8.17C78.979,65.803,82.637,69.462,87.149,69.462z"/>
	<path style="fill:#1D2328;" d="M391.497,69.462h33.354c4.512,0,8.17-3.658,8.17-8.17c0-4.512-3.658-8.17-8.17-8.17h-33.354
		c-4.512,0-8.17,3.658-8.17,8.17C383.327,65.803,386.985,69.462,391.497,69.462z"/>
</g>
</svg>