<?xml version="1.0" encoding="iso-8859-1"?>
<!-- Uploaded to: SVG Repo, www.svgrepo.com, Generator: SVG Repo Mixer Tools -->
<svg version="1.1" id="Layer_1" xmlns="http://www.w3.org/2000/svg" xmlns:xlink="http://www.w3.org/1999/xlink" 
	 viewBox="0 0 512 512" xml:space="preserve">
<rect x="49.054" y="8.986" style="fill:#CFDCE5;" width="413.624" height="494.031"/>
<rect x="95.782" y="55.714" style="fill:#FFFFFF;" width="320.168" height="400.576"/>
<polygon style="fill:#FF6F52;" points="354.71,212.869 298.999,212.869 298.999,157.158 212.737,157.158 212.737,212.869 
	157.026,212.869 157.026,299.131 212.737,299.131 212.737,354.842 298.999,354.842 298.999,299.131 354.71,299.131 "/>
<path d="M462.813,0H49.186C44.222,0,40.2,4.023,40.2,8.986v494.028c0,4.963,4.022,8.986,8.986,8.986h101.587
	c4.964,0,8.986-4.023,8.986-8.986c0-4.963-4.022-8.986-8.986-8.986H58.172v-80.779h28.757v43.037c0,4.963,4.022,8.986,8.986,8.986
	h320.173c4.964,0,8.986-4.023,8.986-8.986V266.668h9.528c4.964,0,8.986-4.023,8.986-8.986s-4.022-8.986-8.986-8.986h-9.528V140.271
	c0-4.963-4.022-8.986-8.986-8.986s-8.986,4.023-8.986,8.986v108.425h-8.986c-4.964,0-8.986,4.023-8.986,8.986
	s4.022,8.986,8.986,8.986h8.986v180.634H104.901V64.7h302.201v47.414c0,4.963,4.022,8.986,8.986,8.986s8.986-4.023,8.986-8.986
	v-56.4c0-4.963-4.022-8.986-8.986-8.986H95.915c-4.964,0-8.986,4.023-8.986,8.986v43.037H58.172V17.972h395.656v476.056H180.727
	c-4.964,0-8.986,4.023-8.986,8.986c0,4.963,4.022,8.986,8.986,8.986h282.088c4.964,0,8.986-4.023,8.986-8.986V8.986
	C471.799,4.023,467.777,0,462.813,0z M86.928,332.378H58.172V179.622h28.757C86.928,179.622,86.928,332.378,86.928,332.378z
	 M58.172,395.277V350.35h28.757v44.927H58.172z M86.928,116.723v44.927H58.172v-44.927H86.928z"/>
<path d="M212.869,363.829h86.262c4.964,0,8.986-4.023,8.986-8.986v-46.725h46.725c4.964,0,8.986-4.023,8.986-8.986V212.87
	c0-4.963-4.022-8.986-8.986-8.986h-46.725v-46.725c0-4.963-4.022-8.986-8.986-8.986h-38.927c-4.964,0-8.986,4.023-8.986,8.986
	c0,4.963,4.022,8.986,8.986,8.986h29.94v46.725c0,4.963,4.022,8.986,8.986,8.986h46.725v68.29h-46.725
	c-4.964,0-8.986,4.023-8.986,8.986v46.725h-68.29v-46.725c0-4.963-4.022-8.986-8.986-8.986h-46.725v-68.29h46.725
	c4.964,0,8.986-4.023,8.986-8.986v-46.725h10.792c4.964,0,8.986-4.023,8.986-8.986c0-4.963-4.022-8.986-8.986-8.986h-19.778
	c-4.964,0-8.986,4.023-8.986,8.986v46.725h-46.725c-4.964,0-8.986,4.023-8.986,8.986v86.262c0,4.963,4.022,8.986,8.986,8.986h46.725
	v46.725C203.883,359.806,207.905,363.829,212.869,363.829z"/>
</svg>