<?xml version="1.0" encoding="iso-8859-1"?>
<!-- Uploaded to: SVG Repo, www.svgrepo.com, Generator: SVG Repo Mixer Tools -->
<svg height="800px" width="800px" version="1.1" id="Layer_1" xmlns="http://www.w3.org/2000/svg" xmlns:xlink="http://www.w3.org/1999/xlink" 
	 viewBox="0 0 512 512" xml:space="preserve">
<path style="fill:#97BAA8;" d="M187.852,432.577h216.87v70.671h-216.87V432.577L187.852,432.577z"/>
<path style="fill:#B1D7C5;" d="M161.915,98.091h269.128l-26.321,351.163h-216.87l-22.854-304.915L161.915,98.091z"/>
<path style="fill:#CAEEC5;" d="M296.834,203.503c18.104,10.647,42.615,16.461,66.269,16.548h58.798l-17.179,229.204h-216.87
	l-18.443-246.076C200.109,179.033,260.638,182.21,296.834,203.503z"/>
<path style="fill:#FFFFFF;" d="M228.909,346.347h56.751v56.878h-56.751V346.347z M337.107,260.459L296.27,299.95l39.402,40.932
	l40.84-39.492L337.107,260.459z"/>
<path style="fill:#FCE64C;" d="M80.958,126.067L192.556,14.22c30.818,30.886,30.818,80.963,0,111.847
	C161.738,156.954,111.779,156.954,80.958,126.067L80.958,126.067z"/>
<path d="M285.66,337.595h-56.751c-4.833,0-8.752,3.919-8.752,8.752v56.877c0,4.833,3.919,8.752,8.752,8.752h56.751
	c4.833,0,8.752-3.919,8.752-8.752v-56.877C294.412,341.514,290.494,337.595,285.66,337.595z M276.908,394.472h-39.247v-39.373
	h39.247V394.472z M337.264,251.708c-2.32-0.056-4.57,0.843-6.24,2.459l-40.837,39.491c-3.469,3.354-3.568,8.885-0.221,12.361
	l39.403,40.932c1.613,1.675,3.825,2.64,6.148,2.681c0.053,0.001,0.105,0.001,0.158,0.001c2.268,0,4.45-0.882,6.084-2.46
	l40.84-39.492c3.469-3.354,3.569-8.885,0.221-12.362l-39.405-40.93C341.801,252.715,339.589,251.75,337.264,251.708z
	 M335.895,328.493l-27.264-28.322l28.255-27.323l27.264,28.321L335.895,328.493z M310.224,44.174c0-4.822,3.919-8.731,8.752-8.731
	h1.928c4.833,0,8.752,3.91,8.752,8.731c0,4.822-3.919,8.731-8.752,8.731h-1.928C314.143,52.906,310.224,48.998,310.224,44.174z
	 M257.508,256.838c0-4.822,3.919-8.731,8.752-8.731h1.928c4.834,0,8.752,3.909,8.752,8.731c0,4.822-3.918,8.732-8.752,8.732h-1.928
	C261.427,265.57,257.508,261.66,257.508,256.838z M407.28,8.731c0-4.822,3.919-8.731,8.752-8.731h1.922
	c4.833,0,8.752,3.91,8.752,8.731c0,4.822-3.919,8.731-8.752,8.731h-1.922C411.198,17.463,407.28,13.554,407.28,8.731z
	 M354.914,164.518c0-4.822,3.918-8.731,8.752-8.731h1.928c4.833,0,8.752,3.91,8.752,8.731c0,4.822-3.919,8.731-8.752,8.731h-1.928
	C358.832,173.25,354.914,169.341,354.914,164.518z M230.837,289.323c4.834,0,8.752,3.909,8.752,8.731s-3.918,8.732-8.752,8.732
	h-1.928c-4.833,0-8.752-3.91-8.752-8.732s3.919-8.731,8.752-8.731H230.837z M221.383,249.428c-4.833,0-8.752-3.91-8.752-8.732
	c0-4.822,3.919-8.731,8.752-8.731h1.928c4.833,0,8.752,3.909,8.752,8.731c0,4.822-3.919,8.732-8.752,8.732H221.383z M437.459,92.138
	c-1.656-1.785-3.981-2.8-6.415-2.8H222.253c6.295-28.367-1.523-59.274-23.502-81.3c-1.642-1.646-3.871-2.571-6.195-2.571
	s-4.553,0.926-6.195,2.571L74.762,119.886c-3.409,3.417-3.409,8.948,0,12.365c16.561,16.595,38.578,25.733,61.996,25.733
	c6.93,0,13.73-0.819,20.308-2.376L179.1,449.58v53.668c0,4.833,3.919,8.752,8.752,8.752h216.87c4.833,0,8.752-3.919,8.752-8.752
	V449.58l17.155-228.876v-0.002l9.141-121.958C439.953,96.317,439.115,93.924,437.459,92.138z M93.7,125.689l98.472-98.692
	c21.397,27.574,19.459,67.564-5.811,92.889c-13.251,13.281-30.868,20.594-49.603,20.594
	C120.962,140.479,105.96,135.281,93.7,125.689z M198.751,132.249c7.556-7.573,13.435-16.198,17.649-25.406h205.21l-25.007,333.648
	l-200.652-0.278l-17.448-232.799c29.404-19.284,83.137-14.462,113.895,3.632c19.024,11.19,44.784,17.661,70.675,17.756
	c0.011,0,0.022,0,0.033,0c4.817,0,8.732-3.898,8.751-8.72c0.019-4.833-3.886-8.766-8.72-8.784
	c-22.547-0.083-45.674-5.818-61.863-15.339c-19.082-11.226-44.614-17.935-70.049-18.408c-20.666-0.393-39.351,3.331-54.164,10.616
	l-2.888-38.535C183.186,145.364,191.493,139.523,198.751,132.249z M196.604,494.496v-36.489H395.97v36.489H196.604z"/>
</svg>