<?xml version="1.0" encoding="iso-8859-1"?>
<!-- Uploaded to: SVG Repo, www.svgrepo.com, Generator: SVG Repo Mixer Tools -->
<svg version="1.1" id="Layer_1" xmlns="http://www.w3.org/2000/svg" xmlns:xlink="http://www.w3.org/1999/xlink" 
	 viewBox="0 0 512 512" xml:space="preserve">
<path style="fill:#FFC674;" d="M491.525,83.643l-53.02-51.651c-11.388-11.093-29.612-10.856-40.706,0.532l0,0
	c-11.093,11.388-10.856,29.612,0.532,40.706l1.805,1.759L264.622,214.095l49.41,48.133l135.515-139.106l1.805,1.759
	c11.388,11.093,29.612,10.856,40.706-0.532l0,0C503.151,112.961,502.913,94.737,491.525,83.643z"/>
<rect x="127.914" y="439.72" style="fill:#6D529F;" width="234.02" height="48.455"/>
<path style="fill:#E3A9ED;" d="M333.253,439.867H156.595c-71.527,0-129.512-57.984-129.512-129.513v-88.299h435.682v88.299
	C462.764,381.883,404.78,439.867,333.253,439.867z"/>
<path d="M417.213,289.559c-0.777,0-1.544-0.072-2.308-0.224c-0.755-0.153-1.497-0.376-2.202-0.67
	c-0.708-0.294-1.391-0.661-2.037-1.085c-0.636-0.423-1.248-0.917-1.79-1.459s-1.024-1.143-1.46-1.791
	c-0.424-0.636-0.789-1.319-1.083-2.036c-0.294-0.708-0.518-1.448-0.671-2.202c-0.153-0.755-0.236-1.531-0.236-2.296
	s0.082-1.543,0.236-2.308c0.153-0.754,0.377-1.484,0.671-2.202c0.294-0.707,0.659-1.389,1.083-2.025
	c0.424-0.648,0.918-1.249,1.46-1.791c0.542-0.553,1.153-1.036,1.79-1.472c0.648-0.423,1.331-0.789,2.037-1.083
	c0.707-0.294,1.447-0.517,2.202-0.67c1.519-0.307,3.084-0.307,4.603,0c0.755,0.153,1.497,0.376,2.202,0.67
	c0.708,0.294,1.391,0.661,2.037,1.083c0.636,0.436,1.248,0.918,1.79,1.472c0.542,0.542,1.036,1.143,1.46,1.791
	c0.424,0.636,0.789,1.319,1.083,2.025c0.294,0.718,0.518,1.448,0.671,2.202c0.153,0.765,0.223,1.543,0.223,2.308
	c0,0.765-0.071,1.543-0.223,2.296c-0.153,0.754-0.377,1.495-0.671,2.202c-0.294,0.717-0.659,1.4-1.083,2.036
	c-0.436,0.648-0.918,1.249-1.46,1.791c-0.542,0.542-1.153,1.036-1.79,1.459c-0.648,0.424-1.331,0.79-2.037,1.085
	c-0.707,0.294-1.447,0.517-2.202,0.67C418.744,289.488,417.979,289.559,417.213,289.559z"/>
<path style="fill:#6D529F;" d="M451.284,222.056H38.564c-14.794,0-26.789-11.994-26.789-26.789l0,0
	c0-14.794,11.994-26.789,26.789-26.789h412.72c14.794,0,26.789,11.994,26.789,26.789l0,0
	C478.072,210.063,466.079,222.056,451.284,222.056z"/>
<path d="M471.968,144.819c10.834-0.141,20.965-4.493,28.524-12.254c7.56-7.76,11.646-18,11.504-28.833s-4.493-20.963-12.254-28.523
	l-53.019-51.651c-7.761-7.561-18.03-11.673-28.834-11.504c-10.833,0.141-20.963,4.493-28.523,12.254
	c-7.56,7.76-11.646,18-11.504,28.833c0.1,7.679,2.316,15.003,6.361,21.311l-80.129,82.252H38.564
	C17.299,156.704,0,174.003,0,195.267c0,12.536,6.016,23.689,15.308,30.738v84.35c0,63.851,42.579,117.935,100.832,135.376v42.445
	c0,6.502,5.273,11.775,11.775,11.775h234.019c6.502,0,11.775-5.273,11.775-11.775v-42.445
	c58.252-17.443,100.831-71.526,100.831-135.377v-84.35c9.293-7.047,15.308-18.202,15.308-30.738
	c0-21.265-17.299-38.564-38.564-38.564H433.27l17.229-17.686C456.91,142.896,464.286,144.904,471.968,144.819z M350.158,451.495
	v24.903H139.69v-24.903h10.646c2.076,0.091,4.161,0.146,6.259,0.146h176.657c2.098,0,4.183-0.055,6.259-0.146H350.158z
	 M450.989,310.354c0,62.957-49.672,114.53-111.883,117.59H150.741c-62.211-3.06-111.883-54.633-111.883-117.59v-20.787h343.025
	c6.502,0,11.775-5.273,11.775-11.775s-5.273-11.775-11.775-11.775H38.858v-32.186h412.131V310.354z M466.297,195.267
	c0,8.278-6.735,15.013-15.013,15.013H38.564c-8.278,0-15.013-6.735-15.013-15.013c0-8.278,6.735-15.013,15.013-15.013h412.72
	C459.562,180.254,466.297,186.989,466.297,195.267z M441.111,114.906l-40.719,41.797h-63.421l71.6-73.498
	c4.538-4.657,4.44-12.111-0.217-16.65l-1.807-1.76c-3.255-3.17-5.079-7.418-5.139-11.961c-0.059-4.543,1.654-8.837,4.825-12.093
	c3.17-3.255,7.418-5.079,11.961-5.139c4.597-0.066,8.838,1.654,12.093,4.825l53.02,51.651c3.255,3.17,5.079,7.418,5.139,11.961
	c0.059,4.543-1.654,8.837-4.825,12.093c-6.547,6.718-17.335,6.86-24.057,0.313l-1.805-1.758
	C453.103,110.148,445.648,110.247,441.111,114.906z"/>
</svg>