<?xml version="1.0" encoding="iso-8859-1"?>
<!-- Uploaded to: SVG Repo, www.svgrepo.com, Generator: SVG Repo Mixer Tools -->
<svg height="800px" width="800px" version="1.1" id="Layer_1" xmlns="http://www.w3.org/2000/svg" xmlns:xlink="http://www.w3.org/1999/xlink" 
	 viewBox="0 0 392.598 392.598" xml:space="preserve">
<path style="fill:#194F82;" d="M285.382,0H107.216C84.202,0,65.39,18.747,65.39,41.826v308.945
	c0,23.014,18.747,41.826,41.826,41.826h178.166c23.014,0,41.826-18.747,41.826-41.826V41.826C327.208,18.747,308.396,0,285.382,0z
	 M107.216,21.786h178.166c10.796,0,19.653,8.663,20.04,19.394H87.24C87.564,30.448,96.356,21.786,107.216,21.786z M305.422,62.966
	v120.76h-74.667c-3.879,0-7.434,2.004-9.374,5.301l-13.964,23.467l-22.756-91.345c-2.651-10.537-17.261-11.184-20.881-1.034
	l-20.04,56.307c-1.551,4.331-5.624,7.24-10.279,7.24H87.24V62.966H305.422z M305.422,350.707c0,11.055-8.986,20.04-20.04,20.04
	H107.216c-11.055,0-20.04-8.986-20.04-20.04v-35.685h218.117v35.685H305.422z M87.176,293.236v-87.725h61.608
	c4.655,0,8.727-2.909,10.279-7.24l13.059-36.784l20.493,82.166c2.392,9.438,14.998,11.313,19.911,2.909l21.204-35.62
	c1.939-3.297,5.56-5.301,9.374-5.301h62.19v87.725H87.176V293.236z"/>
<g>
	<path style="fill:#56ACE0;" d="M243.232,205.511c-3.879,0-7.434,2.004-9.374,5.301l-21.204,35.62
		c-4.913,8.339-17.648,6.465-19.911-2.909l-20.558-82.036l-13.059,36.784c-1.552,4.331-5.624,7.24-10.279,7.24H87.24v87.725h218.117
		v-87.725H243.232z"/>
	<path style="fill:#56ACE0;" d="M87.176,183.725h46.222c4.655,0,8.727-2.909,10.279-7.24l20.04-56.307
		c3.62-10.214,18.23-9.438,20.881,1.034l22.82,91.41l13.964-23.467c1.939-3.297,5.56-5.301,9.374-5.301h74.667V62.966H87.176
		V183.725z"/>
</g>
<path style="fill:#FFC10D;" d="M87.176,350.707c0,11.055,8.986,20.04,20.04,20.04h178.166c11.055,0,20.04-8.986,20.04-20.04v-35.685
	H87.176V350.707z"/>
<path style="fill:#FFFFFF;" d="M285.382,21.786H107.216c-10.796,0-19.653,8.663-20.04,19.394h218.117
	C305.034,30.448,296.242,21.786,285.382,21.786z"/>
<path style="fill:#194F82;" d="M175.612,353.81h41.309c6.012,0,10.925-4.849,10.925-10.925c0-6.012-4.848-10.925-10.925-10.925
	h-41.309c-6.012,0-10.925,4.848-10.925,10.925C164.687,348.897,169.535,353.81,175.612,353.81z"/>
</svg>