<?xml version="1.0" encoding="iso-8859-1"?>
<!-- Uploaded to: SVG Repo, www.svgrepo.com, Generator: SVG Repo Mixer Tools -->
<svg height="800px" width="800px" version="1.1" id="Layer_1" xmlns="http://www.w3.org/2000/svg" xmlns:xlink="http://www.w3.org/1999/xlink" 
	 viewBox="0 0 511.147 511.147" xml:space="preserve">
<g transform="translate(1 1)">
	<g>
		<path style="fill:#00DA6C;" d="M101.4,254.573c0-46.08,20.48-87.893,52.907-116.053c-28.16,12.8-53.76,30.72-76.8,53.76
			L7.533,253.72l71.68,63.147c21.333,21.333,45.227,37.547,71.68,49.493C120.173,339.053,101.4,298.947,101.4,254.573"/>
		<path style="fill:#00DA6C;" d="M433.347,192.28c-23.04-23.04-49.493-40.96-77.653-53.76
			c32.427,28.16,52.907,69.973,52.907,116.053s-20.48,87.893-52.907,116.053c29.013-11.947,56.32-29.867,79.36-52.907l67.413-63.147
			L433.347,192.28z"/>
	</g>
	<path style="fill:#00AD55;" d="M433.347,193.133c-23.04-23.04-49.493-40.96-77.653-53.76c10.24,9.387,19.627,20.48,27.307,31.573
		c8.533,6.827,17.067,13.653,24.747,22.187l69.12,61.44l-67.413,63.147c-9.387,8.533-18.773,17.067-28.16,23.893
		c-7.68,10.24-16.213,20.48-25.6,29.013c29.013-11.947,56.32-29.867,79.36-52.907l67.413-63.147L433.347,193.133z"/>
	<path style="fill:#FFFFFF;" d="M76.653,193.133c23.04-23.04,49.493-40.96,77.653-53.76c-10.24,10.24-19.627,20.48-27.307,32.427
		c-8.533,6.827-17.067,13.653-24.747,22.187l-69.12,61.44l67.413,63.147c9.387,8.533,18.773,17.067,28.16,23.893
		c7.68,10.24,16.213,20.48,25.6,29.013c-29.013-11.947-56.32-29.867-79.36-52.907L7.533,255.427L76.653,193.133z"/>
	<path style="fill:#FFE100;" d="M408.6,254.573c0,84.48-69.12,153.6-153.6,153.6s-153.6-69.12-153.6-153.6s69.12-153.6,153.6-153.6
		S408.6,170.093,408.6,254.573"/>
	<path d="M255,416.707c-89.6,0-162.133-72.533-162.133-162.133S165.4,92.44,255,92.44s162.133,72.533,162.133,162.133
		S344.6,416.707,255,416.707z M255,109.507c-80.213,0-145.067,64.853-145.067,145.067S174.787,399.64,255,399.64
		s145.067-64.853,145.067-145.067S335.213,109.507,255,109.507z"/>
	<path d="M150.893,375.747c-0.853,0-2.56,0-3.413-0.853c-27.307-12.8-52.053-29.867-74.24-51.2L1.56,260.547
		C-0.147,258.84-1,256.28-1,253.72s0.853-5.12,2.56-6.827l69.973-61.44c22.187-23.04,49.493-41.813,79.36-55.467
		c4.267-1.707,8.533,0,11.093,3.413c2.56,3.413,1.707,8.533-1.707,11.093c-32.427,28.16-50.347,68.267-50.347,110.08
		c0,40.107,17.067,79.36,46.933,106.667c3.413,2.56,3.413,7.68,1.707,11.093C156.013,374.893,153.453,375.747,150.893,375.747z
		 M20.333,253.72l64.853,57.173c9.387,9.387,19.627,17.92,30.72,25.6c-15.36-24.747-23.04-52.907-23.04-81.92
		c0-29.867,8.533-59.733,23.893-84.48c-11.947,8.533-23.04,17.92-33.28,28.16L20.333,253.72z"/>
	<path d="M355.693,379.16c-2.56,0-5.973-1.707-6.827-4.267c-2.56-3.413-1.707-8.533,1.707-11.093
		c31.573-27.307,49.493-67.413,49.493-109.227s-17.92-81.92-49.493-109.227c-3.413-2.56-4.267-7.68-1.707-11.093
		c2.56-3.413,6.827-5.12,10.24-3.413c29.867,13.653,57.173,31.573,80.213,55.467l68.267,61.44c1.707,1.707,2.56,4.267,2.56,5.973
		c0,2.56-0.853,4.267-2.56,5.973l-67.413,63.147c-23.893,23.04-51.2,41.813-81.92,54.613
		C358.253,378.307,356.547,379.16,355.693,379.16z M392.387,169.24c16.213,25.6,24.747,54.613,24.747,85.333
		c0,31.573-9.387,61.44-25.6,87.04c13.653-8.533,26.453-18.773,37.547-30.72l60.587-57.173l-62.293-55.467
		C417.133,188.013,405.187,177.773,392.387,169.24z"/>
	<path d="M255,365.507c-5.12,0-8.533-3.413-8.533-8.533v-204.8c0-5.12,3.413-8.533,8.533-8.533s8.533,3.413,8.533,8.533v204.8
		C263.533,362.093,260.12,365.507,255,365.507z"/>
	<path d="M255,348.44c-21.333,0-39.253-7.68-49.493-20.48c-2.56-3.413-2.56-9.387,1.707-11.947c3.413-2.56,9.387-2.56,11.947,1.707
		c6.827,8.533,20.48,13.653,35.84,13.653c20.48,0,42.667-12.8,42.667-34.133c0-20.48-22.187-34.133-42.667-34.133
		c-29.013,0-59.733-19.627-59.733-51.2s30.72-51.2,59.733-51.2c21.333,0,39.253,6.827,49.493,20.48
		c2.56,3.413,2.56,9.387-1.707,11.947c-3.413,2.56-9.387,2.56-11.947-1.707c-6.827-8.533-19.627-13.653-35.84-13.653
		c-20.48,0-42.667,13.653-42.667,34.133c0,21.333,22.187,34.133,42.667,34.133c29.013,0,59.733,19.627,59.733,51.2
		S284.013,348.44,255,348.44z"/>
	<path d="M297.667,220.44c-5.12,0-8.533-3.413-8.533-8.533v-51.2c0-5.12,3.413-8.533,8.533-8.533s8.533,3.413,8.533,8.533v51.2
		C306.2,217.027,302.787,220.44,297.667,220.44z"/>
	<path d="M212.333,356.973c-5.12,0-8.533-3.413-8.533-8.533v-51.2c0-5.12,3.413-8.533,8.533-8.533c5.12,0,8.533,3.413,8.533,8.533
		v51.2C220.867,353.56,217.453,356.973,212.333,356.973z"/>
</g>
</svg>