<?xml version="1.0" encoding="iso-8859-1"?>
<!-- Uploaded to: SVG Repo, www.svgrepo.com, Generator: SVG Repo Mixer Tools -->
<svg version="1.1" id="Layer_1" xmlns="http://www.w3.org/2000/svg" xmlns:xlink="http://www.w3.org/1999/xlink" 
	 viewBox="0 0 501.551 501.551" xml:space="preserve">
<path style="fill:#F2F2F2;" d="M295.447,52.245h-88.816c0,0-88.816,83.592-43.886,199.576v214.204
	c0,17.763,13.584,33.437,31.347,35.527c1.045,0,3.135,0,4.18,0s3.135,0,4.18,0c8.359-1.045,16.718-5.225,21.943-11.494
	c5.224,6.269,13.584,10.449,21.943,11.494c1.045,0,3.135,0,4.18,0c1.045,0,3.135,0,4.18,0c8.359-1.045,16.718-5.225,21.943-11.494
	c5.224,6.269,13.584,10.449,21.943,11.494c1.045,0,3.135,0,4.18,0c1.045,0,3.135,0,4.18,0c17.763-2.09,31.347-16.718,31.347-35.527
	V251.82C384.264,135.837,295.447,52.245,295.447,52.245z"/>
<rect x="162.745" y="251.82" style="fill:#40596B;" width="175.543" height="111.804"/>
<rect x="208.721" y="38.661" style="fill:#E2E2E2;" width="83.592" height="13.584"/>
<path style="fill:#FF7058;" d="M293.358,0h-85.682c-3.135,0-5.224,2.09-5.224,5.224v28.212c0,3.135,2.09,5.224,5.224,5.224h85.682
	c3.135,0,5.224-2.09,5.224-5.224V5.224C298.582,2.09,296.492,0,293.358,0z"/>
<path style="fill:#FFFFFF;" d="M272.46,315.559c0,12.539-10.449,21.943-21.943,21.943c-12.539,0-21.943-10.449-21.943-21.943
	c0-12.539,21.943-38.661,21.943-38.661S272.46,303.02,272.46,315.559z"/>
</svg>