<?xml version="1.0" encoding="iso-8859-1"?>
<!-- Uploaded to: SVG Repo, www.svgrepo.com, Generator: SVG Repo Mixer Tools -->
<svg height="800px" width="800px" version="1.1" id="Layer_1" xmlns="http://www.w3.org/2000/svg" xmlns:xlink="http://www.w3.org/1999/xlink" 
	 viewBox="0 0 503.224 503.224" xml:space="preserve">
<g transform="translate(1 1)">
	<path style="fill:#FF7474;" d="M297.788,7.291c19.627,98.987,97.28,176.64,196.267,196.267c-2.56,16.213-5.12,29.867-5.12,29.867
		c-11.093,58.88-35.84,121.173-85.333,170.667s-111.787,73.387-170.667,85.333c0,0-11.093,2.56-29.867,5.12
		c-19.627-98.133-97.28-177.493-196.267-196.267c2.56-17.92,5.12-29.867,5.12-29.867c11.093-59.733,35.84-122.027,85.333-170.667
		c48.64-48.64,110.933-73.387,170.667-84.48C267.922,12.411,284.135,9.851,297.788,7.291L297.788,7.291z"/>
	<path style="fill:#ECF4F7;" d="M489.788,37.158c0,0,16.213,75.947,4.267,166.4l0,0c-98.987-18.773-176.64-97.28-196.267-196.267
		l0,0c90.453-11.093,166.4,4.267,166.4,4.267s10.24,1.707,17.067,8.533S489.788,37.158,489.788,37.158z M7.655,297.424
		c98.987,18.773,176.64,97.28,196.267,196.267c-90.453,11.093-166.4-4.267-166.4-4.267s-11.093-2.56-17.067-8.533
		c-5.973-5.973-8.533-17.067-8.533-17.067S-3.438,387.878,7.655,297.424z"/>
</g>
<path style="fill:#51565F;" d="M137.508,503.224c-58.027,0-99.84-8.533-99.84-8.533c-0.853,0-11.947-2.56-19.627-9.387
	c-6.827-6.827-9.387-18.773-9.387-18.773l0,0c0-0.853-15.36-77.653-4.267-167.253c0-0.853,0.853-2.56,1.707-2.56
	c0.853-0.853,2.56-0.853,3.413-0.853c99.84,19.627,180.053,99.84,199.68,199.68c0,0.853,0,2.56-0.853,3.413
	c-0.853,0.853-1.707,1.707-2.56,1.707C181.028,502.371,158.842,503.224,137.508,503.224z M17.188,463.971
	c0.853,2.56,3.413,11.093,7.68,15.36c5.12,5.12,14.507,7.68,14.507,7.68c0.853,0,74.24,15.36,160.427,5.12
	c-19.627-93.013-94.72-167.253-186.88-187.733C2.682,388.878,16.335,460.558,17.188,463.971z M234.788,494.691
	c-1.707,0-3.413-1.707-4.267-3.413c-0.853-2.56,0.853-4.267,3.413-5.12c69.12-13.653,126.293-41.813,168.107-83.627
	c42.667-42.667,70.827-98.987,83.627-168.107c0.853-2.56,2.56-4.267,5.12-3.413c2.56,0.853,3.413,2.56,3.413,5.12
	c-13.653,70.827-42.667,128.853-86.187,172.373C364.495,451.171,306.468,480.184,234.788,494.691
	C235.642,494.691,234.788,494.691,234.788,494.691z M243.322,349.624c-0.853,0-2.56,0-3.413-0.853l-39.253-39.253l-22.187,22.187
	c-1.707,1.707-4.267,1.707-5.973,0c-0.853-0.853-0.853-1.707-0.853-3.413s0-2.56,0.853-3.413l22.187-22.187l-39.253-39.253
	c-0.853-0.853-0.853-1.707-0.853-3.413c0-1.707,0-2.56,0.853-3.413c1.707-1.707,4.267-1.707,5.973,0l39.253,39.253l45.227-45.227
	l-39.253-39.253c-0.853-0.853-0.853-1.707-0.853-3.413s0-2.56,0.853-3.413c1.707-1.707,4.267-1.707,5.973,0l39.253,39.253
	l45.227-45.227l-39.253-39.253c-0.853-0.853-0.853-1.707-0.853-3.413c0-1.707,0-2.56,0.853-3.413c1.707-1.707,4.267-1.707,5.973,0
	l39.253,39.253l22.187-22.187c1.707-1.707,4.267-1.707,5.973,0c0.853,0.853,0.853,1.707,0.853,3.413s0,2.56-0.853,3.413
	l-22.187,22.187l39.253,39.253c0.853,0.853,0.853,1.707,0.853,3.413s0,2.56-0.853,3.413c-1.707,1.707-4.267,1.707-5.973,0
	l-39.253-39.253l-45.227,45.227l39.253,39.253c0.853,0.853,0.853,1.707,0.853,3.413c0,1.707,0,2.56-0.853,3.413
	c-1.707,1.707-4.267,1.707-5.973,0l-39.253-39.253l-45.227,45.227l39.253,39.253c0.853,0.853,0.853,1.707,0.853,3.413
	s0,2.56-0.853,3.413C245.028,349.624,244.175,349.624,243.322,349.624z M12.922,272.824L12.922,272.824
	c-3.413-0.853-4.267-2.56-4.267-5.12c13.653-71.68,42.667-129.707,86.187-173.227c43.52-43.52,101.547-72.533,172.373-86.187
	c2.56-0.853,4.267,0.853,5.12,3.413s-0.853,4.267-3.413,5.12c-69.973,13.653-126.293,41.813-168.107,83.627
	s-69.973,98.987-83.627,168.107C17.188,271.117,15.482,272.824,12.922,272.824z M495.055,208.824L495.055,208.824
	c-100.693-19.627-180.907-99.84-200.533-199.68c0-0.853,0-2.56,0.853-3.413s1.707-1.707,2.56-1.707
	c89.6-11.093,166.4,4.267,167.253,4.267c0,0,11.947,2.56,19.627,9.387c6.827,6.827,9.387,18.773,9.387,19.627
	c0,1.707,16.213,78.507,4.267,167.253c0,0.853-0.853,2.56-1.707,2.56C496.762,207.971,495.908,208.824,495.055,208.824z
	 M303.908,11.704c19.627,93.013,94.72,167.253,187.733,187.733c10.24-86.187-5.12-159.573-5.12-160.427l0,0
	c0,0-1.707-9.387-7.68-14.507c-5.973-5.973-14.507-7.68-14.507-7.68C463.482,16.824,390.095,1.464,303.908,11.704z"/>
</svg>