<?xml version="1.0" encoding="iso-8859-1"?>
<!-- Uploaded to: SVG Repo, www.svgrepo.com, Generator: SVG Repo Mixer Tools -->
<svg height="800px" width="800px" version="1.1" id="Layer_1" xmlns="http://www.w3.org/2000/svg" xmlns:xlink="http://www.w3.org/1999/xlink" 
	 viewBox="0 0 512 512" xml:space="preserve">
<circle style="fill:#00DFC1;" cx="255.996" cy="255.996" r="255.996"/>
<path style="fill:#00B5A3;" d="M512,255.999c0-4.432-0.113-8.838-0.335-13.214L393.008,124.129
	c-34.595-35.935-83.187-58.298-137.007-58.298c-105.027,0-190.169,85.141-190.169,190.169c0,53.821,22.365,102.413,58.299,137.009
	l118.656,118.656C247.164,511.887,251.569,512,256,512C397.385,512,512,397.385,512,255.999z"/>
<circle style="fill:#FFFFFF;" cx="255.996" cy="255.996" r="190.169"/>
<path style="fill:#E1E1E3;" d="M255.999,65.831c-0.001,0-0.002,0-0.003,0v380.337c0.001,0,0.002,0,0.003,0
	c105.027,0,190.169-85.141,190.169-190.169S361.027,65.831,255.999,65.831z"/>
<path style="fill:#1B2DDD;" d="M430.619,180.574c-75.381-19.009-130.327,2.552-130.327,2.552l-28.639-17.895
	c1.621-41.603,20.87-70.979,41.454-90.677C365.95,91.171,408.852,130.235,430.619,180.574z"/>
<g>
	<path style="fill:#394CE2;" d="M240.347,165.23l-28.64,17.895c0,0-54.946-21.56-130.327-2.552
		c21.767-50.338,64.669-89.401,117.513-106.02C219.476,94.252,238.727,123.627,240.347,165.23z"/>
	<path style="fill:#394CE2;" d="M327.806,432.148c-22.158,9.045-46.396,14.021-71.806,14.021s-49.649-4.976-71.806-14.021
		c-22.537-57.394-32.892-140.464,34.283-224.016h75.048C360.698,291.684,350.343,374.754,327.806,432.148z"/>
</g>
<path style="fill:#1B2DDD;" d="M293.523,208.132h-37.527v238.036c0.001,0,0.002,0,0.003,0c25.411,0,49.649-4.976,71.806-14.021
	C350.343,374.754,360.698,291.684,293.523,208.132z"/>
<circle style="fill:#FFA91F;" cx="255.996" cy="178.247" r="55.933"/>
<path style="fill:#FF8800;" d="M255.999,122.317c-0.001,0-0.002,0-0.003,0v111.862c0.001,0,0.002,0,0.003,0
	c30.89,0,55.93-25.041,55.93-55.93S286.889,122.317,255.999,122.317z"/>
<circle style="fill:#FFEC97;" cx="255.996" cy="178.247" r="37.433"/>
<path style="fill:#FFDF47;" d="M255.999,140.815c-0.001,0-0.002,0-0.003,0v74.866c0.001,0,0.002,0,0.003,0
	c20.674,0,37.433-16.76,37.433-37.433C293.433,157.575,276.674,140.815,255.999,140.815z"/>
</svg>