<?xml version="1.0" encoding="iso-8859-1"?>
<!-- Uploaded to: SVG Repo, www.svgrepo.com, Generator: SVG Repo Mixer Tools -->
<svg height="800px" width="800px" version="1.1" id="Layer_1" xmlns="http://www.w3.org/2000/svg" xmlns:xlink="http://www.w3.org/1999/xlink" 
	 viewBox="0 0 512 512" xml:space="preserve">
<g>
	<path style="fill:#CCCCCC;" d="M440.887,128.166c-26.091,0-48.341,16.408-57.019,39.466H235.375
		c-8.677-23.056-30.928-39.466-57.019-39.466c-33.642,0-60.914,27.272-60.914,60.914s27.272,60.914,60.914,60.914
		c26.091,0,48.341-16.408,57.019-39.466h148.493c8.677,23.056,30.928,39.466,57.019,39.466c33.642,0,60.914-27.272,60.914-60.914
		S474.529,128.166,440.887,128.166z"/>
	<path style="fill:#CCCCCC;" d="M333.643,262.005c-26.091,0-48.341,16.409-57.019,39.466H128.132
		c-8.677-23.056-30.928-39.466-57.019-39.466c-33.642,0-60.914,27.273-60.914,60.915s27.272,60.914,60.914,60.914
		c26.091,0,48.341-16.408,57.019-39.466h148.493c8.677,23.056,30.928,39.466,57.019,39.466c33.642,0,60.914-27.272,60.914-60.914
		S367.286,262.005,333.643,262.005z"/>
</g>
<g>
	<path style="fill:#603813;" d="M440.887,260.194c-27.022,0-51.777-15.597-63.683-39.466H242.039
		c-11.906,23.868-36.661,39.466-63.683,39.466c-39.212,0-71.113-31.901-71.113-71.114c0-39.212,31.901-71.113,71.113-71.113
		c27.022,0,51.777,15.597,63.683,39.466h135.165c11.906-23.868,36.661-39.466,63.683-39.466c39.212,0,71.113,31.901,71.113,71.113
		C512,228.292,480.099,260.194,440.887,260.194z M235.375,200.33h148.493c4.247,0,8.049,2.632,9.545,6.607
		c7.397,19.654,26.475,32.859,47.473,32.859c27.964,0,50.715-22.75,50.715-50.716c0-27.964-22.75-50.715-50.715-50.715
		c-20.998,0-40.076,13.205-47.473,32.859c-1.496,3.975-5.298,6.607-9.545,6.607H235.375c-4.247,0-8.049-2.632-9.545-6.607
		c-7.397-19.654-26.475-32.859-47.473-32.859c-27.964,0-50.715,22.75-50.715,50.715s22.75,50.716,50.715,50.716
		c20.998,0,40.076-13.205,47.473-32.859C227.326,202.962,231.128,200.33,235.375,200.33z"/>
	<path style="fill:#603813;" d="M333.643,394.033c-27.022,0-51.777-15.597-63.683-39.466H134.796
		c-11.906,23.868-36.661,39.466-63.683,39.466C31.901,394.033,0,362.132,0,322.92c0-39.212,31.901-71.114,71.113-71.114
		c27.022,0,51.777,15.597,63.683,39.466h135.165c11.906-23.868,36.661-39.466,63.683-39.466c39.212,0,71.113,31.901,71.113,71.114
		C404.757,362.132,372.855,394.033,333.643,394.033z M128.132,334.169h148.493c4.247,0,8.049,2.632,9.545,6.607
		c7.397,19.654,26.475,32.859,47.473,32.859c27.964,0,50.715-22.75,50.715-50.715s-22.75-50.716-50.715-50.716
		c-20.998,0-40.076,13.205-47.473,32.859c-1.496,3.975-5.298,6.607-9.545,6.607H128.132c-4.247,0-8.049-2.632-9.545-6.607
		c-7.397-19.654-26.475-32.859-47.473-32.859c-27.964,0-50.715,22.75-50.715,50.716c0,27.964,22.75,50.715,50.715,50.715
		c20.998,0,40.076-13.205,47.473-32.859C120.082,336.801,123.885,334.169,128.132,334.169z"/>
	<path style="fill:#603813;" d="M460.518,220.303c-2.824,0-5.634-1.166-7.65-3.449c-3.728-4.223-3.326-10.668,0.897-14.396
		c1.105-0.976,2.092-2.082,2.933-3.288c3.222-4.62,9.581-5.753,14.2-2.529c4.62,3.223,5.752,9.58,2.529,14.2
		c-1.77,2.537-3.844,4.862-6.164,6.911C465.325,219.462,462.916,220.303,460.518,220.303z"/>
	<path style="fill:#603813;" d="M466.372,184.607c-3.522,0-6.948-1.826-8.839-5.093c-3.277-5.667-9.373-9.186-15.908-9.186
		c-5.633,0-10.199-4.566-10.199-10.199c0-5.633,4.566-10.199,10.199-10.199c13.792,0,26.654,7.422,33.566,19.371
		c2.82,4.876,1.155,11.115-3.722,13.936C469.862,184.165,468.105,184.607,466.372,184.607z"/>
</g>
</svg>