<?xml version="1.0" encoding="iso-8859-1"?>
<!-- Uploaded to: SVG Repo, www.svgrepo.com, Generator: SVG Repo Mixer Tools -->
<svg height="800px" width="800px" version="1.1" id="Layer_1" xmlns="http://www.w3.org/2000/svg" xmlns:xlink="http://www.w3.org/1999/xlink" 
	 viewBox="0 0 507.2 507.2" xml:space="preserve">
<path style="fill:#2884A9;" d="M130.6,59.6v104c0,0.8,0.4,1.2-0.4,1.6C69,206,33,276,33,350.4c0,55.2,21.2,106.8,58.8,150.4h324.8
	c36.8-43.6,56.8-94,56.8-150.4c0-76.4-37.6-145.6-100-184.8c-0.4-0.4-1.6-1.6-1.6-2v-104C371.8,28,349,6,317.4,6H190.2
	C158.2,6,130.6,29.2,130.6,59.6z M375,199.2c0.8,0.8,20.8,19.6,26.8,26.4c28.8,34.4,44.8,78.4,44.8,124c0,44.4-15.6,89.6-42.4,122
	c-0.4,0.4-0.8,1.6-1.6,1.6H106.2c-0.4,0-1.2-1.2-1.6-1.6C77.8,439.2,62.2,394.4,62.2,350c0-106.4,86-193.2,192-193.2
	C298.2,156.8,341,171.6,375,199.2z M166.6,59.6c0-12.4,12.8-18,24.4-18h127.2c12,0,18.8,6,18.8,18v83.2c0,0.8,0.4,1.2-0.4,1.6
	c-0.4,0.4-0.4,0.4-0.8,0.4c-0.4,0-0.4,0-0.8,0c-23.6-10.4-52.8-16-82.4-16s-58.8,5.6-82.4,16c-0.8,0.4-2,0.4-2.4,0s-1.6-0.8-1.6-1.6
	C166.6,142.8,166.6,59.6,166.6,59.6z"/>
<path style="fill:#61C2AB;" d="M402.2,226c-6-7.2-26.8-26.4-26.8-26.8c-34-27.6-76.8-42.8-120.8-42.8c-106.4,0-192.8,88-192.8,194.8
	c0,44.4,15.2,90.4,42,122h302c26.8-31.6,42-77.6,42-122C447,306,431.4,260.8,402.2,226z"/>
<path d="M417.8,507.2H91.4c-1.2,0-2-0.4-2.8-1.2c-38.8-42.4-61.2-98.8-61.2-155.2c0-76.4,36.4-147.2,98-189.2v-102
	c0-33.6,29.2-59.6,66-59.6h127.2C353.4,0,379,25.2,379,59.6v102c63.2,40.4,100.8,111.2,100.8,189.2c0,59.2-20.8,114.4-58.4,155.2
	C419.8,506.8,419,507.2,417.8,507.2z M93,499.2h323.2c35.6-39.2,55.2-92,55.2-148.4c0-76-36.8-144.8-98.8-183.6c-1.2-0.8-2-2-2-3.2
	V60c0-30.4-21.6-51.6-52.4-51.6H191c-28.4,0-58,19.2-58,51.6v104c0,1.2-0.8,2.4-1.6,3.2c-60,40.4-96,109.2-96,183.6
	C35,404.4,56.2,458.4,93,499.2z M168.2,146.8c-0.8,0-1.6-0.4-2-0.8c-1.2-0.8-2-2-2-3.2V59.6c0-13.6,13.6-20,26.4-20h127.2
	c13.2,0,20.8,7.2,20.8,20v83.2c0,1.2-0.8,2.8-2,3.2c-1.2,0.8-2.4,0.8-3.6,0.4c-23.2-10-52.8-16-81.6-16s-58.4,5.6-81.6,16
	C169.4,146.8,169,146.8,168.2,146.8z M251.4,122.4c28,0,56,5.2,79.2,14.4V59.6c0-8.4-4-12-12.8-12H190.6c-8.8,0-18.4,3.6-18.4,12
	v77.2C195.8,127.6,223.4,122.4,251.4,122.4z"/>
<path d="M402.6,475.6H106.2c-1.2,0-2.4-0.4-3.2-1.6c-27.2-32.8-42.8-78-42.8-123.6c0-108,87.2-196,194-196
	c44.4,0,87.6,15.2,122,43.2c1.6,1.2,2,4,0.8,5.6s-4,2-5.6,0.4c-32.8-26.4-74.4-41.2-116.8-41.2c-102.8,0-186,84.4-186,188
	c0,43.2,14.4,85.6,39.6,116.8H401c25.2-31.2,39.6-74,39.6-116.8c0-44.4-15.6-87.2-43.6-120.4c-1.6-1.6-1.2-4.4,0.4-5.6
	c1.6-1.6,4.4-1.2,5.6,0.4c29.2,34.8,45.2,79.6,45.2,125.6c0,45.6-15.6,90.4-42.8,123.6C405,474.8,403.8,475.6,402.6,475.6z"/>
</svg>