<?xml version="1.0" encoding="iso-8859-1"?>
<!-- Uploaded to: SVG Repo, www.svgrepo.com, Generator: SVG Repo Mixer Tools -->
<svg height="800px" width="800px" version="1.1" id="Layer_1" xmlns="http://www.w3.org/2000/svg" xmlns:xlink="http://www.w3.org/1999/xlink" 
	 viewBox="0 0 511.999 511.999" xml:space="preserve">
<path style="fill:#7DD2F0;" d="M159.407,170.333c77.373,45.964,54.23,310.258,54.23,310.258c0,14.02-14.096,25.386-31.483,25.386
	s-31.483-11.365-31.483-25.386c0,17.347-17.44,31.408-38.953,31.408s-38.953-14.062-38.953-31.408
	c0,14.02-14.096,25.386-31.483,25.386S9.797,494.61,9.797,480.591c0,0-23.143-264.294,54.23-310.258H159.407z"/>
<g>
	<path style="fill:#70BBD6;" d="M70.585,462.012c-4.332,0-7.942-3.407-8.148-7.78c-5.69-120.95,10.523-213.921,10.687-214.847
		c0.789-4.439,5.026-7.397,9.465-6.608c4.439,0.788,7.397,5.025,6.61,9.464c-0.161,0.908-16.053,92.204-10.453,211.222
		c0.212,4.504-3.266,8.326-7.77,8.538C70.844,462.009,70.714,462.012,70.585,462.012z"/>
	<path style="fill:#70BBD6;" d="M152.85,462.012c-0.13,0-0.259-0.003-0.39-0.01c-4.504-0.212-7.982-4.035-7.77-8.538
		c5.605-119.145-10.292-210.314-10.453-211.221c-0.789-4.439,2.169-8.677,6.609-9.466c4.434-0.788,8.677,2.17,9.466,6.609
		c0.164,0.925,16.377,93.896,10.687,214.847C160.793,458.605,157.182,462.012,152.85,462.012z"/>
</g>
<path style="opacity:0.1;enable-background:new    ;" d="M31.222,244.569c20.077,33.559,49.416,52.805,80.496,52.805
	s60.419-19.248,80.496-52.805c2.344-3.918,4.54-8.006,6.601-12.229c-8.682-28.509-21.288-51.245-39.406-62.008H64.027
	c-18.118,10.763-30.724,33.498-39.406,62.008C26.682,236.563,28.878,240.651,31.222,244.569z"/>
<ellipse style="fill:#FFD782;" cx="111.715" cy="135.083" rx="80.815" ry="135.083"/>
<path style="fill:#FFE6B3;" d="M111.717,21.768c42.441,0,77.237,54.684,80.554,124.198c0.171-3.591,0.261-7.219,0.261-10.884
	C192.532,60.479,156.351,0,111.717,0S30.902,60.478,30.902,135.082c0,3.665,0.09,7.293,0.261,10.884
	C34.481,76.452,69.276,21.768,111.717,21.768z"/>
<ellipse style="fill:#E6C275;" cx="111.715" cy="115.22" rx="41.127" ry="65.108"/>
<path style="fill:#7DD2F0;" d="M447.972,170.333c77.373,45.964,54.23,310.258,54.23,310.258c0,14.02-14.096,25.386-31.483,25.386
	s-31.483-11.365-31.483-25.386c0,17.347-17.44,31.408-38.953,31.408c-21.514,0-38.953-14.062-38.953-31.408
	c0,14.02-14.096,25.386-31.483,25.386c-17.387,0-31.483-11.365-31.483-25.386c0,0-23.143-264.294,54.23-310.258H447.972z"/>
<g>
	<path style="fill:#70BBD6;" d="M359.15,462.012c-4.332,0-7.942-3.407-8.148-7.78c-5.69-120.95,10.523-213.921,10.687-214.847
		c0.789-4.439,5.028-7.397,9.465-6.608c4.439,0.788,7.397,5.025,6.61,9.464c-0.161,0.908-16.053,92.204-10.453,211.222
		c0.212,4.504-3.266,8.326-7.77,8.538C359.409,462.009,359.279,462.012,359.15,462.012z"/>
	<path style="fill:#70BBD6;" d="M441.415,462.012c-0.129,0-0.259-0.003-0.39-0.01c-4.504-0.212-7.982-4.035-7.77-8.538
		c5.6-119.019-10.293-210.314-10.454-211.222c-0.788-4.439,2.171-8.676,6.61-9.464c4.435-0.788,8.676,2.169,9.465,6.608
		c0.164,0.925,16.378,93.896,10.688,214.847C449.357,458.605,445.747,462.012,441.415,462.012z"/>
</g>
<path style="opacity:0.1;enable-background:new    ;" d="M319.787,244.569c20.077,33.559,49.416,52.805,80.496,52.805
	s60.419-19.248,80.496-52.805c2.344-3.918,4.54-8.006,6.601-12.229c-8.682-28.509-21.288-51.245-39.406-62.008h-95.382
	c-18.118,10.763-30.724,33.498-39.406,62.008C315.247,236.563,317.443,240.651,319.787,244.569z"/>
<ellipse style="fill:#FFD782;" cx="400.286" cy="135.083" rx="80.815" ry="135.083"/>
<path style="fill:#FFE6B3;" d="M400.282,21.768c42.441,0,77.237,54.684,80.554,124.198c0.171-3.591,0.261-7.219,0.261-10.884
	C481.097,60.479,444.916,0,400.282,0c-44.633,0-80.815,60.478-80.815,135.082c0,3.665,0.09,7.293,0.261,10.884
	C323.046,76.452,357.841,21.768,400.282,21.768z"/>
<ellipse style="fill:#E6C275;" cx="400.286" cy="115.22" rx="41.127" ry="65.108"/>
</svg>