<?xml version="1.0" encoding="iso-8859-1"?>
<!-- Uploaded to: SVG Repo, www.svgrepo.com, Generator: SVG Repo Mixer Tools -->
<svg height="800px" width="800px" version="1.1" id="Layer_1" xmlns="http://www.w3.org/2000/svg" xmlns:xlink="http://www.w3.org/1999/xlink" 
	 viewBox="0 0 512 512" xml:space="preserve">
<path style="fill:#FFC36E;" d="M379.871,49.548v412.903c0,22.805-55.459,41.29-123.871,41.29s-123.871-18.486-123.871-41.29V49.548
	H379.871z"/>
<ellipse style="fill:#FFD782;" cx="256" cy="49.548" rx="123.871" ry="41.29"/>
<ellipse style="fill:#FFE3A8;" cx="256" cy="49.032" rx="80.516" ry="20.129"/>
<g>
	<path style="fill:#2D2B29;" d="M346.202,12.518C321.985,4.446,289.951,0,256,0s-65.985,4.446-90.202,12.518
		c-34.653,11.55-41.927,26.514-41.927,37.03v412.903c0,10.518,7.274,25.48,41.927,37.031C190.014,507.554,222.048,512,256,512
		s65.986-4.446,90.202-12.517c34.653-11.551,41.927-26.514,41.927-37.031V49.548C388.129,39.032,380.855,24.068,346.202,12.518z
		 M256,16.516c70.575,0,115.613,19.563,115.613,33.032S326.575,82.581,256,82.581S140.387,63.017,140.387,49.548
		S185.425,16.516,256,16.516z M256,495.484c-70.575,0-115.613-19.563-115.613-33.032v-16.075
		c6.131,4.116,14.379,8.139,25.411,11.816c24.216,8.071,56.25,12.517,90.202,12.517c20.614,0,41.101-1.691,59.247-4.889
		c4.492-0.793,7.491-5.076,6.699-9.567c-0.792-4.492-5.079-7.482-9.566-6.699c-17.216,3.035-36.712,4.639-56.381,4.639
		c-70.575,0-115.613-19.563-115.613-33.032v-16.075c6.131,4.116,14.379,8.139,25.411,11.816
		c24.216,8.071,56.25,12.517,90.202,12.517c20.614,0,41.101-1.691,59.247-4.889c4.492-0.793,7.491-5.076,6.699-9.567
		s-5.079-7.487-9.566-6.699c-17.216,3.035-36.712,4.639-56.381,4.639c-70.575,0-115.613-19.563-115.613-33.032v-16.075
		c6.131,4.116,14.379,8.139,25.411,11.816c24.216,8.071,56.25,12.517,90.202,12.517c20.614,0,41.101-1.691,59.247-4.889
		c4.492-0.793,7.491-5.076,6.699-9.567c-0.792-4.492-5.079-7.482-9.566-6.699c-17.216,3.035-36.712,4.639-56.381,4.639
		c-70.575,0-115.613-19.563-115.613-33.032v-16.075c6.131,4.116,14.379,8.139,25.411,11.816
		c24.216,8.071,56.25,12.517,90.202,12.517c20.614,0,41.101-1.691,59.247-4.889c4.492-0.793,7.491-5.076,6.699-9.567
		c-0.792-4.492-5.079-7.487-9.566-6.699c-17.216,3.035-36.712,4.639-56.381,4.639c-70.575,0-115.613-19.563-115.613-33.032v-16.075
		c6.131,4.116,14.379,8.139,25.411,11.816c24.216,8.071,56.25,12.517,90.202,12.517c20.614,0,41.101-1.691,59.247-4.889
		c4.492-0.793,7.491-5.076,6.699-9.567c-0.792-4.492-5.079-7.482-9.566-6.699c-17.216,3.035-36.712,4.639-56.381,4.639
		c-70.575,0-115.613-19.563-115.613-33.032v-16.075c6.131,4.116,14.379,8.139,25.411,11.816
		c24.216,8.071,56.25,12.517,90.202,12.517c20.614,0,41.101-1.691,59.247-4.889c4.492-0.793,7.491-5.076,6.699-9.567
		c-0.792-4.491-5.079-7.486-9.566-6.699c-17.216,3.035-36.712,4.639-56.381,4.639c-70.575,0-115.613-19.563-115.613-33.032v-16.075
		c6.131,4.116,14.379,8.139,25.411,11.816c24.216,8.071,56.25,12.517,90.202,12.517c20.614,0,41.101-1.691,59.247-4.889
		c4.492-0.793,7.491-5.076,6.699-9.567c-0.792-4.492-5.079-7.482-9.566-6.699c-17.216,3.035-36.712,4.639-56.381,4.639
		c-70.575,0-115.613-19.563-115.613-33.032v-16.075c6.131,4.116,14.379,8.139,25.411,11.816
		c24.216,8.071,56.25,12.517,90.202,12.517c20.614,0,41.101-1.691,59.247-4.889c4.492-0.793,7.491-5.076,6.699-9.567
		c-0.792-4.492-5.079-7.486-9.566-6.699c-17.216,3.035-36.712,4.639-56.381,4.639c-70.575,0-115.613-19.563-115.613-33.032v-16.075
		c6.131,4.116,14.379,8.139,25.411,11.816c24.216,8.071,56.25,12.517,90.202,12.517c20.614,0,41.101-1.691,59.247-4.889
		c4.492-0.793,7.491-5.076,6.699-9.567c-0.792-4.492-5.079-7.481-9.566-6.699c-17.216,3.035-36.712,4.639-56.381,4.639
		c-70.575,0-115.613-19.563-115.613-33.032V74.763c6.131,4.116,14.379,8.139,25.411,11.816c24.216,8.071,56.25,12.517,90.202,12.517
		s65.986-4.446,90.202-12.517c11.033-3.678,19.281-7.701,25.411-11.816v16.075c0,4.795-7.22,12.988-27.566,20.3
		c-4.292,1.542-6.521,6.272-4.979,10.564c1.211,3.369,4.386,5.467,7.772,5.467c0.927,0,1.87-0.157,2.792-0.489
		c9.343-3.358,16.505-6.969,21.98-10.649v16.097c0,4.795-7.22,12.988-27.566,20.3c-4.292,1.542-6.521,6.272-4.979,10.564
		c1.211,3.369,4.386,5.467,7.772,5.467c0.927,0,1.87-0.157,2.792-0.489c9.343-3.358,16.505-6.969,21.98-10.649v16.097
		c0,4.795-7.22,12.988-27.566,20.3c-4.292,1.542-6.521,6.272-4.979,10.564c1.211,3.369,4.386,5.467,7.772,5.467
		c0.927,0,1.87-0.157,2.792-0.489c9.343-3.358,16.505-6.969,21.98-10.649v16.097c0,4.795-7.22,12.988-27.566,20.3
		c-4.292,1.542-6.521,6.272-4.979,10.564c1.211,3.369,4.386,5.467,7.772,5.467c0.927,0,1.87-0.157,2.792-0.489
		c9.343-3.358,16.505-6.969,21.98-10.649V256c0,4.795-7.22,12.988-27.566,20.3c-4.292,1.542-6.521,6.272-4.979,10.564
		c1.211,3.369,4.386,5.467,7.772,5.467c0.927,0,1.87-0.157,2.792-0.489c9.343-3.358,16.505-6.969,21.98-10.649v16.097
		c0,4.795-7.22,12.988-27.566,20.3c-4.292,1.542-6.521,6.272-4.979,10.564c1.211,3.369,4.386,5.467,7.772,5.467
		c0.927,0,1.87-0.157,2.792-0.489c9.343-3.358,16.505-6.969,21.98-10.649v16.097c0,4.795-7.22,12.988-27.566,20.3
		c-4.292,1.542-6.521,6.272-4.979,10.564c1.211,3.369,4.386,5.467,7.772,5.467c0.927,0,1.87-0.157,2.792-0.489
		c9.343-3.358,16.505-6.969,21.98-10.649v16.097c0,4.795-7.22,12.988-27.566,20.3c-4.292,1.542-6.521,6.272-4.979,10.564
		c1.211,3.369,4.386,5.467,7.772,5.467c0.927,0,1.87-0.157,2.792-0.489c9.343-3.358,16.505-6.969,21.98-10.649v16.097
		c0,4.795-7.22,12.988-27.566,20.3c-4.292,1.542-6.521,6.272-4.979,10.564c1.211,3.369,4.386,5.467,7.772,5.467
		c0.927,0,1.87-0.157,2.792-0.489c9.343-3.358,16.505-6.969,21.98-10.649v16.097C371.613,475.921,326.575,495.484,256,495.484z"/>
	<path style="fill:#2D2B29;" d="M178.527,64.39c1.029,0.423,2.093,0.623,3.141,0.623c3.246,0,6.326-1.927,7.639-5.116
		c1.602-3.892,0.013-8.302-3.555-10.325c10.05-3.709,34.168-8.283,70.248-8.283c14.207,0,28.158,0.745,40.345,2.155
		c4.54,0.529,8.629-2.724,9.152-7.255c0.524-4.531-2.724-8.628-7.254-9.152c-12.806-1.481-27.414-2.265-42.243-2.265
		c-22.586,0-43.899,1.775-60.012,4.998c-14.353,2.87-30.826,7.712-30.826,19.776C165.161,55.744,169.658,60.738,178.527,64.39z"/>
	<path style="fill:#2D2B29;" d="M326.247,49.524c-10.049,3.709-34.167,8.283-70.247,8.283c-14.206,0-28.156-0.745-40.342-2.155
		c-4.54-0.519-8.629,2.725-9.152,7.255c-0.524,4.531,2.723,8.628,7.254,9.152c12.805,1.481,27.412,2.265,42.24,2.265
		c22.586,0,43.899-1.775,60.012-4.998c14.353-2.87,30.826-7.711,30.826-19.776c0-6.196-4.496-11.19-13.366-14.842
		c-4.217-1.736-9.044,0.275-10.781,4.492C321.09,43.09,322.679,47.501,326.247,49.524z"/>
</g>
</svg>