<?xml version="1.0" encoding="iso-8859-1"?>
<!-- Uploaded to: SVG Repo, www.svgrepo.com, Generator: SVG Repo Mixer Tools -->
<svg height="800px" width="800px" version="1.1" id="Layer_1" xmlns="http://www.w3.org/2000/svg" xmlns:xlink="http://www.w3.org/1999/xlink" 
	 viewBox="0 0 390.788 390.788" xml:space="preserve">
<path style="fill:#56ACE0;" d="M322.457,182.679v25.988H68.267v-75.83h27.087l23.273,52.04c1.616,3.814,5.43,6.529,9.762,6.529
	h132.267c5.947,0,10.861-4.848,10.861-10.861v-56.889C300.218,127.923,322.457,152.877,322.457,182.679z"/>
<path style="fill:#FFC10D;" d="M369.067,265.62c-0.517,20.04-16.226,35.749-36.331,35.749H57.471
	c-19.523,0-35.749-15.709-35.749-35.749c0-19.523,15.709-35.749,35.749-35.749h275.846
	C352.84,229.806,369.067,245.515,369.067,265.62z"/>
<g>
	<path style="fill:#194F82;" d="M343.596,209.766v-27.087c0-44.994-36.331-81.325-81.325-81.325h-2.198
		c-2.715,0-4.848,1.099-6.529,2.198l-16.808-10.861l5.43-8.663c3.232-4.848,1.616-11.895-3.814-14.61
		c-4.848-3.232-11.895-1.616-14.61,3.814L202.149,108.4c-3.232,4.848-1.616,11.895,3.814,14.61c6.529,4.331,12.994,0,14.61-3.814
		l4.848-8.145l23.855,15.192v42.279H135.499l-23.855-51.459c-1.616-3.814-5.43-6.529-9.762-6.529H57.471
		c-5.947,0-10.861,4.848-10.861,10.861v88.372C20.04,214.614,0,237.952,0,266.137c0,31.418,25.471,56.889,57.471,56.889h275.846
		c31.418,0,57.471-25.471,57.471-57.471C390.206,237.952,370.166,215.196,343.596,209.766z M68.267,132.836h27.087l23.273,52.04
		c1.616,3.814,5.43,6.529,9.762,6.529h132.267c5.947,0,10.861-4.848,10.861-10.861v-56.889
		c28.703,4.331,50.941,29.285,50.941,59.087v25.988H68.267V132.836z M332.735,301.37H57.471c-19.523,0-35.749-15.709-35.749-35.749
		c0-19.523,15.709-35.749,35.749-35.749h275.846c19.523,0,35.749,15.709,35.749,35.749
		C368.549,285.661,352.84,301.37,332.735,301.37z"/>
	<path style="fill:#194F82;" d="M314.634,254.76H76.154c-5.947,0-10.861,4.848-10.861,10.861c0,5.947,4.848,10.861,10.861,10.861
		h238.481c5.947,0,10.861-4.848,10.861-10.861C325.43,259.608,320.582,254.76,314.634,254.76z"/>
</g>
</svg>