<?xml version="1.0" encoding="iso-8859-1"?>
<!-- Uploaded to: SVG Repo, www.svgrepo.com, Generator: SVG Repo Mixer Tools -->
<svg version="1.1" id="Layer_1" xmlns="http://www.w3.org/2000/svg" xmlns:xlink="http://www.w3.org/1999/xlink" 
	 viewBox="0 0 512 512" xml:space="preserve">
<path style="fill:#FFD422;" d="M255.608,504.421c-55.646,0-100.915-54.216-100.915-120.856v-215.1h32.339v215.1
	c0,24.155,7.561,46.801,21.292,63.762c12.924,15.964,29.716,24.757,47.284,24.757s34.36-8.792,47.284-24.757
	c13.73-16.962,21.292-39.605,21.292-63.762v-215.1h32.339v215.1C356.523,450.205,311.253,504.421,255.608,504.421z"/>
<rect x="150.933" y="39.565" style="fill:#ACAAB1;" width="39.853" height="105.779"/>
<path style="fill:#3E3B43;" d="M190.79,39.561h-39.853V11.55c0-2.193,1.778-3.971,3.971-3.971h31.912
	c2.193,0,3.971,1.778,3.971,3.971V39.561z"/>
<path style="fill:#57545C;" d="M201.46,177.002h-61.193c-2.726,0-4.936-2.21-4.936-4.936v-22.111c0-2.726,2.21-4.936,4.936-4.936
	h61.193c2.726,0,4.936,2.21,4.936,4.936v22.111C206.394,174.793,204.185,177.002,201.46,177.002z"/>
<rect x="321.208" y="39.565" style="fill:#ACAAB1;" width="39.853" height="105.779"/>
<path style="fill:#3E3B43;" d="M361.064,39.561h-39.853V11.55c0-2.193,1.778-3.971,3.971-3.971h31.912
	c2.193,0,3.971,1.778,3.971,3.971L361.064,39.561L361.064,39.561z"/>
<path style="fill:#57545C;" d="M371.734,177.002h-61.193c-2.726,0-4.936-2.21-4.936-4.936v-22.111c0-2.726,2.21-4.936,4.936-4.936
	h61.193c2.726,0,4.936,2.21,4.936,4.936v22.111C376.67,174.793,374.46,177.002,371.734,177.002z"/>
<g>
	<rect x="154.692" y="177.026" style="fill:#CCA400;" width="32.246" height="10.503"/>
	<rect x="324.281" y="177.026" style="fill:#CCA400;" width="32.246" height="10.503"/>
</g>
<path d="M376.669,137.441h-8.025v-97.88V7.579c0-4.186-3.394-7.579-7.579-7.579h-39.853c-4.186,0-7.579,3.394-7.579,7.579v31.981
	v97.88h-8.026c-4.186,0-7.579,3.394-7.579,7.579v31.981c0,4.186,3.394,7.579,7.579,7.579h10.998v198.983
	c0,22.425-6.962,43.376-19.604,58.993c-11.455,14.151-26.155,21.945-41.392,21.945c-15.237,0-29.937-7.794-41.393-21.945
	c-12.642-15.617-19.604-36.567-19.604-58.993V184.582h11.783c4.186,0,7.579-3.394,7.579-7.579v-31.981
	c0-4.186-3.394-7.579-7.579-7.579h-8.025v-97.88V7.579c0-4.186-3.394-7.579-7.579-7.579h-39.853c-4.186,0-7.579,3.394-7.579,7.579
	v31.981v97.88h-8.026c-4.186,0-7.579,3.394-7.579,7.579v31.981c0,4.186,3.394,7.579,7.579,7.579h11.783v198.983
	c0,70.82,48.67,128.436,108.495,128.436s108.494-57.616,108.494-128.436V184.582h12.567c4.186,0,7.579-3.394,7.579-7.579v-31.981
	C384.248,140.835,380.856,137.441,376.669,137.441z M158.516,15.159h24.694v16.822h-24.694V15.159z M158.516,47.14h24.694v90.301
	h-24.694V47.14z M142.911,152.6h5.859c0.687,0.205,1.413,0.318,2.167,0.318h39.853c0.753,0,1.48-0.113,2.167-0.318h5.859v16.822
	h-55.904V152.6H142.911z M348.943,383.564c0,62.461-41.87,113.277-93.335,113.277c-51.466,0-93.336-50.816-93.336-113.277V186.15
	h17.18v197.414c0,25.886,8.162,50.225,22.98,68.531c14.391,17.776,33.275,27.567,53.176,27.567s38.784-9.791,53.175-27.567
	c14.819-18.306,22.98-42.644,22.98-68.531V186.15h17.18V383.564z M328.791,15.159h24.694v16.822h-24.694V15.159z M328.791,47.14
	h24.694v90.301h-24.694V47.14z M369.089,169.423h-55.904V152.6h5.859c0.687,0.205,1.413,0.318,2.167,0.318h39.853
	c0.753,0,1.479-0.113,2.167-0.318h5.859v16.822H369.089z"/>
</svg>