<?xml version="1.0" encoding="iso-8859-1"?>
<!-- Uploaded to: SVG Repo, www.svgrepo.com, Generator: SVG Repo Mixer Tools -->
<svg height="800px" width="800px" version="1.1" id="Layer_1" xmlns="http://www.w3.org/2000/svg" xmlns:xlink="http://www.w3.org/1999/xlink" 
	 viewBox="0 0 506 506" xml:space="preserve">
<path style="fill:#E9B526;" d="M255.8,500c62.8,0,114-51.2,114-114s-51.2-114-114-114s-114,51.2-114,114S192.6,500,255.8,500z
	 M255.8,320c11.6,0,23.2,3.2,33.2,8.8c0,0,0.4,0,0,2.4l23.6,23.6c0.8-2,0.8-1.6,0.8-1.6c5.6,10,8.8,21.2,8.8,32.8
	c0,36.4-29.6,66-66,66s-66-29.6-66-66C189.8,349.6,219.4,320,255.8,320z"/>
<path style="fill:#DF5C4E;" d="M254.2,214.4l75.2-53.6c0-0.4-0.4-0.8-0.4-0.8V4H173v156c0,0.4,0.8,0.8,0.8,0.8l77.6,53.6
	c0.4-0.4,0.8-0.4,1.2-0.4S253.8,214.4,254.2,214.4z"/>
<g>
	<polygon style="fill:#E36D60;" points="97,4 97,108.8 169,158.4 169,4 	"/>
	<polygon style="fill:#E36D60;" points="405,112.8 405,8 329,8 329,162.4 	"/>
</g>
<path style="fill:#D6B34C;" d="M255.8,448c34,0,62-28,62-62c0-10.8-2.8-21.6-7.2-33.2l-23.2-23.2c-10.4-2.8-20.8-5.6-31.6-5.6
	c-34,0-62,28-62,62S221.4,448,255.8,448z"/>
<path d="M255.8,506c-66,0-120-54-120-120s54-120,120-120s120,54,120,120S321.8,506,255.8,506z M255.8,274c-61.6,0-112,50.4-112,112
	s50.4,112,112,112s112-50.4,112-112S317.4,274,255.8,274z"/>
<path d="M253,222c-0.8,0-1.6-0.4-2.4-0.8l-156-108c-1.2-0.8-1.6-2-1.6-3.2V4c0-2.4,1.6-4,4-4h312c2.4,0,4,1.6,4,4v106
	c0,1.2-0.8,2.4-1.6,3.2l-156,108C254.6,221.6,253.8,222,253,222z M101,107.6l152,105.2l152-105.2V8H101V107.6z"/>
<path d="M253,272c-2.4,0-4-1.6-4-4v-52c0-2.4,1.6-4,4-4s4,1.6,4,4v52C257,270.4,255.4,272,253,272z"/>
<path d="M255.8,454c-37.6,0-68-30.4-68-68s30.4-68,68-68c12,0,23.6,3.2,34,9.2c2,1.2,2.4,3.6,1.6,5.6s-3.6,2.4-5.6,1.6
	c-9.2-5.2-19.6-8-30-8c-33.2,0-60,26.8-60,60s26.8,60,60,60s60-26.8,60-60c0-10.4-2.8-20.8-8-30c-1.2-2-0.4-4.4,1.6-5.6
	s4.4-0.4,5.6,1.6c6,10.4,9.2,22,9.2,34C323.8,423.2,293,454,255.8,454z"/>
<path d="M173,164c-2.4,0-4-1.6-4-4V4c0-2.4,1.6-4,4-4s4,1.6,4,4v156C177,162.4,175.4,164,173,164z"/>
<path d="M333,120c-2.4,0-4-1.6-4-4V4c0-2.4,1.6-4,4-4s4,1.6,4,4v112C337,118.4,335.4,120,333,120z"/>
</svg>