<?xml version="1.0" encoding="iso-8859-1"?>
<!-- Uploaded to: SVG Repo, www.svgrepo.com, Generator: SVG Repo Mixer Tools -->
<svg height="800px" width="800px" version="1.1" id="Layer_1" xmlns="http://www.w3.org/2000/svg" xmlns:xlink="http://www.w3.org/1999/xlink" 
	 viewBox="0 0 390.206 390.206" xml:space="preserve">
<path style="fill:#56ACE0;" d="M327.887,162.586c-31.418,1.099-114.877,13.576-119.79,121.923h-25.471
	c-2.198-63.935-39.046-123.022-133.883-121.406l-10.279-20.04h118.174c2.715,0,5.43-1.099,7.046-2.715
	c30.319-23.273,70.465-28.703,108.929,0.517c2.715,2.198,6.529,2.715,9.244,1.616C281.794,142.545,306.747,136.016,327.887,162.586z
	"/>
<path style="fill:#194F82;" d="M288.323,120.307L288.323,120.307L288.323,120.307z"/>
<path style="fill:#FFFFFF;" d="M72.081,224.905c-27.669,0-50.424,22.756-50.424,50.424s22.756,50.424,50.424,50.424
	s50.424-22.756,50.424-50.424S99.685,224.905,72.081,224.905z"/>
<path style="fill:#FFC10D;" d="M368.549,274.747c0,27.669-22.756,50.424-50.424,50.424s-50.424-22.756-50.424-50.424
	c0-27.669,22.756-50.424,50.424-50.424C345.794,224.388,368.549,247.143,368.549,274.747z"/>
<g>
	<path style="fill:#194F82;" d="M152.824,121.406H20.558c-6.529,0-13.576,5.947-9.762,15.709l21.657,42.279
		c2.198,4.331,6.529,6.529,11.378,5.947c0,0,118.174-18.941,117.075,110.545c0,5.947,4.848,10.861,10.861,10.861h46.61
		c5.947,0,10.861-4.848,10.861-10.861c0.517-128.97,116.493-110.545,117.075-110.545c9.762,1.616,14.61-8.663,11.378-15.709
		c-20.622-43.378-52.558-49.842-69.366-49.842l0,0L278.044,52.04c-0.517-5.43-5.43-9.244-10.861-9.244h-23.855
		c-5.947,0-10.861,4.848-10.861,10.861c0,5.947,4.848,10.861,10.861,10.861h14.61l7.046,45.511
		C226.521,91.604,187.539,97.034,152.824,121.406z M272.614,140.929c2.715,2.198,6.529,2.715,9.244,1.616
		c0,0,24.954-6.529,46.093,20.04c-31.418,1.099-114.877,13.576-119.79,121.923h-25.471
		c-2.198-63.935-39.046-123.022-133.883-121.406l-10.279-20.04h118.174c2.715,0,5.43-1.099,7.046-2.715
		C194.004,117.075,234.149,111.644,272.614,140.929z"/>
	<path style="fill:#194F82;" d="M72.081,203.248C32.517,203.248,0,235.766,0,275.329s32.517,72.081,72.081,72.081
		s72.081-32.517,72.081-72.081C143.644,235.184,111.644,203.248,72.081,203.248z M72.081,325.172
		c-27.669,0-50.424-22.756-50.424-50.424c0-27.669,22.756-49.842,50.424-49.842s50.424,22.756,50.424,50.424
		C122.505,302.933,99.685,325.172,72.081,325.172z"/>
	<path style="fill:#194F82;" d="M318.125,203.248c-39.564,0-72.081,32.517-72.081,72.081s32.517,72.081,72.081,72.081
		s72.081-32.517,72.081-72.081C390.206,235.184,357.689,203.248,318.125,203.248z M318.125,325.172
		c-27.669,0-50.424-22.756-50.424-50.424c0-27.669,22.756-50.424,50.424-50.424s50.424,22.756,50.424,50.424
		C368.549,302.416,345.794,325.172,318.125,325.172z"/>
</g>
</svg>