<?xml version="1.0" encoding="iso-8859-1"?>
<!-- Uploaded to: SVG Repo, www.svgrepo.com, Generator: SVG Repo Mixer Tools -->
<svg height="800px" width="800px" version="1.1" id="Layer_1" xmlns="http://www.w3.org/2000/svg" xmlns:xlink="http://www.w3.org/1999/xlink" 
	 viewBox="0 0 512.003 512.003" xml:space="preserve">
<path style="fill:#315C7C;" d="M485.92,391.443l-89.547-89.547c-6.834-6.834-15.81-11.107-25.424-12.101l0,0
	c-28.657-2.965-55.561-14.903-76.977-33.976l57.316-57.316l56.686-56.686l31.447-31.447l16.533,16.533
	c6.523,6.523,17.097,6.523,23.62,0l14.172-14.172c6.523-6.522,6.523-17.097,0-23.619l-70.859-70.859
	c-6.523-6.523-17.097-6.523-23.62,0l-14.171,14.174c-6.523,6.523-6.523,17.097,0,23.62l16.533,16.535L256,218.21l-57.497-57.497
	l-56.686-56.688L110.369,72.58l16.533-16.535c6.523-6.522,6.523-17.097,0-23.62l-14.171-14.171c-6.522-6.523-17.097-6.523-23.619,0
	l-70.86,70.859c-6.523,6.523-6.523,17.097,0,23.62l14.171,14.172c6.523,6.522,17.097,6.522,23.62,0l16.535-16.535L218.027,255.82
	c-21.415,19.072-48.32,31.011-76.977,33.976l0,0c-9.613,0.994-18.591,5.267-25.424,12.101L26.08,391.444
	c-16.958,16.958-16.958,44.453,0,61.411l33.068,33.068c16.958,16.958,44.453,16.958,61.411,0l89.547-89.547
	c6.833-6.834,11.107-15.81,12.101-25.424l0,0c2.956-28.565,14.828-55.388,33.795-76.77c18.965,21.382,30.839,48.205,33.795,76.77
	l0,0c0.994,9.613,5.267,18.591,12.101,25.424l89.547,89.547c16.958,16.958,44.453,16.958,61.411,0l33.068-33.068
	C502.878,435.896,502.878,408.401,485.92,391.443z"/>
<path d="M390.737,162.735c-0.481-0.722-1.042-1.403-1.657-2.031c-0.615-0.615-1.296-1.162-2.031-1.657
	c-0.722-0.481-1.496-0.895-2.312-1.229c-0.802-0.334-1.643-0.588-2.499-0.762c-1.724-0.347-3.501-0.347-5.224,0
	c-0.842,0.174-1.684,0.428-2.499,0.762c-0.802,0.334-1.577,0.748-2.298,1.229c-0.735,0.494-1.416,1.042-2.031,1.657
	c-0.615,0.628-1.176,1.308-1.67,2.031c-0.481,0.735-0.895,1.51-1.229,2.311c-0.334,0.814-0.588,1.642-0.762,2.499
	c-0.16,0.867-0.254,1.75-0.254,2.619c0,0.867,0.094,1.75,0.254,2.605c0.174,0.855,0.428,1.697,0.762,2.497
	c0.334,0.803,0.748,1.59,1.229,2.311c0.494,0.735,1.056,1.416,1.67,2.031c0.615,0.615,1.296,1.177,2.031,1.657
	c0.722,0.481,1.496,0.895,2.298,1.229c0.815,0.334,1.657,0.588,2.499,0.762c0.868,0.174,1.75,0.267,2.619,0.267
	s1.75-0.094,2.605-0.267c0.855-0.174,1.697-0.428,2.499-0.762c0.815-0.334,1.59-0.748,2.312-1.229
	c0.735-0.48,1.416-1.042,2.031-1.657c0.615-0.615,1.176-1.296,1.657-2.031c0.481-0.721,0.895-1.51,1.229-2.311
	c0.334-0.802,0.588-1.642,0.762-2.497c0.174-0.856,0.267-1.738,0.267-2.605c0-0.868-0.094-1.752-0.267-2.619
	c-0.174-0.856-0.428-1.685-0.762-2.499C391.633,164.244,391.218,163.469,390.737,162.735z"/>
<path d="M405.821,292.448c-8.976-8.975-20.872-14.637-33.497-15.944c-21.19-2.193-41.101-9.678-58.319-21.822l46.731-46.731
	c5.218-5.218,5.218-13.678,0-18.897c-5.218-5.216-13.679-5.216-18.895,0l-57.309,57.309c-0.003,0.003-0.005,0.004-0.007,0.007
	l-32.381,32.381c-1.174,1.174-2.364,2.421-3.616,3.776c-0.734,0.787-1.451,1.586-2.166,2.386c-0.122,0.136-0.235,0.261-0.358,0.4
	c-0.032,0.036-0.057,0.073-0.088,0.11c-20.707,23.414-33.773,52.951-37.001,84.15c-0.676,6.542-3.61,12.703-8.259,17.351
	l-89.547,89.547c-11.722,11.723-30.794,11.72-42.515,0l-33.066-33.065c-11.722-11.72-11.722-30.795,0-42.515l89.547-89.547
	c4.648-4.648,10.811-7.582,17.351-8.259c31.307-3.24,60.939-16.381,84.394-37.212c0.029-0.027,0.063-0.048,0.092-0.075
	c0.098-0.087,0.184-0.167,0.281-0.253c0.77-0.688,1.537-1.378,2.291-2.083c1.352-1.249,2.593-2.434,3.767-3.608L411.08,82.027
	c2.505-2.507,3.913-5.904,3.913-9.448c0-3.543-1.408-6.942-3.913-9.448l-16.535-16.533c-0.808-0.808-0.978-1.73-0.978-2.362
	c0-0.632,0.17-1.553,0.978-2.362l14.172-14.171c0.808-0.808,1.73-0.978,2.362-0.978c0.632,0,1.554,0.17,2.362,0.978l70.86,70.859
	c0.808,0.807,0.978,1.73,0.978,2.362c0,0.632-0.17,1.554-0.978,2.362l-14.172,14.172c-0.808,0.807-1.73,0.977-2.362,0.977
	c-0.631,0-1.554-0.17-2.362-0.978l-16.534-16.536c-2.505-2.505-5.904-3.914-9.448-3.914c-3.543,0-6.943,1.408-9.448,3.914
	l-31.447,31.447c-5.218,5.218-5.218,13.678,0,18.897c5.218,5.216,13.678,5.216,18.897,0l21.998-21.999l7.087,7.087
	c5.679,5.679,13.228,8.805,21.258,8.805s15.581-3.128,21.258-8.805l14.172-14.172c5.679-5.677,8.805-13.226,8.805-21.256
	c0-8.031-3.128-15.581-8.805-21.258L432.336,8.808c-5.679-5.679-13.228-8.806-21.258-8.806s-15.579,3.127-21.258,8.805
	L375.65,22.977c-11.722,11.722-11.722,30.794,0,42.515l7.085,7.085L256.001,199.314L129.265,72.578l7.087-7.087
	c11.72-11.72,11.72-30.792,0-42.514L122.179,8.806c-5.679-5.679-13.228-8.805-21.258-8.805S85.341,3.129,79.664,8.806L8.805,79.665
	C3.128,85.342,0,92.891,0,100.923c0,8.03,3.127,15.579,8.805,21.258l14.172,14.171c5.679,5.677,13.226,8.805,21.258,8.805
	c8.03,0,15.579-3.128,21.258-8.805l7.085-7.087l125.418,125.419c-17.176,12.045-37.293,19.644-58.32,21.82
	c-12.625,1.307-24.522,6.969-33.497,15.944l-89.548,89.547c-22.14,22.141-22.14,58.167,0,80.308l33.066,33.066
	c11.071,11.07,25.612,16.605,40.155,16.605c14.541,0,29.083-5.536,40.153-16.605l89.546-89.547
	c8.976-8.976,14.639-20.872,15.944-33.497c2.095-20.244,9.235-39.631,20.511-56.374c11.356,16.772,18.389,35.98,20.497,56.374
	c1.307,12.626,6.969,24.523,15.944,33.497l89.547,89.547c10.725,10.725,24.986,16.632,40.153,16.632
	c15.169,0,29.428-5.907,40.153-16.632l33.068-33.068C506.093,451.576,512,437.317,512,422.148s-5.907-29.428-16.632-40.155
	L405.821,292.448z M72.578,97.009c-3.543,0-6.943,1.408-9.448,3.914l-16.535,16.535c-0.808,0.807-1.73,0.977-2.361,0.977
	c-0.632,0-1.554-0.17-2.362-0.977c0-0.001,0-0.001,0-0.001l-14.172-14.17c-0.808-0.81-0.978-1.732-0.978-2.364
	c0-0.632,0.17-1.554,0.978-2.362l70.859-70.86c0.81-0.807,1.732-0.977,2.362-0.977c0.631,0,1.554,0.17,2.362,0.978l14.171,14.17
	c1.303,1.304,1.303,3.423,0,4.725l-16.533,16.535c-2.505,2.505-3.914,5.904-3.914,9.448c0,3.543,1.408,6.941,3.914,9.448
	l136.183,136.183l-18.408,18.409l-0.488,0.488L82.026,100.921C79.521,98.416,76.122,97.009,72.578,97.009z M476.473,443.405
	l-33.068,33.068c-5.679,5.679-13.226,8.806-21.258,8.806c-8.03,0-15.579-3.128-21.258-8.806l-89.547-89.547
	c-4.648-4.648-7.581-10.811-8.259-17.351c-2.826-27.325-12.888-52.916-29.272-74.699l21.061-21.061
	c21.78,16.384,47.366,26.442,74.701,29.27c6.54,0.676,12.701,3.609,17.351,8.259l89.547,89.547
	c5.678,5.679,8.805,13.228,8.805,21.258S482.151,437.728,476.473,443.405z"/>
</svg>