<?xml version="1.0" encoding="iso-8859-1"?>
<!-- Uploaded to: SVG Repo, www.svgrepo.com, Generator: SVG Repo Mixer Tools -->
<svg height="800px" width="800px" version="1.1" id="Layer_1" xmlns="http://www.w3.org/2000/svg" xmlns:xlink="http://www.w3.org/1999/xlink" 
	 viewBox="0 0 503.2 503.2" xml:space="preserve">
<path style="fill:#AEB1B4;" d="M216.2,204l-8,186.4c1.2,0,2-0.4,3.2-0.4h76c1.2,0,2,0,3.2,0.4L283,204C283,204,216.2,204,216.2,204z
	"/>
<g>
	<path style="fill:#676767;" d="M350.6,481.2h-2h-192c-3.2,0-8,0.8-8,4v4c0,3.2,4.8,8,8,8h194c3.2,0,4-4.8,4-8v-2v-2
		C354.2,482,353.8,481.2,350.6,481.2z"/>
	<path style="fill:#676767;" d="M190.2,406c2.4-0.4,4.8,0,7.6,4H299c3.2-4,6.4-4.4,9.6-3.6c-3.6-8-12-12.4-21.2-12.4h-76
		C201.8,394,194.2,398.4,190.2,406z"/>
</g>
<polygon style="fill:#AEB1B4;" points="219.4,124.8 217,188.4 282.2,188.4 279.4,124.8 "/>
<path style="fill:#E8E3E3;" d="M192.6,44.4l15.2,68.4c0.8,3.2,4.8,8,9.2,8h0.8h64h0.8c4.4,0,8.4-4.8,9.2-8L307,45.2
	c0.4-1.2,0-1.6-0.4-2.4c-0.8-1.2-2.8-1.2-5.2-1.2H198.6c-2.4,0-4-0.4-5.2,0.8C192.2,43.2,192.2,43.2,192.6,44.4z"/>
<path style="fill:#676767;" d="M286.6,200h2.4c3.2,0,6-3.6,6-6.8c0-2.8-2-4.8-4.8-5.2c-0.4,0-0.8,0.4-1.2,0.4h-4.8l0,0h-2.8h-27.6
	h-43.6c-0.4,0-0.8-0.8-1.2-0.8c-2.8,0.4-4.8,3.6-4.8,6.4c0,3.2,2.8,6.4,6,6.4h2.8h2h2h69.6V200z"/>
<path style="fill:#7D8B95;" d="M160.2,444l-4,37.2h182v-37.6c0-20-18.4-33.6-39.6-33.6H269h-71.2C176.2,410,160.2,424,160.2,444z"/>
<path style="fill:#AEB1B4;" d="M254.6,6H251c-7.6,0-14.4,2.4-14.4,10v21.6h27.6V16C264.2,8.4,262.2,6,254.6,6z"/>
<path d="M348.6,503.2h-194c-6.4,0-12-5.2-12-12v-4c0-6.4,5.2-12,12-12h194c6.4,0,12,5.2,12,12v4C360.2,497.6,355,503.2,348.6,503.2z
	 M154.2,483.2c-2,0-4,1.6-4,4v4c0,2,1.6,4,4,4h194c2,0,4-1.6,4-4v-4c0-2-1.6-4-4-4H154.2z"/>
<path d="M340.6,481.2c-2.4,0-4-1.6-4-4v-33.6c0-19.6-21.2-32.4-41.2-32.4c-2.4,0-4-1.6-4-4s1.6-4,4-4c23.6,0,49.2,16.4,49.2,40.4
	v33.6C344.6,479.6,342.6,481.2,340.6,481.2z"/>
<path d="M158.6,482.4c-2,0-4-1.6-4-4l-0.4-34.4c0-23.2,18.4-39.6,43.6-39.6H267c2.4,0,4,1.6,4,4s-1.6,4-4,4h-69.2
	c-20.8,0-35.6,13.2-35.6,31.6l0.4,34.4C162.6,480.4,161,482.4,158.6,482.4L158.6,482.4z"/>
<path d="M311,411.2c-1.6,0-3.2-0.8-3.6-2.4c-3.2-7.6-10.8-12.8-20-12.8h-76c-9.6,0-16.8,4.4-20,11.6c-0.8,2-3.2,3.2-5.2,2.4
	c-2-0.8-3.2-3.2-2.4-5.2c4-10.4,14.4-16.8,27.2-16.8h76c12.4,0,23.2,6.8,27.2,17.6c0.8,2-0.4,4.4-2.4,5.2
	C312.2,411.2,311.4,411.2,311,411.2z"/>
<path d="M292.6,392.4c-2,0-4-1.6-4-4l-8-186.4c0-2.4,1.6-4,4-4s4,1.6,4,4l8,186.4C296.6,390.4,295,392,292.6,392.4L292.6,392.4z"/>
<path d="M284.2,188.8c-2,0-4-1.6-4-4l-2.4-58.4h-56.4l-2.4,57.2c0,2.4-2,4-4,4c-2.4,0-4-2-4-4l2.8-61.2c0-2,2-4,4-4h64
	c2,0,4,1.6,4,4l2.8,62C288.2,186.8,286.6,188.8,284.2,188.8L284.2,188.8z"/>
<path d="M206.2,392.4L206.2,392.4c-2.4,0-4-2-4-4l8-186.4c0-2.4,2-4,4-4c2.4,0,4,2,4,4l-8,186.4
	C210.2,390.4,208.6,392.4,206.2,392.4z"/>
<path d="M282.2,126.8h-65.6c-7.2,0-13.6-6.8-14.8-12.8l-15.2-66.8c-0.8-2.8,0-5.6,1.6-7.6c2-2.4,5.6-4,10-4H301c4.4,0,8,1.6,10,4
	c1.6,2,2.4,4.8,1.6,7.6L297.4,114C295.8,120,289.4,126.8,282.2,126.8z M198.2,43.6c-2.4,0-3.2,0.8-3.6,0.8c0,0,0,0.4,0,0.8
	l15.2,66.8c0.8,2.8,4.4,6.4,7.2,6.4h65.6c2.8,0,6.4-3.6,7.2-6.4l0,0L305,45.2c0-0.4,0-0.8,0-0.8c-0.4-0.4-1.2-0.8-3.6-0.8H198.2z"/>
<path d="M289,206h-79.2c-6.4,0-12-5.2-12-12s5.2-12,12-12h41.6c2.4,0,4,1.6,4,4s-1.6,4-4,4h-41.6c-2,0-4,1.6-4,4s1.6,4,4,4H289
	c2,0,4-1.6,4-4s-1.6-4-4-4h-10c-2.4,0-4-1.6-4-4s1.6-4,4-4h10c6.4,0,12,5.2,12,12S295.8,206,289,206z"/>
<path d="M265.4,41.6c-2.4,0-4-1.6-4-4V16c0-6.4-1.6-8-8.4-8h-6.4c-7.6,0-9.2,2.4-9.2,8v21.6c0,2.4-1.6,4-4,4s-4-1.6-4-4V16
	c0-10.4,5.6-16,17.2-16h6.4c11.2,0,16.4,5.2,16.4,16v21.6C269.4,40,267.4,41.6,265.4,41.6z"/>
</svg>