<?xml version="1.0" encoding="iso-8859-1"?>
<!-- Uploaded to: SVG Repo, www.svgrepo.com, Generator: SVG Repo Mixer Tools -->
<svg version="1.1" id="Layer_1" xmlns="http://www.w3.org/2000/svg" xmlns:xlink="http://www.w3.org/1999/xlink" 
	 viewBox="0 0 512 512" xml:space="preserve">
<g>
	<rect x="45.876" y="10.199" style="fill:#CCCCCC;" width="85.184" height="491.602"/>
	<rect x="380.767" y="10.199" style="fill:#CCCCCC;" width="85.357" height="491.602"/>
</g>
<rect x="131.06" y="34.677" style="fill:#FBB429;" width="249.707" height="42.837"/>
<g>
	<path style="fill:#603813;" d="M466.126,0h-85.361c-5.632,0-10.199,4.566-10.199,10.199v14.279h-50.31v-7.139
		c0-5.633-4.567-10.199-10.199-10.199c-5.632,0-10.199,4.566-10.199,10.199v7.139h-87.713v-7.139
		c0-5.633-4.567-10.199-10.199-10.199s-10.199,4.566-10.199,10.199v7.139h-50.486V10.199C141.259,4.566,136.692,0,131.06,0H45.876
		c-5.632,0-10.199,4.566-10.199,10.199v491.602c0,5.633,4.567,10.199,10.199,10.199h85.185c5.632,0,10.199-4.566,10.199-10.199
		V87.713h50.486v37.847c-20.98,4.671-36.717,23.42-36.717,45.786c0,25.869,21.047,46.916,46.916,46.916s46.916-21.047,46.916-46.916
		c0-22.367-15.737-41.115-36.717-45.786V87.713h87.713v37.847c-20.98,4.671-36.717,23.42-36.717,45.786
		c0,25.869,21.047,46.916,46.916,46.916s46.916-21.047,46.916-46.916c0-22.367-15.737-41.115-36.717-45.786V87.713h50.309v414.088
		c0,5.633,4.567,10.199,10.199,10.199h85.361c5.632,0,10.199-4.566,10.199-10.199V10.199C476.325,4.566,471.758,0,466.126,0z
		 M228.463,171.347c0,14.622-11.895,26.518-26.518,26.518s-26.518-11.896-26.518-26.518s11.895-26.518,26.518-26.518
		S228.463,156.725,228.463,171.347z M336.574,171.347c0,14.622-11.895,26.518-26.518,26.518c-14.623,0-26.518-11.896-26.518-26.518
		s11.895-26.518,26.518-26.518C324.679,144.829,336.574,156.725,336.574,171.347z M120.861,491.602H56.075V20.398h64.786V491.602z
		 M141.259,67.315V44.876h50.486v22.438H141.259z M212.144,67.315V44.876h87.713v22.438H212.144z M320.255,67.315V44.876h50.309
		v22.438H320.255z M390.962,20.398h64.963v471.203h-64.963V20.398z"/>
	<path style="fill:#603813;" d="M435.507,354.932c5.632,0,10.199-4.566,10.199-10.199v-4.08c0-5.633-4.567-10.199-10.199-10.199
		c-5.632,0-10.199,4.566-10.199,10.199v4.08C425.307,350.366,429.875,354.932,435.507,354.932z"/>
	<path style="fill:#603813;" d="M435.507,479.363c5.632,0,10.199-4.566,10.199-10.199v-91.793c0-5.633-4.567-10.199-10.199-10.199
		c-5.632,0-10.199,4.566-10.199,10.199v91.793C425.307,474.796,429.875,479.363,435.507,479.363z"/>
</g>
</svg>