<?xml version="1.0" encoding="iso-8859-1"?>
<!-- Uploaded to: SVG Repo, www.svgrepo.com, Generator: SVG Repo Mixer Tools -->
<svg height="800px" width="800px" version="1.1" id="Layer_1" xmlns="http://www.w3.org/2000/svg" xmlns:xlink="http://www.w3.org/1999/xlink" 
	 viewBox="0 0 448.134 448.134" xml:space="preserve">
<g transform="translate(0 -1020.36)">
	<g shape-rendering="auto" image-rendering="auto" color-rendering="auto" color-interpolation="sRGB">
		<path style="fill:#5A3392;" d="M111.848,1020.36c-16.828,0.01-32.8,7.469-42.844,18.313c-7.333,7.918-10.096,17.848-10.063,27.406
			c0.032,9.557,2.492,19.066,5.438,28.438c5.878,18.747,13.418,37.447,12.188,51.5c-2.207,25.198-12.13,50.085-22.188,75.656H71.41
			c5.822-14.945,11.564-30.138,15.656-45.906h0.031c15.948,6.091,33.485,6.155,49.469,0.219
			c5.503,20.944,13.915,40.979,21.531,60.625c-14.074,18.229-23.816,39.89-27.844,63.531c-0.544,2.656-0.893,5.34-1.25,8.031
			c-0.061,0.544-0.19,1.121-0.25,1.688c-0.544,4.795-0.969,9.607-0.969,14.5c0.01,4.771,0.363,9.498,0.937,14.188
			c0.061,0.688,0.19,1.343,0.25,2.031c0.302,2.219,0.62,4.431,1.031,6.625c0.063,0.392,0.184,0.765,0.25,1.156
			c-1.334-7.848-2.111-15.822-2.125-23.875c4.009-39.642,21.718-80.863,41.719-101.375c-10.173-26.008-20.411-51.404-22.656-77.031
			c-1.234-14.053,6.275-32.753,12.156-51.5c2.939-9.371,5.407-18.91,5.438-28.469c0.032-9.557-2.824-19.457-10.156-27.375
			c-10.042-10.842-25.921-18.303-42.75-18.313h-0.031V1020.36z M46.817,1241.454c-2.159,5.842-4.106,11.76-5.969,17.719H57.66
			c1.931-5.875,3.975-11.793,6.219-17.719H46.817z M35.754,1278.954c-2.074,9.754-3.634,19.632-3.719,29.875
			c-0.302,41.986,17.657,80.728,30.094,117.781c1.246,3.714,2.037,9.203,3.688,15c1.651,5.8,4.548,12.553,11.094,16.875
			c20.235,13.346,49.671,13.346,69.906,0c6.555-4.323,9.348-11.078,11-16.875c1.651-5.798,2.536-11.291,3.781-15
			c0.786-2.346,1.672-4.783,2.5-7.156c-5.386-6.111-10.141-12.684-14.375-19.531c0.904,1.462,1.669,3.012,2.625,4.438
			c-2.038,5.654-4.114,11.366-6.031,17.094c-1.935,5.776-2.679,11.415-3.906,15.719c-1.228,4.306-2.6,6.676-4.469,7.906
			c-13.661,9.008-38.652,9.008-52.313,0c-1.869-1.232-3.147-3.602-4.375-7.906c-1.228-4.306-2.096-9.949-4.031-15.719
			c-12.811-38.166-29.44-75.323-29.156-112.563c0.07-10.023,1.751-19.974,4.063-29.938H35.754z M132.879,1360.547
			c0.199,0.773,0.32,1.576,0.531,2.344C133.195,1362.12,133.081,1361.323,132.879,1360.547z M137.629,1375.61
			c1.121,2.966,2.442,5.819,3.75,8.688C140.06,1381.427,138.756,1378.559,137.629,1375.61z M142.973,1387.86
			c1.47,3,3.078,5.904,4.75,8.781C146.047,1393.762,144.442,1390.842,142.973,1387.86z"/>
		<g>
			<path style="fill:#FFFFFF;" d="M111.868,1036.452c11.776,0,24.519,6.035,31.062,13.094c4.421,4.771,5.932,9.865,5.908,16.564
				c-0.024,6.695-1.984,14.783-4.753,23.592c-3.586,11.42-8.437,23.842-11.094,36.623l-3.435,1.783
				c-10.996,5.764-24.066,5.764-35.063,0l-3.937-2.063c-2.637-12.682-7.381-25.006-10.937-36.344
				c-2.764-8.811-4.693-16.896-4.717-23.592c-0.023-6.699,1.488-11.791,5.908-16.563c6.541-7.063,19.286-13.091,31.062-13.095
				L111.868,1036.452z"/>
			<path style="fill:#FFFFFF;" d="M87.086,1175.794c15.948,6.092,33.485,6.176,49.469,0.24
				c5.503,20.943,13.915,40.979,21.531,60.623c-14.074,18.229-23.815,39.889-27.843,63.531c-0.544,2.656-0.895,5.34-1.252,8.031
				c-0.061,0.545-0.181,1.119-0.242,1.686c-0.544,4.795-0.968,9.605-0.968,14.5c0.01,4.771,0.363,9.5,0.937,14.189
				c0.061,0.688,0.181,1.344,0.242,2.031c0.302,2.219,0.623,4.432,1.034,6.625c3.344,20.871,11.036,40.289,22.343,57.154
				c-2.038,5.654-4.112,11.367-6.029,17.094c-1.935,5.775-2.679,11.414-3.907,15.719c-1.228,4.305-2.6,6.678-4.469,7.906
				c-13.661,9.008-38.653,9.008-52.313,0c-1.869-1.232-3.145-3.604-4.372-7.906c-1.228-4.305-2.098-9.949-4.034-15.719
				c-12.811-38.166-29.44-75.322-29.156-112.563c0.181-26.129,9.541-51.818,19.938-78.313c6.968-17.756,14.16-35.926,19.062-54.813
				L87.086,1175.794z"/>
		</g>
		<path style="fill:#29A3EC;" d="M272.024,1193.788c72.278,0,130.727,58.324,130.727,130.598c0,72.279-58.449,130.73-130.727,130.73
			c-44.757,0-84.137-22.439-107.659-56.67c-15.633-22.236-21.728-47.836-22.96-74.053c0.001-72.275,58.354-130.6,130.633-130.6
			L272.024,1193.788z"/>
		<path style="fill:#3CDEF6;" d="M275.529,1198.797c64.529,0,116.711,52.07,116.712,116.598
			c0,64.527-52.182,116.713-116.712,116.713c-39.958,0-75.116-20.033-96.117-50.594c-13.946-19.92-19.334-42.68-20.525-66.119
			c0.001-64.527,52.098-116.598,116.627-116.598H275.529z"/>
		<path style="fill:#5A3392;" d="M296.105,1212.43c-13.161,0-24.095,10.816-24.095,23.977c0,13.162,10.934,23.979,24.095,23.979
			c13.16-0.002,23.977-10.818,23.976-23.979C320.082,1223.247,309.265,1212.43,296.105,1212.43z"/>
		<path style="fill:#FCF2EC;" d="M296.105,1228.376c4.511,0,7.913,3.518,7.913,8.031c0,4.512-3.399,8.031-7.913,8.031
			c-4.511,0-8.032-3.52-8.031-8.031C288.073,1231.897,291.593,1228.376,296.105,1228.376z"/>
		<path style="fill:#5A3392;" d="M344.058,1260.383c-13.161-0.002-23.977,10.934-23.977,24.094
			c0,13.162,10.816,23.979,23.977,23.979c13.16,0,23.976-10.816,23.976-23.979C368.034,1271.317,357.218,1260.383,344.058,1260.383z
			"/>
		<path style="fill:#FCF2EC;" d="M344.058,1276.446c4.511,0,8.031,3.52,8.031,8.031s-3.52,7.914-8.031,7.914
			c-4.511,0-8.032-3.398-8.032-7.914C336.026,1279.967,339.545,1276.446,344.058,1276.446z"/>
		<g>
			<path style="fill:#5A3392;" d="M262.754,1180.788c-33.727,2.197-66.68,16.191-92.188,41.563
				c-51.014,50.742-56.701,131.537-13.313,188.938c43.388,57.398,122.642,73.957,185.375,38.719
				c3.967-1.947,5.604-6.74,3.657-10.707s-6.741-5.604-10.708-3.658c-0.261,0.129-0.516,0.271-0.762,0.428
				c-55.863,31.379-126.176,16.676-164.813-34.438c-38.637-51.111-33.584-122.752,11.844-167.936
				c45.427-45.186,117.094-49.848,168-10.938c50.906,38.908,65.209,109.305,33.531,165c-2.279,3.785-1.057,8.701,2.729,10.98
				c3.786,2.279,8.702,1.059,10.981-2.729c0.068-0.113,0.134-0.229,0.197-0.346c35.574-62.545,19.448-141.932-37.719-185.625
				c-28.583-21.846-63.086-31.447-96.813-29.25V1180.788z"/>
			<path style="fill:#5A3392;" d="M375.442,1404.819c-2.361,0.021-4.591,1.086-6.094,2.906c-4.135,4.828-8.631,9.338-13.438,13.5
				c-3.42,2.799-3.924,7.838-1.126,11.258s7.839,3.926,11.259,1.127c0.115-0.094,0.227-0.191,0.336-0.291
				c5.407-4.682,10.442-9.756,15.094-15.188c2.934-3.305,2.633-8.361-0.671-11.295
				C379.325,1405.526,377.416,1404.807,375.442,1404.819z"/>
		</g>
		<path style="fill:#EBFEFF;" d="M115.169,1037.771c3.826,0,7.718,0.8,11.5,1.907c-7.464,3.033-13.536,4.694-17.977,9.898
			c-3.773,4.42-5.932,9.713-5.906,16.406c0.032,6.693,1.945,14.818,4.719,23.625c5.547,17.615,14.649,37.555,12.875,57.748
			c-2.594,29.514-14.038,56.787-24.469,83.281c-10.431,26.494-19.854,52.063-20.063,78.188
			c-0.296,37.23,16.429,74.395,29.281,112.563c1.945,5.773,2.801,11.412,4.031,15.719c1.229,4.305,2.496,6.672,4.375,7.906
			c4.09,2.689,9.235,4.479,14.75,5.563c-12.971,2.545-28.134,0.768-37.75-5.563c-1.879-1.232-3.146-3.6-4.375-7.906
			c-1.23-4.305-2.086-9.943-4.031-15.719c-12.852-38.17-29.578-75.332-29.281-112.563c0.21-26.125,9.632-51.693,20.063-78.188
			c10.431-26.494,21.875-53.768,24.469-83.281c1.774-20.193-7.328-40.135-12.875-57.748c-2.774-8.809-4.693-16.934-4.719-23.625
			c-0.032-6.693,1.472-11.635,5.906-16.406C92.255,1042.514,103.336,1037.772,115.169,1037.771L115.169,1037.771z"/>
		<path style="fill:#EE746C;" d="M92.43,1144.669c12.436,4.869,26.246,4.953,38.719,0.24c0.037,0.816-0.01,1.645,0.061,2.467
			c0.363,4.322,0.992,8.58,1.717,12.813c-13.639,6.432-28.833,6.486-42.531-0.367c0.701-4.137,1.596-8.213,1.971-12.438
			c0.06-0.896,0.025-1.791,0.06-2.686L92.43,1144.669z"/>
		<path style="fill:#FB9761;" d="M95.597,1146.296c10.388,4.064,21.924,4.137,32.344,0.176c0.031,0.688-0.008,1.377,0.05,2.063
			c0.302,3.611,0.828,7.168,1.433,10.703c-11.446,4.795-24.138,4.686-35.529-0.305c0.605-3.453,1.336-6.859,1.645-10.389
			c0.05-0.752,0.021-1.488,0.05-2.244L95.597,1146.296z"/>
		<path style="fill:#5A3392;" d="M103.703,1052.391c-1.794,0.105-3.501,0.813-4.844,2.008c-2.891,2.426-5.938,4.85-8.268,8.857
			c-2.328,4.004-3.096,9.402-2.008,14.646c0.425,4.398,4.335,7.619,8.733,7.193c4.398-0.424,7.619-4.334,7.194-8.732
			c-0.054-0.561-0.167-1.113-0.337-1.648c-0.484-2.455-0.242-2.623,0.242-3.422c0.484-0.801,2.008-2.328,4.723-4.607
			c3.483-2.719,4.102-7.748,1.382-11.23c-1.626-2.082-4.176-3.229-6.813-3.061L103.703,1052.391z"/>
	</g>
	<g>
		<path style="fill:#5A3392;" d="M105.56,1400.93c0,4.418-3.581,8-8,8c0,0,0,0,0,0c-4.418,0-8-3.582-8-8l0,0c0-4.418,3.581-8,8-8
			c0,0,0,0,0,0C101.978,1392.93,105.56,1396.512,105.56,1400.93L105.56,1400.93z"/>
		<g shape-rendering="auto" image-rendering="auto" color-rendering="auto" color-interpolation="sRGB">
			<path style="fill:#5A3392;" d="M73.432,1304.891c-4.418,0.047-7.962,3.668-7.914,8.086c0,0.021,0.001,0.043,0.001,0.064v1.771
				c-0.001,21.047,4.995,41.766,14.409,60.59l2.479,4.961c1.648,4.1,6.307,6.088,10.407,4.441c4.1-1.648,6.088-6.309,4.441-10.408
				c-0.156-0.387-0.342-0.762-0.556-1.121l-2.479-4.959c-8.303-16.602-12.638-34.941-12.638-53.504v-1.771
				c0.083-4.418-3.43-8.066-7.848-8.15C73.632,1304.889,73.532,1304.889,73.432,1304.891z"/>
			<path style="fill:#5A3392;" d="M87.535,1124.475l-7.438,14.154l7.031,3.688c15.632,8.189,34.306,8.189,49.937,0l7.031-3.688
				l-7.438-14.154l-7.031,3.656c-10.997,5.762-24.066,5.762-35.062,0L87.535,1124.475z"/>
			<path style="fill:#5A3392;" d="M83.535,1156.475l-7.438,14.154l3.406,1.783c20.464,10.715,44.723,10.715,65.187,0l3.406-1.783
				l-7.438-14.154l-3.406,1.781c-15.893,8.322-34.419,8.322-50.312,0L83.535,1156.475L83.535,1156.475z"/>
		</g>
	</g>
</g>
</svg>