<?xml version="1.0" encoding="iso-8859-1"?>
<!-- Uploaded to: SVG Repo, www.svgrepo.com, Generator: SVG Repo Mixer Tools -->
<svg height="800px" width="800px" version="1.1" id="Layer_1" xmlns="http://www.w3.org/2000/svg" xmlns:xlink="http://www.w3.org/1999/xlink" 
	 viewBox="0 0 447.977 447.977" xml:space="preserve">
<g transform="translate(0 -1020.36)" shape-rendering="auto" image-rendering="auto" color-rendering="auto" color-interpolation="sRGB">
	<path style="fill:#5A3392;" d="M287.996,1020.36c-17.578,0-32.008,14.431-32.008,32.008c0,17.58,14.429,32.008,32.008,32.008
		c17.578,0,32.008-14.43,32.008-32.008C320.004,1034.791,305.574,1020.36,287.996,1020.36L287.996,1020.36z"/>
	<path style="fill:#EE746C;" d="M287.996,1036.423c8.931,0,15.945,7.013,15.945,15.944c0,8.932-7.014,15.943-15.945,15.943
		c-8.931,0-16.063-7.014-16.063-15.943C271.933,1043.436,279.065,1036.423,287.996,1036.423z"/>
	<g>
		<path style="fill:#5A3392;" d="M24.035,1084.368v383.969h47.938v-8.031v-215.906h304.031v223.938h47.938v-8.031v-375.938h-47.938
			v23.969H71.973v-23.969C71.973,1084.368,24.035,1084.368,24.035,1084.368z"/>
		<g>
			<path style="fill:#FFFFFF;" d="M39.973,1100.305h16.063v24.125v111.938v216.031H39.973V1100.305z"/>
			<path style="fill:#FFFFFF;" d="M391.941,1100.305h16.063v352.094h-16.063V1100.305z"/>
		</g>
		<g>
			<path style="fill:#29A3EC;" d="M71.973,1124.43h23.969v23.969H71.973V1124.43z"/>
			<path style="fill:#29A3EC;" d="M112.004,1124.43h24v23.969h-24V1124.43z"/>
			<path style="fill:#29A3EC;" d="M151.941,1124.43h24.094v23.969h-24.094V1124.43z"/>
			<path style="fill:#29A3EC;" d="M191.973,1124.43h23.969v23.969h-23.969V1124.43z"/>
			<path style="fill:#29A3EC;" d="M232.004,1124.43h24v23.969h-24V1124.43z"/>
			<path style="fill:#29A3EC;" d="M271.941,1124.43h24.094v23.969h-24.094V1124.43z"/>
			<path style="fill:#29A3EC;" d="M311.973,1124.43h23.969v23.969h-23.969V1124.43z"/>
			<path style="fill:#29A3EC;" d="M352.004,1124.43h24v23.969h-24V1124.43z"/>
			<path style="fill:#29A3EC;" d="M71.973,1164.337h23.969v23.969H71.973V1164.337z"/>
			<path style="fill:#29A3EC;" d="M112.004,1164.337h24v23.969h-24V1164.337z"/>
			<path style="fill:#29A3EC;" d="M151.941,1164.337h24.094v23.969h-24.094V1164.337z"/>
			<path style="fill:#29A3EC;" d="M191.973,1164.337h23.969v23.969h-23.969V1164.337z"/>
			<path style="fill:#29A3EC;" d="M232.004,1164.337h24v23.969h-24V1164.337z"/>
			<path style="fill:#29A3EC;" d="M271.941,1164.337h24.094v23.969h-24.094V1164.337z"/>
			<path style="fill:#29A3EC;" d="M311.973,1164.337h23.969v23.969h-23.969V1164.337z"/>
			<path style="fill:#29A3EC;" d="M352.004,1164.337h24v23.969h-24V1164.337z"/>
			<path style="fill:#29A3EC;" d="M71.973,1204.368h23.969v23.969H71.973V1204.368z"/>
			<path style="fill:#29A3EC;" d="M112.004,1204.368h24v23.969h-24V1204.368z"/>
			<path style="fill:#29A3EC;" d="M151.941,1204.368h24.094v23.969h-24.094V1204.368z"/>
			<path style="fill:#29A3EC;" d="M191.973,1204.368h23.969v23.969h-23.969V1204.368z"/>
			<path style="fill:#29A3EC;" d="M232.004,1204.368h24v23.969h-24V1204.368z"/>
			<path style="fill:#29A3EC;" d="M271.941,1204.368h24.094v23.969h-24.094V1204.368z"/>
			<path style="fill:#29A3EC;" d="M311.973,1204.368h23.969v23.969h-23.969V1204.368z"/>
			<path style="fill:#29A3EC;" d="M352.004,1204.368h24v23.969h-24V1204.368z"/>
		</g>
		<g>
			<path style="fill:#EBFEFF;" d="M400.004,1100.305h8v24.125v111.938v216.031h-8V1100.305z"/>
			<path style="fill:#EBFEFF;" d="M48.035,1100.305h8v24.125v111.938v216.031h-8C48.035,1452.399,48.035,1100.305,48.035,1100.305z"
				/>
		</g>
	</g>
	<path style="fill:#FB9761;" d="M287.983,1043.298c7.007,0,12.508,5.495,12.508,12.507c0,7-5.502,12.506-12.508,12.506
		c-7.007,0-12.6-5.502-12.6-12.506C275.383,1048.803,280.978,1043.298,287.983,1043.298z"/>
	<g>
		<path style="fill:#3CDEF6;" d="M74.978,1127.436h17.958v17.957H74.978V1127.436z"/>
		<path style="fill:#3CDEF6;" d="M115.025,1127.436h17.958v17.957h-17.958V1127.436z"/>
		<path style="fill:#3CDEF6;" d="M155.009,1127.436h17.958v17.957h-17.958V1127.436z"/>
		<path style="fill:#3CDEF6;" d="M194.978,1127.436h17.958v17.957h-17.958V1127.436z"/>
		<path style="fill:#3CDEF6;" d="M235.025,1127.436h17.958v17.957h-17.958V1127.436z"/>
		<path style="fill:#3CDEF6;" d="M275.009,1127.436h17.958v17.957h-17.958V1127.436z"/>
		<path style="fill:#3CDEF6;" d="M314.978,1127.436h17.958v17.957h-17.958V1127.436z"/>
		<path style="fill:#3CDEF6;" d="M355.025,1127.436h17.958v17.957h-17.958V1127.436z"/>
		<path style="fill:#3CDEF6;" d="M74.978,1167.342h17.958v17.959H74.978V1167.342z"/>
		<path style="fill:#3CDEF6;" d="M115.025,1167.342h17.958v17.959h-17.958V1167.342z"/>
		<path style="fill:#3CDEF6;" d="M155.009,1167.342h17.958v17.959h-17.958V1167.342z"/>
		<path style="fill:#3CDEF6;" d="M194.978,1167.342h17.958v17.959h-17.958V1167.342z"/>
		<path style="fill:#3CDEF6;" d="M235.025,1167.342h17.958v17.959h-17.958V1167.342z"/>
		<path style="fill:#3CDEF6;" d="M275.009,1167.342h17.958v17.959h-17.958V1167.342z"/>
		<path style="fill:#3CDEF6;" d="M314.978,1167.342h17.958v17.959h-17.958V1167.342z"/>
		<path style="fill:#3CDEF6;" d="M355.025,1167.342h17.958v17.959h-17.958V1167.342z"/>
		<path style="fill:#3CDEF6;" d="M74.978,1207.374h17.958v17.957H74.978V1207.374z"/>
		<path style="fill:#3CDEF6;" d="M115.025,1207.374h17.958v17.957h-17.958V1207.374z"/>
		<path style="fill:#3CDEF6;" d="M155.009,1207.374h17.958v17.957h-17.958V1207.374z"/>
		<path style="fill:#3CDEF6;" d="M194.978,1207.374h17.958v17.957h-17.958V1207.374z"/>
		<path style="fill:#3CDEF6;" d="M235.025,1207.374h17.958v17.957h-17.958V1207.374z"/>
		<path style="fill:#3CDEF6;" d="M275.009,1207.374h17.958v17.957h-17.958V1207.374z"/>
		<path style="fill:#3CDEF6;" d="M314.978,1207.374h17.958v17.957h-17.958V1207.374z"/>
		<path style="fill:#3CDEF6;" d="M355.025,1207.374h17.958v17.957h-17.958V1207.374z"/>
	</g>
</g>
</svg>