<?xml version="1.0" encoding="iso-8859-1"?>
<!-- Uploaded to: SVG Repo, www.svgrepo.com, Generator: SVG Repo Mixer Tools -->
<svg version="1.1" id="Layer_1" xmlns="http://www.w3.org/2000/svg" xmlns:xlink="http://www.w3.org/1999/xlink" 
	 viewBox="0 0 512 512" xml:space="preserve">
<rect x="28.526" y="92.129" style="fill:#FFF6CC;" width="454.946" height="170.337"/>
<g>
	<path style="fill:#4D1E1E;" d="M418.788,213.163c-5.632,0-10.199,4.566-10.199,10.199v5.1c0,5.633,4.567,10.199,10.199,10.199
		c5.632,0,10.199-4.566,10.199-10.199v-5.1C428.988,217.729,424.421,213.163,418.788,213.163z"/>
	<path style="fill:#4D1E1E;" d="M38.726,81.933V65.181c0-5.633-4.567-10.199-10.199-10.199s-10.199,4.566-10.199,10.199v371.44
		h-8.129C4.567,436.62,0,441.186,0,446.819s4.567,10.199,10.199,10.199h36.654c5.632,0,10.199-4.566,10.199-10.199
		s-4.567-10.199-10.199-10.199h-8.127V272.668h434.547V436.62h-8.128c-5.632,0-10.199,4.566-10.199,10.199
		s4.567,10.199,10.199,10.199h36.655c5.632,0,10.199-4.566,10.199-10.199s-4.567-10.199-10.199-10.199h-8.129V65.181
		c0-5.633-4.567-10.199-10.199-10.199c-5.632,0-10.199,4.566-10.199,10.199v16.753H38.726V81.933z M473.274,137.993h-44.286v-35.662
		h44.286V137.993z M408.589,137.993h-44.286v-35.662h44.286V137.993z M343.905,137.993h-44.286v-35.662h44.286V137.993z
		 M103.411,196.211v-37.82h44.286v37.82H103.411z M147.697,216.609v35.659h-44.286v-35.659H147.697z M38.726,158.391h44.286v37.82
		H38.726V158.391z M103.411,137.993v-35.662h44.286v35.662H103.411z M168.095,158.391h44.286v37.82h-44.286V158.391z
		 M232.778,158.391h46.442v37.82h-46.442V158.391z M299.62,158.391h44.286v37.82H299.62V158.391z M279.222,102.331v35.662h-46.442
		v-35.662C232.779,102.331,279.222,102.331,279.222,102.331z M212.38,102.331v35.662h-44.286v-35.662
		C168.094,102.331,212.38,102.331,212.38,102.331z M83.012,102.331v35.662H38.726v-35.662
		C38.726,102.331,83.012,102.331,83.012,102.331z M38.726,216.609h44.286v35.659H38.726V216.609z M168.095,216.609h44.286v35.659
		h-44.286V216.609z M232.778,252.269v-35.659h46.442v35.659H232.778z M299.62,252.269v-35.659h44.286v35.659H299.62z
		 M364.303,252.269v-35.659h20.207c5.632,0,10.199-4.566,10.199-10.199c0-5.633-4.567-10.199-10.199-10.199h-20.207v-37.82h44.286
		v32.333c0,5.633,4.567,10.199,10.199,10.199s10.199-4.566,10.199-10.199v-32.332h44.286v93.878h-108.97V252.269z"/>
</g>
</svg>