<?xml version="1.0" encoding="iso-8859-1"?>
<!-- Uploaded to: SVG Repo, www.svgrepo.com, Generator: SVG Repo Mixer Tools -->
<svg height="800px" width="800px" version="1.1" id="Layer_1" xmlns="http://www.w3.org/2000/svg" xmlns:xlink="http://www.w3.org/1999/xlink" 
	 viewBox="0 0 512 512" xml:space="preserve">
<circle style="fill:#4E8FE3;" cx="256" cy="256" r="248.396"/>
<ellipse style="fill:#315591;" cx="256" cy="256" rx="174.465" ry="248.396"/>
<ellipse style="fill:#4E8FE3;" cx="256" cy="256" rx="81.94" ry="248.396"/>
<path style="opacity:0.29;fill:#315591;enable-background:new    ;" d="M256.003,413.024c-121.577,0-222.738-87.349-244.188-202.709
	c-2.754,14.81-4.209,30.078-4.209,45.687c0,137.186,111.21,248.396,248.396,248.396s248.396-111.21,248.396-248.396
	c0-15.608-1.455-30.876-4.209-45.687C478.741,325.675,377.579,413.024,256.003,413.024z"/>
<path d="M512,256c0-68.38-26.629-132.668-74.981-181.019C388.668,26.63,324.383,0.001,256.005,0c-0.001,0-0.001,0-0.001,0h-0.001
	c0,0-0.001,0-0.002,0C187.62,0,123.332,26.629,74.981,74.981C26.629,123.332,0,187.62,0,256s26.629,132.668,74.981,181.02
	C123.332,485.371,187.62,512,256,512c0.001,0,0.001,0,0.001,0c0.001,0,0.001,0,0.001,0s0.001,0,0.002,0
	c68.379-0.001,132.664-26.63,181.014-74.98C485.371,388.668,512,324.38,512,256z M306.726,82.739
	c15.229,46.168,23.618,107.7,23.618,173.261c0,65.561-8.388,127.093-23.618,173.261c-13.95,42.284-32.91,67.529-50.72,67.531
	c-0.001,0-0.002,0-0.003,0c-17.811-0.001-36.772-25.246-50.721-67.531C190.051,383.094,181.663,321.561,181.663,256
	c0-65.56,8.388-127.092,23.618-173.261c13.951-42.285,32.911-67.53,50.721-67.531c0.001,0,0.002,0,0.003,0
	C273.816,15.21,292.776,40.455,306.726,82.739z M190.838,77.975C175.113,125.64,166.454,188.863,166.454,256
	c0,67.138,8.659,130.361,24.384,178.025c8.102,24.56,17.771,43.713,28.503,56.899C144.911,466.75,89.141,370.603,89.141,256
	s55.77-210.75,130.201-234.924C208.609,34.263,198.941,53.416,190.838,77.975z M321.167,434.025
	c15.725-47.664,24.384-110.887,24.384-178.025c0-67.137-8.659-130.36-24.384-178.025c-8.102-24.558-17.769-43.71-28.501-56.896
	C367.093,45.256,422.859,141.401,422.859,256s-55.766,210.744-130.193,234.921C303.398,477.735,313.066,458.583,321.167,434.025z
	 M15.208,256c0-101.519,63.151-188.562,152.232-223.917c-14.901,11.67-28.711,26.369-41.027,43.905
	C92.571,124.172,73.933,188.101,73.933,256s18.638,131.828,52.481,180.013c12.316,17.536,26.126,32.236,41.027,43.904
	C78.359,444.562,15.208,357.519,15.208,256z M344.561,479.917c14.901-11.67,28.709-26.368,41.027-43.904
	c33.843-48.184,52.48-112.114,52.48-180.013s-18.638-131.828-52.48-180.013c-12.316-17.537-26.126-32.236-41.027-43.905
	C433.641,67.438,496.792,154.481,496.792,256S433.641,444.562,344.561,479.917z"/>
</svg>